<?xml version="1.0" encoding="utf-8" standalone="no"?>
<!DOCTYPE svg PUBLIC "-//W3C//DTD SVG 1.1//EN"
  "http://www.w3.org/Graphics/SVG/1.1/DTD/svg11.dtd">
<svg xmlns:xlink="http://www.w3.org/1999/xlink" width="528.142687pt" height="217.789969pt" viewBox="0 0 528.142687 217.789969" xmlns="http://www.w3.org/2000/svg" version="1.1">
 <metadata>
  <rdf:RDF xmlns:dc="http://purl.org/dc/elements/1.1/" xmlns:cc="http://creativecommons.org/ns#" xmlns:rdf="http://www.w3.org/1999/02/22-rdf-syntax-ns#">
   <cc:Work>
    <dc:type rdf:resource="http://purl.org/dc/dcmitype/StillImage"/>
    <dc:date>2026-03-24T12:01:35.193165</dc:date>
    <dc:format>image/svg+xml</dc:format>
    <dc:creator>
     <cc:Agent>
      <dc:title>Matplotlib v3.9.2, https://matplotlib.org/</dc:title>
     </cc:Agent>
    </dc:creator>
   </cc:Work>
  </rdf:RDF>
 </metadata>
 <defs>
  <style type="text/css">*{stroke-linejoin: round; stroke-linecap: butt}</style>
 </defs>
 <g id="figure_1">
  <g id="patch_1">
   <path d="M 0 217.789969 
L 528.142687 217.789969 
L 528.142687 0 
L 0 0 
L 0 217.789969 
z
" style="fill: none; opacity: 0"/>
  </g>
  <g id="axes_1">
   <g id="patch_2">
    <path d="M 119.182687 210.589969 
L 520.942688 210.589969 
L 520.942688 27.637969 
L 119.182687 27.637969 
L 119.182687 210.589969 
z
" style="fill: none"/>
   </g>
   <g id="patch_3">
    <path d="M 124.204687 48.085545 
L 214.600687 48.085545 
Q 216.609488 48.085545 216.609488 49.161733 
L 216.609488 92.209263 
Q 216.609488 93.285451 214.600687 93.285451 
L 124.204687 93.285451 
Q 122.195887 93.285451 122.195887 92.209263 
L 122.195887 49.161733 
Q 122.195887 48.085545 124.204687 48.085545 
z
" clip-path="url(#p5b808b34d3)" style="fill: #083370; opacity: 0.49507"/>
   </g>
   <g id="patch_4">
    <path d="M 124.204687 101.894957 
L 214.600687 101.894957 
Q 216.609488 101.894957 216.609488 102.971145 
L 216.609488 146.018675 
Q 216.609488 147.094863 214.600687 147.094863 
L 124.204687 147.094863 
Q 122.195887 147.094863 122.195887 146.018675 
L 122.195887 102.971145 
Q 122.195887 101.894957 124.204687 101.894957 
z
" clip-path="url(#p5b808b34d3)" style="fill: #08306b; opacity: 0.5"/>
   </g>
   <g id="patch_5">
    <path d="M 124.204687 155.704369 
L 214.600687 155.704369 
Q 216.609488 155.704369 216.609488 156.780557 
L 216.609488 199.828086 
Q 216.609488 200.904275 214.600687 200.904275 
L 124.204687 200.904275 
Q 122.195887 200.904275 122.195887 199.828086 
L 122.195887 156.780557 
Q 122.195887 155.704369 124.204687 155.704369 
z
" clip-path="url(#p5b808b34d3)" style="fill: #f7fbff; opacity: 0.15"/>
   </g>
   <g id="patch_6">
    <path d="M 224.644688 48.085545 
L 315.040687 48.085545 
Q 317.049488 48.085545 317.049488 49.161733 
L 317.049488 92.209263 
Q 317.049488 93.285451 315.040687 93.285451 
L 224.644688 93.285451 
Q 222.635887 93.285451 222.635887 92.209263 
L 222.635887 49.161733 
Q 222.635887 48.085545 224.644688 48.085545 
z
" clip-path="url(#p5b808b34d3)" style="fill: #083370; opacity: 0.495035"/>
   </g>
   <g id="patch_7">
    <path d="M 224.644688 101.894957 
L 315.040687 101.894957 
Q 317.049488 101.894957 317.049488 102.971145 
L 317.049488 146.018675 
Q 317.049488 147.094863 315.040687 147.094863 
L 224.644688 147.094863 
Q 222.635887 147.094863 222.635887 146.018675 
L 222.635887 102.971145 
Q 222.635887 101.894957 224.644688 101.894957 
z
" clip-path="url(#p5b808b34d3)" style="fill: #08306b; opacity: 0.5"/>
   </g>
   <g id="patch_8">
    <path d="M 224.644688 155.704369 
L 315.040687 155.704369 
Q 317.049488 155.704369 317.049488 156.780557 
L 317.049488 199.828086 
Q 317.049488 200.904275 315.040687 200.904275 
L 224.644688 200.904275 
Q 222.635887 200.904275 222.635887 199.828086 
L 222.635887 156.780557 
Q 222.635887 155.704369 224.644688 155.704369 
z
" clip-path="url(#p5b808b34d3)" style="fill: #f7fbff; opacity: 0.15"/>
   </g>
   <g id="patch_9">
    <path d="M 325.084687 48.085545 
L 415.480688 48.085545 
Q 417.489487 48.085545 417.489487 49.161733 
L 417.489487 92.209263 
Q 417.489487 93.285451 415.480688 93.285451 
L 325.084687 93.285451 
Q 323.075888 93.285451 323.075888 92.209263 
L 323.075888 49.161733 
Q 323.075888 48.085545 325.084687 48.085545 
z
" clip-path="url(#p5b808b34d3)" style="fill: #08306b; opacity: 0.5"/>
   </g>
   <g id="patch_10">
    <path d="M 325.084687 101.894957 
L 415.480688 101.894957 
Q 417.489487 101.894957 417.489487 102.971145 
L 417.489487 146.018675 
Q 417.489487 147.094863 415.480688 147.094863 
L 325.084687 147.094863 
Q 323.075888 147.094863 323.075888 146.018675 
L 323.075888 102.971145 
Q 323.075888 101.894957 325.084687 101.894957 
z
" clip-path="url(#p5b808b34d3)" style="fill: #083776; opacity: 0.4891"/>
   </g>
   <g id="patch_11">
    <path d="M 325.084687 155.704369 
L 415.480688 155.704369 
Q 417.489487 155.704369 417.489487 156.780557 
L 417.489487 199.828086 
Q 417.489487 200.904275 415.480688 200.904275 
L 325.084687 200.904275 
Q 323.075888 200.904275 323.075888 199.828086 
L 323.075888 156.780557 
Q 323.075888 155.704369 325.084687 155.704369 
z
" clip-path="url(#p5b808b34d3)" style="fill: #f7fbff; opacity: 0.15"/>
   </g>
   <g id="patch_12">
    <path d="M 425.524688 48.085545 
L 515.920687 48.085545 
Q 517.929488 48.085545 517.929488 49.161733 
L 517.929488 92.209263 
Q 517.929488 93.285451 515.920687 93.285451 
L 425.524688 93.285451 
Q 423.515887 93.285451 423.515887 92.209263 
L 423.515887 49.161733 
Q 423.515887 48.085545 425.524688 48.085545 
z
" clip-path="url(#p5b808b34d3)" style="fill: #4f46e5; opacity: 0.5"/>
   </g>
   <g id="patch_13">
    <path d="M 425.524688 101.894957 
L 515.920687 101.894957 
Q 517.929488 101.894957 517.929488 102.971145 
L 517.929488 146.018675 
Q 517.929488 147.094863 515.920687 147.094863 
L 425.524688 147.094863 
Q 423.515887 147.094863 423.515887 146.018675 
L 423.515887 102.971145 
Q 423.515887 101.894957 425.524688 101.894957 
z
" clip-path="url(#p5b808b34d3)" style="fill: #4f46e5; opacity: 0.496919"/>
   </g>
   <g id="patch_14">
    <path d="M 425.524688 155.704369 
L 515.920687 155.704369 
Q 517.929488 155.704369 517.929488 156.780557 
L 517.929488 199.828086 
Q 517.929488 200.904275 515.920687 200.904275 
L 425.524688 200.904275 
Q 423.515887 200.904275 423.515887 199.828086 
L 423.515887 156.780557 
Q 423.515887 155.704369 425.524688 155.704369 
z
" clip-path="url(#p5b808b34d3)" style="fill: #4f46e5; opacity: 0.15"/>
   </g>
   <g id="matplotlib.axis_1">
    <g id="xtick_1">
     <g id="line2d_1"/>
     <g id="text_1">
      <!-- BTCV -->
      <g style="fill: #94a3b8" transform="translate(154.64175 20.397344) scale(0.1 -0.1)">
       <defs>
        <path id="DejaVuSans-Bold-42" d="M 2456 2859 
Q 2741 2859 2887 2984 
Q 3034 3109 3034 3353 
Q 3034 3594 2887 3720 
Q 2741 3847 2456 3847 
L 1791 3847 
L 1791 2859 
L 2456 2859 
z
M 2497 819 
Q 2859 819 3042 972 
Q 3225 1125 3225 1434 
Q 3225 1738 3044 1889 
Q 2863 2041 2497 2041 
L 1791 2041 
L 1791 819 
L 2497 819 
z
M 3616 2497 
Q 4003 2384 4215 2081 
Q 4428 1778 4428 1338 
Q 4428 663 3972 331 
Q 3516 0 2584 0 
L 588 0 
L 588 4666 
L 2394 4666 
Q 3366 4666 3802 4372 
Q 4238 4078 4238 3431 
Q 4238 3091 4078 2852 
Q 3919 2613 3616 2497 
z
" transform="scale(0.015625)"/>
        <path id="DejaVuSans-Bold-54" d="M 31 4666 
L 4331 4666 
L 4331 3756 
L 2784 3756 
L 2784 0 
L 1581 0 
L 1581 3756 
L 31 3756 
L 31 4666 
z
" transform="scale(0.015625)"/>
        <path id="DejaVuSans-Bold-43" d="M 4288 256 
Q 3956 84 3597 -3 
Q 3238 -91 2847 -91 
Q 1681 -91 1000 561 
Q 319 1213 319 2328 
Q 319 3447 1000 4098 
Q 1681 4750 2847 4750 
Q 3238 4750 3597 4662 
Q 3956 4575 4288 4403 
L 4288 3438 
Q 3953 3666 3628 3772 
Q 3303 3878 2944 3878 
Q 2300 3878 1931 3465 
Q 1563 3053 1563 2328 
Q 1563 1606 1931 1193 
Q 2300 781 2944 781 
Q 3303 781 3628 887 
Q 3953 994 4288 1222 
L 4288 256 
z
" transform="scale(0.015625)"/>
        <path id="DejaVuSans-Bold-56" d="M 31 4666 
L 1241 4666 
L 2478 1222 
L 3713 4666 
L 4922 4666 
L 3194 0 
L 1759 0 
L 31 4666 
z
" transform="scale(0.015625)"/>
       </defs>
       <use xlink:href="#DejaVuSans-Bold-42"/>
       <use xlink:href="#DejaVuSans-Bold-54" x="76.220703"/>
       <use xlink:href="#DejaVuSans-Bold-43" x="144.433594"/>
       <use xlink:href="#DejaVuSans-Bold-56" x="217.822266"/>
      </g>
     </g>
    </g>
    <g id="xtick_2">
     <g id="line2d_2"/>
     <g id="text_2">
      <!-- LiTS17 -->
      <g style="fill: #94a3b8" transform="translate(250.973156 20.397344) scale(0.1 -0.1)">
       <defs>
        <path id="DejaVuSans-Bold-4c" d="M 588 4666 
L 1791 4666 
L 1791 909 
L 3903 909 
L 3903 0 
L 588 0 
L 588 4666 
z
" transform="scale(0.015625)"/>
        <path id="DejaVuSans-Bold-69" d="M 538 3500 
L 1656 3500 
L 1656 0 
L 538 0 
L 538 3500 
z
M 538 4863 
L 1656 4863 
L 1656 3950 
L 538 3950 
L 538 4863 
z
" transform="scale(0.015625)"/>
        <path id="DejaVuSans-Bold-53" d="M 3834 4519 
L 3834 3531 
Q 3450 3703 3084 3790 
Q 2719 3878 2394 3878 
Q 1963 3878 1756 3759 
Q 1550 3641 1550 3391 
Q 1550 3203 1689 3098 
Q 1828 2994 2194 2919 
L 2706 2816 
Q 3484 2659 3812 2340 
Q 4141 2022 4141 1434 
Q 4141 663 3683 286 
Q 3225 -91 2284 -91 
Q 1841 -91 1394 -6 
Q 947 78 500 244 
L 500 1259 
Q 947 1022 1364 901 
Q 1781 781 2169 781 
Q 2563 781 2772 912 
Q 2981 1044 2981 1288 
Q 2981 1506 2839 1625 
Q 2697 1744 2272 1838 
L 1806 1941 
Q 1106 2091 782 2419 
Q 459 2747 459 3303 
Q 459 4000 909 4375 
Q 1359 4750 2203 4750 
Q 2588 4750 2994 4692 
Q 3400 4634 3834 4519 
z
" transform="scale(0.015625)"/>
        <path id="DejaVuSans-Bold-31" d="M 750 831 
L 1813 831 
L 1813 3847 
L 722 3622 
L 722 4441 
L 1806 4666 
L 2950 4666 
L 2950 831 
L 4013 831 
L 4013 0 
L 750 0 
L 750 831 
z
" transform="scale(0.015625)"/>
        <path id="DejaVuSans-Bold-37" d="M 428 4666 
L 3944 4666 
L 3944 3988 
L 2125 0 
L 953 0 
L 2675 3781 
L 428 3781 
L 428 4666 
z
" transform="scale(0.015625)"/>
       </defs>
       <use xlink:href="#DejaVuSans-Bold-4c"/>
       <use xlink:href="#DejaVuSans-Bold-69" x="63.720703"/>
       <use xlink:href="#DejaVuSans-Bold-54" x="97.998047"/>
       <use xlink:href="#DejaVuSans-Bold-53" x="166.210938"/>
       <use xlink:href="#DejaVuSans-Bold-31" x="238.232422"/>
       <use xlink:href="#DejaVuSans-Bold-37" x="307.8125"/>
      </g>
     </g>
    </g>
    <g id="xtick_3">
     <g id="line2d_3"/>
     <g id="text_3">
      <!-- MSD Task 7 -->
      <g style="fill: #94a3b8" transform="translate(338.153 14.798438) scale(0.1 -0.1)">
       <defs>
        <path id="DejaVuSans-Bold-4d" d="M 588 4666 
L 2119 4666 
L 3181 2169 
L 4250 4666 
L 5778 4666 
L 5778 0 
L 4641 0 
L 4641 3413 
L 3566 897 
L 2803 897 
L 1728 3413 
L 1728 0 
L 588 0 
L 588 4666 
z
" transform="scale(0.015625)"/>
        <path id="DejaVuSans-Bold-44" d="M 1791 3756 
L 1791 909 
L 2222 909 
Q 2959 909 3348 1275 
Q 3738 1641 3738 2338 
Q 3738 3031 3350 3393 
Q 2963 3756 2222 3756 
L 1791 3756 
z
M 588 4666 
L 1856 4666 
Q 2919 4666 3439 4514 
Q 3959 4363 4331 4000 
Q 4659 3684 4818 3271 
Q 4978 2859 4978 2338 
Q 4978 1809 4818 1395 
Q 4659 981 4331 666 
Q 3956 303 3431 151 
Q 2906 0 1856 0 
L 588 0 
L 588 4666 
z
" transform="scale(0.015625)"/>
        <path id="DejaVuSans-Bold-20" transform="scale(0.015625)"/>
        <path id="DejaVuSans-Bold-61" d="M 2106 1575 
Q 1756 1575 1579 1456 
Q 1403 1338 1403 1106 
Q 1403 894 1545 773 
Q 1688 653 1941 653 
Q 2256 653 2472 879 
Q 2688 1106 2688 1447 
L 2688 1575 
L 2106 1575 
z
M 3816 1997 
L 3816 0 
L 2688 0 
L 2688 519 
Q 2463 200 2181 54 
Q 1900 -91 1497 -91 
Q 953 -91 614 226 
Q 275 544 275 1050 
Q 275 1666 698 1953 
Q 1122 2241 2028 2241 
L 2688 2241 
L 2688 2328 
Q 2688 2594 2478 2717 
Q 2269 2841 1825 2841 
Q 1466 2841 1156 2769 
Q 847 2697 581 2553 
L 581 3406 
Q 941 3494 1303 3539 
Q 1666 3584 2028 3584 
Q 2975 3584 3395 3211 
Q 3816 2838 3816 1997 
z
" transform="scale(0.015625)"/>
        <path id="DejaVuSans-Bold-73" d="M 3272 3391 
L 3272 2541 
Q 2913 2691 2578 2766 
Q 2244 2841 1947 2841 
Q 1628 2841 1473 2761 
Q 1319 2681 1319 2516 
Q 1319 2381 1436 2309 
Q 1553 2238 1856 2203 
L 2053 2175 
Q 2913 2066 3209 1816 
Q 3506 1566 3506 1031 
Q 3506 472 3093 190 
Q 2681 -91 1863 -91 
Q 1516 -91 1145 -36 
Q 775 19 384 128 
L 384 978 
Q 719 816 1070 734 
Q 1422 653 1784 653 
Q 2113 653 2278 743 
Q 2444 834 2444 1013 
Q 2444 1163 2330 1236 
Q 2216 1309 1875 1350 
L 1678 1375 
Q 931 1469 631 1722 
Q 331 1975 331 2491 
Q 331 3047 712 3315 
Q 1094 3584 1881 3584 
Q 2191 3584 2531 3537 
Q 2872 3491 3272 3391 
z
" transform="scale(0.015625)"/>
        <path id="DejaVuSans-Bold-6b" d="M 538 4863 
L 1656 4863 
L 1656 2216 
L 2944 3500 
L 4244 3500 
L 2534 1894 
L 4378 0 
L 3022 0 
L 1656 1459 
L 1656 0 
L 538 0 
L 538 4863 
z
" transform="scale(0.015625)"/>
       </defs>
       <use xlink:href="#DejaVuSans-Bold-4d"/>
       <use xlink:href="#DejaVuSans-Bold-53" x="99.511719"/>
       <use xlink:href="#DejaVuSans-Bold-44" x="171.533203"/>
       <use xlink:href="#DejaVuSans-Bold-20" x="254.541016"/>
       <use xlink:href="#DejaVuSans-Bold-54" x="289.355469"/>
       <use xlink:href="#DejaVuSans-Bold-61" x="344.693359"/>
       <use xlink:href="#DejaVuSans-Bold-73" x="412.173828"/>
       <use xlink:href="#DejaVuSans-Bold-6b" x="471.695312"/>
       <use xlink:href="#DejaVuSans-Bold-20" x="538.199219"/>
       <use xlink:href="#DejaVuSans-Bold-37" x="573.013672"/>
      </g>
      <!-- Pancreas -->
      <g style="fill: #94a3b8" transform="translate(344.644406 25.99625) scale(0.1 -0.1)">
       <defs>
        <path id="DejaVuSans-Bold-50" d="M 588 4666 
L 2584 4666 
Q 3475 4666 3951 4270 
Q 4428 3875 4428 3144 
Q 4428 2409 3951 2014 
Q 3475 1619 2584 1619 
L 1791 1619 
L 1791 0 
L 588 0 
L 588 4666 
z
M 1791 3794 
L 1791 2491 
L 2456 2491 
Q 2806 2491 2997 2661 
Q 3188 2831 3188 3144 
Q 3188 3456 2997 3625 
Q 2806 3794 2456 3794 
L 1791 3794 
z
" transform="scale(0.015625)"/>
        <path id="DejaVuSans-Bold-6e" d="M 4056 2131 
L 4056 0 
L 2931 0 
L 2931 347 
L 2931 1631 
Q 2931 2084 2911 2256 
Q 2891 2428 2841 2509 
Q 2775 2619 2662 2680 
Q 2550 2741 2406 2741 
Q 2056 2741 1856 2470 
Q 1656 2200 1656 1722 
L 1656 0 
L 538 0 
L 538 3500 
L 1656 3500 
L 1656 2988 
Q 1909 3294 2193 3439 
Q 2478 3584 2822 3584 
Q 3428 3584 3742 3212 
Q 4056 2841 4056 2131 
z
" transform="scale(0.015625)"/>
        <path id="DejaVuSans-Bold-63" d="M 3366 3391 
L 3366 2478 
Q 3138 2634 2908 2709 
Q 2678 2784 2431 2784 
Q 1963 2784 1702 2511 
Q 1441 2238 1441 1747 
Q 1441 1256 1702 982 
Q 1963 709 2431 709 
Q 2694 709 2930 787 
Q 3166 866 3366 1019 
L 3366 103 
Q 3103 6 2833 -42 
Q 2563 -91 2291 -91 
Q 1344 -91 809 395 
Q 275 881 275 1747 
Q 275 2613 809 3098 
Q 1344 3584 2291 3584 
Q 2566 3584 2833 3536 
Q 3100 3488 3366 3391 
z
" transform="scale(0.015625)"/>
        <path id="DejaVuSans-Bold-72" d="M 3138 2547 
Q 2991 2616 2845 2648 
Q 2700 2681 2553 2681 
Q 2122 2681 1889 2404 
Q 1656 2128 1656 1613 
L 1656 0 
L 538 0 
L 538 3500 
L 1656 3500 
L 1656 2925 
Q 1872 3269 2151 3426 
Q 2431 3584 2822 3584 
Q 2878 3584 2943 3579 
Q 3009 3575 3134 3559 
L 3138 2547 
z
" transform="scale(0.015625)"/>
        <path id="DejaVuSans-Bold-65" d="M 4031 1759 
L 4031 1441 
L 1416 1441 
Q 1456 1047 1700 850 
Q 1944 653 2381 653 
Q 2734 653 3104 758 
Q 3475 863 3866 1075 
L 3866 213 
Q 3469 63 3072 -14 
Q 2675 -91 2278 -91 
Q 1328 -91 801 392 
Q 275 875 275 1747 
Q 275 2603 792 3093 
Q 1309 3584 2216 3584 
Q 3041 3584 3536 3087 
Q 4031 2591 4031 1759 
z
M 2881 2131 
Q 2881 2450 2695 2645 
Q 2509 2841 2209 2841 
Q 1884 2841 1681 2658 
Q 1478 2475 1428 2131 
L 2881 2131 
z
" transform="scale(0.015625)"/>
       </defs>
       <use xlink:href="#DejaVuSans-Bold-50"/>
       <use xlink:href="#DejaVuSans-Bold-61" x="70.666016"/>
       <use xlink:href="#DejaVuSans-Bold-6e" x="138.146484"/>
       <use xlink:href="#DejaVuSans-Bold-63" x="209.337891"/>
       <use xlink:href="#DejaVuSans-Bold-72" x="268.615234"/>
       <use xlink:href="#DejaVuSans-Bold-65" x="317.931641"/>
       <use xlink:href="#DejaVuSans-Bold-61" x="385.753906"/>
       <use xlink:href="#DejaVuSans-Bold-73" x="453.234375"/>
      </g>
     </g>
    </g>
    <g id="xtick_4">
     <g id="line2d_4"/>
     <g id="text_4">
      <!-- Average -->
      <g style="fill: #94a3b8" transform="translate(447.573469 20.319219) scale(0.1 -0.1)">
       <defs>
        <path id="DejaVuSans-Bold-41" d="M 3419 850 
L 1538 850 
L 1241 0 
L 31 0 
L 1759 4666 
L 3194 4666 
L 4922 0 
L 3713 0 
L 3419 850 
z
M 1838 1716 
L 3116 1716 
L 2478 3572 
L 1838 1716 
z
" transform="scale(0.015625)"/>
        <path id="DejaVuSans-Bold-76" d="M 97 3500 
L 1216 3500 
L 2088 1081 
L 2956 3500 
L 4078 3500 
L 2700 0 
L 1472 0 
L 97 3500 
z
" transform="scale(0.015625)"/>
        <path id="DejaVuSans-Bold-67" d="M 2919 594 
Q 2688 288 2409 144 
Q 2131 0 1766 0 
Q 1125 0 706 504 
Q 288 1009 288 1791 
Q 288 2575 706 3076 
Q 1125 3578 1766 3578 
Q 2131 3578 2409 3434 
Q 2688 3291 2919 2981 
L 2919 3500 
L 4044 3500 
L 4044 353 
Q 4044 -491 3511 -936 
Q 2978 -1381 1966 -1381 
Q 1638 -1381 1331 -1331 
Q 1025 -1281 716 -1178 
L 716 -306 
Q 1009 -475 1290 -558 
Q 1572 -641 1856 -641 
Q 2406 -641 2662 -400 
Q 2919 -159 2919 353 
L 2919 594 
z
M 2181 2772 
Q 1834 2772 1640 2515 
Q 1447 2259 1447 1791 
Q 1447 1309 1634 1061 
Q 1822 813 2181 813 
Q 2531 813 2725 1069 
Q 2919 1325 2919 1791 
Q 2919 2259 2725 2515 
Q 2531 2772 2181 2772 
z
" transform="scale(0.015625)"/>
       </defs>
       <use xlink:href="#DejaVuSans-Bold-41"/>
       <use xlink:href="#DejaVuSans-Bold-76" x="73.767578"/>
       <use xlink:href="#DejaVuSans-Bold-65" x="138.953125"/>
       <use xlink:href="#DejaVuSans-Bold-72" x="206.775391"/>
       <use xlink:href="#DejaVuSans-Bold-61" x="256.091797"/>
       <use xlink:href="#DejaVuSans-Bold-67" x="323.572266"/>
       <use xlink:href="#DejaVuSans-Bold-65" x="395.154297"/>
      </g>
     </g>
    </g>
   </g>
   <g id="text_5">
    <!-- 0.83 -->
    <g style="fill: #2e2e2e" transform="translate(157.713234 73.582842) scale(0.105 -0.105)">
     <defs>
      <path id="DejaVuSans-30" d="M 2034 4250 
Q 1547 4250 1301 3770 
Q 1056 3291 1056 2328 
Q 1056 1369 1301 889 
Q 1547 409 2034 409 
Q 2525 409 2770 889 
Q 3016 1369 3016 2328 
Q 3016 3291 2770 3770 
Q 2525 4250 2034 4250 
z
M 2034 4750 
Q 2819 4750 3233 4129 
Q 3647 3509 3647 2328 
Q 3647 1150 3233 529 
Q 2819 -91 2034 -91 
Q 1250 -91 836 529 
Q 422 1150 422 2328 
Q 422 3509 836 4129 
Q 1250 4750 2034 4750 
z
" transform="scale(0.015625)"/>
      <path id="DejaVuSans-2e" d="M 684 794 
L 1344 794 
L 1344 0 
L 684 0 
L 684 794 
z
" transform="scale(0.015625)"/>
      <path id="DejaVuSans-38" d="M 2034 2216 
Q 1584 2216 1326 1975 
Q 1069 1734 1069 1313 
Q 1069 891 1326 650 
Q 1584 409 2034 409 
Q 2484 409 2743 651 
Q 3003 894 3003 1313 
Q 3003 1734 2745 1975 
Q 2488 2216 2034 2216 
z
M 1403 2484 
Q 997 2584 770 2862 
Q 544 3141 544 3541 
Q 544 4100 942 4425 
Q 1341 4750 2034 4750 
Q 2731 4750 3128 4425 
Q 3525 4100 3525 3541 
Q 3525 3141 3298 2862 
Q 3072 2584 2669 2484 
Q 3125 2378 3379 2068 
Q 3634 1759 3634 1313 
Q 3634 634 3220 271 
Q 2806 -91 2034 -91 
Q 1263 -91 848 271 
Q 434 634 434 1313 
Q 434 1759 690 2068 
Q 947 2378 1403 2484 
z
M 1172 3481 
Q 1172 3119 1398 2916 
Q 1625 2713 2034 2713 
Q 2441 2713 2670 2916 
Q 2900 3119 2900 3481 
Q 2900 3844 2670 4047 
Q 2441 4250 2034 4250 
Q 1625 4250 1398 4047 
Q 1172 3844 1172 3481 
z
" transform="scale(0.015625)"/>
      <path id="DejaVuSans-33" d="M 2597 2516 
Q 3050 2419 3304 2112 
Q 3559 1806 3559 1356 
Q 3559 666 3084 287 
Q 2609 -91 1734 -91 
Q 1441 -91 1130 -33 
Q 819 25 488 141 
L 488 750 
Q 750 597 1062 519 
Q 1375 441 1716 441 
Q 2309 441 2620 675 
Q 2931 909 2931 1356 
Q 2931 1769 2642 2001 
Q 2353 2234 1838 2234 
L 1294 2234 
L 1294 2753 
L 1863 2753 
Q 2328 2753 2575 2939 
Q 2822 3125 2822 3475 
Q 2822 3834 2567 4026 
Q 2313 4219 1838 4219 
Q 1578 4219 1281 4162 
Q 984 4106 628 3988 
L 628 4550 
Q 988 4650 1302 4700 
Q 1616 4750 1894 4750 
Q 2613 4750 3031 4423 
Q 3450 4097 3450 3541 
Q 3450 3153 3228 2886 
Q 3006 2619 2597 2516 
z
" transform="scale(0.015625)"/>
     </defs>
     <use xlink:href="#DejaVuSans-30"/>
     <use xlink:href="#DejaVuSans-2e" x="63.623047"/>
     <use xlink:href="#DejaVuSans-38" x="95.410156"/>
     <use xlink:href="#DejaVuSans-33" x="159.033203"/>
    </g>
   </g>
   <g id="text_6">
    <!-- 0.832 -->
    <g style="fill: #2e2e2e" transform="translate(154.372922 127.392254) scale(0.105 -0.105)">
     <defs>
      <path id="DejaVuSans-32" d="M 1228 531 
L 3431 531 
L 3431 0 
L 469 0 
L 469 531 
Q 828 903 1448 1529 
Q 2069 2156 2228 2338 
Q 2531 2678 2651 2914 
Q 2772 3150 2772 3378 
Q 2772 3750 2511 3984 
Q 2250 4219 1831 4219 
Q 1534 4219 1204 4116 
Q 875 4013 500 3803 
L 500 4441 
Q 881 4594 1212 4672 
Q 1544 4750 1819 4750 
Q 2544 4750 2975 4387 
Q 3406 4025 3406 3419 
Q 3406 3131 3298 2873 
Q 3191 2616 2906 2266 
Q 2828 2175 2409 1742 
Q 1991 1309 1228 531 
z
" transform="scale(0.015625)"/>
     </defs>
     <use xlink:href="#DejaVuSans-30"/>
     <use xlink:href="#DejaVuSans-2e" x="63.623047"/>
     <use xlink:href="#DejaVuSans-38" x="95.410156"/>
     <use xlink:href="#DejaVuSans-33" x="159.033203"/>
     <use xlink:href="#DejaVuSans-32" x="222.65625"/>
    </g>
   </g>
   <g id="text_7">
    <!-- 0.69 -->
    <g style="fill: #2e2e2e" transform="translate(157.713234 181.201665) scale(0.105 -0.105)">
     <defs>
      <path id="DejaVuSans-36" d="M 2113 2584 
Q 1688 2584 1439 2293 
Q 1191 2003 1191 1497 
Q 1191 994 1439 701 
Q 1688 409 2113 409 
Q 2538 409 2786 701 
Q 3034 994 3034 1497 
Q 3034 2003 2786 2293 
Q 2538 2584 2113 2584 
z
M 3366 4563 
L 3366 3988 
Q 3128 4100 2886 4159 
Q 2644 4219 2406 4219 
Q 1781 4219 1451 3797 
Q 1122 3375 1075 2522 
Q 1259 2794 1537 2939 
Q 1816 3084 2150 3084 
Q 2853 3084 3261 2657 
Q 3669 2231 3669 1497 
Q 3669 778 3244 343 
Q 2819 -91 2113 -91 
Q 1303 -91 875 529 
Q 447 1150 447 2328 
Q 447 3434 972 4092 
Q 1497 4750 2381 4750 
Q 2619 4750 2861 4703 
Q 3103 4656 3366 4563 
z
" transform="scale(0.015625)"/>
      <path id="DejaVuSans-39" d="M 703 97 
L 703 672 
Q 941 559 1184 500 
Q 1428 441 1663 441 
Q 2288 441 2617 861 
Q 2947 1281 2994 2138 
Q 2813 1869 2534 1725 
Q 2256 1581 1919 1581 
Q 1219 1581 811 2004 
Q 403 2428 403 3163 
Q 403 3881 828 4315 
Q 1253 4750 1959 4750 
Q 2769 4750 3195 4129 
Q 3622 3509 3622 2328 
Q 3622 1225 3098 567 
Q 2575 -91 1691 -91 
Q 1453 -91 1209 -44 
Q 966 3 703 97 
z
M 1959 2075 
Q 2384 2075 2632 2365 
Q 2881 2656 2881 3163 
Q 2881 3666 2632 3958 
Q 2384 4250 1959 4250 
Q 1534 4250 1286 3958 
Q 1038 3666 1038 3163 
Q 1038 2656 1286 2365 
Q 1534 2075 1959 2075 
z
" transform="scale(0.015625)"/>
     </defs>
     <use xlink:href="#DejaVuSans-30"/>
     <use xlink:href="#DejaVuSans-2e" x="63.623047"/>
     <use xlink:href="#DejaVuSans-36" x="95.410156"/>
     <use xlink:href="#DejaVuSans-39" x="159.033203"/>
    </g>
   </g>
   <g id="text_8">
    <!-- 0.816 -->
    <g style="fill: #2e2e2e" transform="translate(254.812922 73.582842) scale(0.105 -0.105)">
     <defs>
      <path id="DejaVuSans-31" d="M 794 531 
L 1825 531 
L 1825 4091 
L 703 3866 
L 703 4441 
L 1819 4666 
L 2450 4666 
L 2450 531 
L 3481 531 
L 3481 0 
L 794 0 
L 794 531 
z
" transform="scale(0.015625)"/>
     </defs>
     <use xlink:href="#DejaVuSans-30"/>
     <use xlink:href="#DejaVuSans-2e" x="63.623047"/>
     <use xlink:href="#DejaVuSans-38" x="95.410156"/>
     <use xlink:href="#DejaVuSans-31" x="159.033203"/>
     <use xlink:href="#DejaVuSans-36" x="222.65625"/>
    </g>
   </g>
   <g id="text_9">
    <!-- 0.818 -->
    <g style="fill: #2e2e2e" transform="translate(254.812922 127.392254) scale(0.105 -0.105)">
     <use xlink:href="#DejaVuSans-30"/>
     <use xlink:href="#DejaVuSans-2e" x="63.623047"/>
     <use xlink:href="#DejaVuSans-38" x="95.410156"/>
     <use xlink:href="#DejaVuSans-31" x="159.033203"/>
     <use xlink:href="#DejaVuSans-38" x="222.65625"/>
    </g>
   </g>
   <g id="text_10">
    <!-- 0.677 -->
    <g style="fill: #2e2e2e" transform="translate(254.812922 181.201665) scale(0.105 -0.105)">
     <defs>
      <path id="DejaVuSans-37" d="M 525 4666 
L 3525 4666 
L 3525 4397 
L 1831 0 
L 1172 0 
L 2766 4134 
L 525 4134 
L 525 4666 
z
" transform="scale(0.015625)"/>
     </defs>
     <use xlink:href="#DejaVuSans-30"/>
     <use xlink:href="#DejaVuSans-2e" x="63.623047"/>
     <use xlink:href="#DejaVuSans-36" x="95.410156"/>
     <use xlink:href="#DejaVuSans-37" x="159.033203"/>
     <use xlink:href="#DejaVuSans-37" x="222.65625"/>
    </g>
   </g>
   <g id="text_11">
    <!-- 0.734 -->
    <g style="fill: #2e2e2e" transform="translate(355.252922 73.582842) scale(0.105 -0.105)">
     <defs>
      <path id="DejaVuSans-34" d="M 2419 4116 
L 825 1625 
L 2419 1625 
L 2419 4116 
z
M 2253 4666 
L 3047 4666 
L 3047 1625 
L 3713 1625 
L 3713 1100 
L 3047 1100 
L 3047 0 
L 2419 0 
L 2419 1100 
L 313 1100 
L 313 1709 
L 2253 4666 
z
" transform="scale(0.015625)"/>
     </defs>
     <use xlink:href="#DejaVuSans-30"/>
     <use xlink:href="#DejaVuSans-2e" x="63.623047"/>
     <use xlink:href="#DejaVuSans-37" x="95.410156"/>
     <use xlink:href="#DejaVuSans-33" x="159.033203"/>
     <use xlink:href="#DejaVuSans-34" x="222.65625"/>
    </g>
   </g>
   <g id="text_12">
    <!-- 0.725 -->
    <g style="fill: #2e2e2e" transform="translate(355.252922 127.392254) scale(0.105 -0.105)">
     <defs>
      <path id="DejaVuSans-35" d="M 691 4666 
L 3169 4666 
L 3169 4134 
L 1269 4134 
L 1269 2991 
Q 1406 3038 1543 3061 
Q 1681 3084 1819 3084 
Q 2600 3084 3056 2656 
Q 3513 2228 3513 1497 
Q 3513 744 3044 326 
Q 2575 -91 1722 -91 
Q 1428 -91 1123 -41 
Q 819 9 494 109 
L 494 744 
Q 775 591 1075 516 
Q 1375 441 1709 441 
Q 2250 441 2565 725 
Q 2881 1009 2881 1497 
Q 2881 1984 2565 2268 
Q 2250 2553 1709 2553 
Q 1456 2553 1204 2497 
Q 953 2441 691 2322 
L 691 4666 
z
" transform="scale(0.015625)"/>
     </defs>
     <use xlink:href="#DejaVuSans-30"/>
     <use xlink:href="#DejaVuSans-2e" x="63.623047"/>
     <use xlink:href="#DejaVuSans-37" x="95.410156"/>
     <use xlink:href="#DejaVuSans-32" x="159.033203"/>
     <use xlink:href="#DejaVuSans-35" x="222.65625"/>
    </g>
   </g>
   <g id="text_13">
    <!-- 0.445 -->
    <g style="fill: #2e2e2e" transform="translate(355.252922 181.201665) scale(0.105 -0.105)">
     <use xlink:href="#DejaVuSans-30"/>
     <use xlink:href="#DejaVuSans-2e" x="63.623047"/>
     <use xlink:href="#DejaVuSans-34" x="95.410156"/>
     <use xlink:href="#DejaVuSans-34" x="159.033203"/>
     <use xlink:href="#DejaVuSans-35" x="222.65625"/>
    </g>
   </g>
   <g id="text_14">
    <!-- 0.793 -->
    <g style="fill: #4f46e5" transform="translate(454.117102 73.582842) scale(0.105 -0.105)">
     <defs>
      <path id="DejaVuSans-Bold-30" d="M 2944 2338 
Q 2944 3213 2780 3570 
Q 2616 3928 2228 3928 
Q 1841 3928 1675 3570 
Q 1509 3213 1509 2338 
Q 1509 1453 1675 1090 
Q 1841 728 2228 728 
Q 2613 728 2778 1090 
Q 2944 1453 2944 2338 
z
M 4147 2328 
Q 4147 1169 3647 539 
Q 3147 -91 2228 -91 
Q 1306 -91 806 539 
Q 306 1169 306 2328 
Q 306 3491 806 4120 
Q 1306 4750 2228 4750 
Q 3147 4750 3647 4120 
Q 4147 3491 4147 2328 
z
" transform="scale(0.015625)"/>
      <path id="DejaVuSans-Bold-2e" d="M 653 1209 
L 1778 1209 
L 1778 0 
L 653 0 
L 653 1209 
z
" transform="scale(0.015625)"/>
      <path id="DejaVuSans-Bold-39" d="M 641 103 
L 641 966 
Q 928 831 1190 764 
Q 1453 697 1709 697 
Q 2247 697 2547 995 
Q 2847 1294 2900 1881 
Q 2688 1725 2447 1647 
Q 2206 1569 1925 1569 
Q 1209 1569 770 1986 
Q 331 2403 331 3084 
Q 331 3838 820 4291 
Q 1309 4744 2131 4744 
Q 3044 4744 3544 4128 
Q 4044 3513 4044 2388 
Q 4044 1231 3459 570 
Q 2875 -91 1856 -91 
Q 1528 -91 1228 -42 
Q 928 6 641 103 
z
M 2125 2350 
Q 2441 2350 2600 2554 
Q 2759 2759 2759 3169 
Q 2759 3575 2600 3781 
Q 2441 3988 2125 3988 
Q 1809 3988 1650 3781 
Q 1491 3575 1491 3169 
Q 1491 2759 1650 2554 
Q 1809 2350 2125 2350 
z
" transform="scale(0.015625)"/>
      <path id="DejaVuSans-Bold-33" d="M 2981 2516 
Q 3453 2394 3698 2092 
Q 3944 1791 3944 1325 
Q 3944 631 3412 270 
Q 2881 -91 1863 -91 
Q 1503 -91 1142 -33 
Q 781 25 428 141 
L 428 1069 
Q 766 900 1098 814 
Q 1431 728 1753 728 
Q 2231 728 2486 893 
Q 2741 1059 2741 1369 
Q 2741 1688 2480 1852 
Q 2219 2016 1709 2016 
L 1228 2016 
L 1228 2791 
L 1734 2791 
Q 2188 2791 2409 2933 
Q 2631 3075 2631 3366 
Q 2631 3634 2415 3781 
Q 2200 3928 1806 3928 
Q 1516 3928 1219 3862 
Q 922 3797 628 3669 
L 628 4550 
Q 984 4650 1334 4700 
Q 1684 4750 2022 4750 
Q 2931 4750 3382 4451 
Q 3834 4153 3834 3553 
Q 3834 3144 3618 2883 
Q 3403 2622 2981 2516 
z
" transform="scale(0.015625)"/>
     </defs>
     <use xlink:href="#DejaVuSans-Bold-30"/>
     <use xlink:href="#DejaVuSans-Bold-2e" x="69.580078"/>
     <use xlink:href="#DejaVuSans-Bold-37" x="107.568359"/>
     <use xlink:href="#DejaVuSans-Bold-39" x="177.148438"/>
     <use xlink:href="#DejaVuSans-Bold-33" x="246.728516"/>
    </g>
   </g>
   <g id="text_15">
    <!-- 0.792 -->
    <g style="fill: #4f46e5" transform="translate(454.117102 127.392254) scale(0.105 -0.105)">
     <defs>
      <path id="DejaVuSans-Bold-32" d="M 1844 884 
L 3897 884 
L 3897 0 
L 506 0 
L 506 884 
L 2209 2388 
Q 2438 2594 2547 2791 
Q 2656 2988 2656 3200 
Q 2656 3528 2436 3728 
Q 2216 3928 1850 3928 
Q 1569 3928 1234 3808 
Q 900 3688 519 3450 
L 519 4475 
Q 925 4609 1322 4679 
Q 1719 4750 2100 4750 
Q 2938 4750 3402 4381 
Q 3866 4013 3866 3353 
Q 3866 2972 3669 2642 
Q 3472 2313 2841 1759 
L 1844 884 
z
" transform="scale(0.015625)"/>
     </defs>
     <use xlink:href="#DejaVuSans-Bold-30"/>
     <use xlink:href="#DejaVuSans-Bold-2e" x="69.580078"/>
     <use xlink:href="#DejaVuSans-Bold-37" x="107.568359"/>
     <use xlink:href="#DejaVuSans-Bold-39" x="177.148438"/>
     <use xlink:href="#DejaVuSans-Bold-32" x="246.728516"/>
    </g>
   </g>
   <g id="text_16">
    <!-- 0.604 -->
    <g style="fill: #4f46e5" transform="translate(454.117102 181.201665) scale(0.105 -0.105)">
     <defs>
      <path id="DejaVuSans-Bold-36" d="M 2316 2303 
Q 2000 2303 1842 2098 
Q 1684 1894 1684 1484 
Q 1684 1075 1842 870 
Q 2000 666 2316 666 
Q 2634 666 2792 870 
Q 2950 1075 2950 1484 
Q 2950 1894 2792 2098 
Q 2634 2303 2316 2303 
z
M 3803 4544 
L 3803 3681 
Q 3506 3822 3243 3889 
Q 2981 3956 2731 3956 
Q 2194 3956 1894 3657 
Q 1594 3359 1544 2772 
Q 1750 2925 1990 3001 
Q 2231 3078 2516 3078 
Q 3231 3078 3670 2659 
Q 4109 2241 4109 1563 
Q 4109 813 3618 361 
Q 3128 -91 2303 -91 
Q 1394 -91 895 523 
Q 397 1138 397 2266 
Q 397 3422 980 4083 
Q 1563 4744 2578 4744 
Q 2900 4744 3203 4694 
Q 3506 4644 3803 4544 
z
" transform="scale(0.015625)"/>
      <path id="DejaVuSans-Bold-34" d="M 2356 3675 
L 1038 1722 
L 2356 1722 
L 2356 3675 
z
M 2156 4666 
L 3494 4666 
L 3494 1722 
L 4159 1722 
L 4159 850 
L 3494 850 
L 3494 0 
L 2356 0 
L 2356 850 
L 288 850 
L 288 1881 
L 2156 4666 
z
" transform="scale(0.015625)"/>
     </defs>
     <use xlink:href="#DejaVuSans-Bold-30"/>
     <use xlink:href="#DejaVuSans-Bold-2e" x="69.580078"/>
     <use xlink:href="#DejaVuSans-Bold-36" x="107.568359"/>
     <use xlink:href="#DejaVuSans-Bold-30" x="177.148438"/>
     <use xlink:href="#DejaVuSans-Bold-34" x="246.728516"/>
    </g>
   </g>
   <g id="text_17">
    <path d="M 55.103281 65.701123 
L 57.182969 65.701123 
L 59.309062 71.620498 
L 61.431719 65.701123 
L 63.509687 65.701123 
L 60.539687 73.720811 
L 58.073281 73.720811 
L 55.103281 65.701123 
z
M 66.74459 68.935811 
Q 66.105215 68.935811 65.770059 69.394717 
Q 65.434902 69.853623 65.434902 70.718154 
Q 65.434902 71.582686 65.770059 72.043311 
Q 66.105215 72.502217 66.74459 72.502217 
Q 67.373652 72.502217 67.705371 72.043311 
Q 68.038809 71.582686 68.038809 70.718154 
Q 68.038809 69.853623 67.705371 69.394717 
Q 67.373652 68.935811 66.74459 68.935811 
z
M 66.74459 67.560811 
Q 68.296621 67.560811 69.169746 68.399561 
Q 70.042871 69.236592 70.042871 70.718154 
Q 70.042871 72.201436 69.169746 73.040186 
Q 68.296621 73.877217 66.74459 73.877217 
Q 65.187402 73.877217 64.309121 73.040186 
Q 63.43084 72.201436 63.43084 70.718154 
Q 63.43084 69.236592 64.309121 68.399561 
Q 65.187402 67.560811 66.74459 67.560811 
z
M 77.885312 73.280811 
Q 77.314687 73.576436 76.697656 73.725967 
Q 76.080625 73.877217 75.408594 73.877217 
Q 73.404531 73.877217 72.234062 72.756592 
Q 71.063594 71.635967 71.063594 69.719561 
Q 71.063594 67.796279 72.234062 66.677373 
Q 73.404531 65.556748 75.408594 65.556748 
Q 76.080625 65.556748 76.697656 65.707998 
Q 77.314687 65.857529 77.885312 66.153154 
L 77.885312 67.811748 
Q 77.309531 67.419873 76.750937 67.237686 
Q 76.192344 67.055498 75.575312 67.055498 
Q 74.468437 67.055498 73.834219 67.765342 
Q 73.201719 68.473467 73.201719 69.719561 
Q 73.201719 70.960498 73.834219 71.670342 
Q 74.468437 72.378467 75.575312 72.378467 
Q 76.192344 72.378467 76.750937 72.196279 
Q 77.309531 72.012373 77.885312 71.620498 
L 77.885312 73.280811 
z
M 82.374473 68.935811 
Q 81.735098 68.935811 81.399941 69.394717 
Q 81.064785 69.853623 81.064785 70.718154 
Q 81.064785 71.582686 81.399941 72.043311 
Q 81.735098 72.502217 82.374473 72.502217 
Q 83.003535 72.502217 83.335254 72.043311 
Q 83.668691 71.582686 83.668691 70.718154 
Q 83.668691 69.853623 83.335254 69.394717 
Q 83.003535 68.935811 82.374473 68.935811 
z
M 82.374473 67.560811 
Q 83.926504 67.560811 84.799629 68.399561 
Q 85.672754 69.236592 85.672754 70.718154 
Q 85.672754 72.201436 84.799629 73.040186 
Q 83.926504 73.877217 82.374473 73.877217 
Q 80.817285 73.877217 79.939004 73.040186 
Q 79.060723 72.201436 79.060723 70.718154 
Q 79.060723 69.236592 79.939004 68.399561 
Q 80.817285 67.560811 82.374473 67.560811 
z
M 86.741602 69.772842 
L 90.113789 69.772842 
L 90.113789 71.335186 
L 86.741602 71.335186 
L 86.741602 69.772842 
z
M 94.931875 68.806904 
Q 95.421719 68.806904 95.672656 68.592061 
Q 95.925312 68.377217 95.925312 67.957842 
Q 95.925312 67.543623 95.672656 67.327061 
Q 95.421719 67.108779 94.931875 67.108779 
L 93.788906 67.108779 
L 93.788906 68.806904 
L 94.931875 68.806904 
z
M 95.002344 72.313154 
Q 95.624531 72.313154 95.939062 72.050186 
Q 96.253594 71.787217 96.253594 71.256123 
Q 96.253594 70.733623 95.9425 70.474092 
Q 95.631406 70.212842 95.002344 70.212842 
L 93.788906 70.212842 
L 93.788906 72.313154 
L 95.002344 72.313154 
z
M 96.925625 69.429092 
Q 97.590781 69.623311 97.955156 70.144092 
Q 98.32125 70.664873 98.32125 71.421123 
Q 98.32125 72.581279 97.5375 73.151904 
Q 96.75375 73.720811 95.151875 73.720811 
L 91.72125 73.720811 
L 91.72125 65.701123 
L 94.825312 65.701123 
Q 96.495937 65.701123 97.245312 66.206436 
Q 97.994687 66.711748 97.994687 67.823779 
Q 97.994687 68.408154 97.719687 68.818936 
Q 97.446406 69.229717 96.925625 69.429092 
z
" style="fill: #94a3b8; opacity: 0.7; stroke: #ffffff; stroke-width: 0.2"/>
    <path d="M 55.103281 65.701123 
L 57.182969 65.701123 
L 59.309062 71.620498 
L 61.431719 65.701123 
L 63.509687 65.701123 
L 60.539687 73.720811 
L 58.073281 73.720811 
L 55.103281 65.701123 
z
M 66.74459 68.935811 
Q 66.105215 68.935811 65.770059 69.394717 
Q 65.434902 69.853623 65.434902 70.718154 
Q 65.434902 71.582686 65.770059 72.043311 
Q 66.105215 72.502217 66.74459 72.502217 
Q 67.373652 72.502217 67.705371 72.043311 
Q 68.038809 71.582686 68.038809 70.718154 
Q 68.038809 69.853623 67.705371 69.394717 
Q 67.373652 68.935811 66.74459 68.935811 
z
M 66.74459 67.560811 
Q 68.296621 67.560811 69.169746 68.399561 
Q 70.042871 69.236592 70.042871 70.718154 
Q 70.042871 72.201436 69.169746 73.040186 
Q 68.296621 73.877217 66.74459 73.877217 
Q 65.187402 73.877217 64.309121 73.040186 
Q 63.43084 72.201436 63.43084 70.718154 
Q 63.43084 69.236592 64.309121 68.399561 
Q 65.187402 67.560811 66.74459 67.560811 
z
M 77.885312 73.280811 
Q 77.314687 73.576436 76.697656 73.725967 
Q 76.080625 73.877217 75.408594 73.877217 
Q 73.404531 73.877217 72.234062 72.756592 
Q 71.063594 71.635967 71.063594 69.719561 
Q 71.063594 67.796279 72.234062 66.677373 
Q 73.404531 65.556748 75.408594 65.556748 
Q 76.080625 65.556748 76.697656 65.707998 
Q 77.314687 65.857529 77.885312 66.153154 
L 77.885312 67.811748 
Q 77.309531 67.419873 76.750937 67.237686 
Q 76.192344 67.055498 75.575312 67.055498 
Q 74.468437 67.055498 73.834219 67.765342 
Q 73.201719 68.473467 73.201719 69.719561 
Q 73.201719 70.960498 73.834219 71.670342 
Q 74.468437 72.378467 75.575312 72.378467 
Q 76.192344 72.378467 76.750937 72.196279 
Q 77.309531 72.012373 77.885312 71.620498 
L 77.885312 73.280811 
z
M 82.374473 68.935811 
Q 81.735098 68.935811 81.399941 69.394717 
Q 81.064785 69.853623 81.064785 70.718154 
Q 81.064785 71.582686 81.399941 72.043311 
Q 81.735098 72.502217 82.374473 72.502217 
Q 83.003535 72.502217 83.335254 72.043311 
Q 83.668691 71.582686 83.668691 70.718154 
Q 83.668691 69.853623 83.335254 69.394717 
Q 83.003535 68.935811 82.374473 68.935811 
z
M 82.374473 67.560811 
Q 83.926504 67.560811 84.799629 68.399561 
Q 85.672754 69.236592 85.672754 70.718154 
Q 85.672754 72.201436 84.799629 73.040186 
Q 83.926504 73.877217 82.374473 73.877217 
Q 80.817285 73.877217 79.939004 73.040186 
Q 79.060723 72.201436 79.060723 70.718154 
Q 79.060723 69.236592 79.939004 68.399561 
Q 80.817285 67.560811 82.374473 67.560811 
z
M 86.741602 69.772842 
L 90.113789 69.772842 
L 90.113789 71.335186 
L 86.741602 71.335186 
L 86.741602 69.772842 
z
M 94.931875 68.806904 
Q 95.421719 68.806904 95.672656 68.592061 
Q 95.925312 68.377217 95.925312 67.957842 
Q 95.925312 67.543623 95.672656 67.327061 
Q 95.421719 67.108779 94.931875 67.108779 
L 93.788906 67.108779 
L 93.788906 68.806904 
L 94.931875 68.806904 
z
M 95.002344 72.313154 
Q 95.624531 72.313154 95.939062 72.050186 
Q 96.253594 71.787217 96.253594 71.256123 
Q 96.253594 70.733623 95.9425 70.474092 
Q 95.631406 70.212842 95.002344 70.212842 
L 93.788906 70.212842 
L 93.788906 72.313154 
L 95.002344 72.313154 
z
M 96.925625 69.429092 
Q 97.590781 69.623311 97.955156 70.144092 
Q 98.32125 70.664873 98.32125 71.421123 
Q 98.32125 72.581279 97.5375 73.151904 
Q 96.75375 73.720811 95.151875 73.720811 
L 91.72125 73.720811 
L 91.72125 65.701123 
L 94.825312 65.701123 
Q 96.495937 65.701123 97.245312 66.206436 
Q 97.994687 66.711748 97.994687 67.823779 
Q 97.994687 68.408154 97.719687 68.818936 
Q 97.446406 69.229717 96.925625 69.429092 
z
" style="fill: #94a3b8"/>
   </g>
   <g id="text_18">
    <path d="M 54.281719 119.510535 
L 56.361406 119.510535 
L 58.4875 125.42991 
L 60.610156 119.510535 
L 62.688125 119.510535 
L 59.718125 127.530222 
L 57.251719 127.530222 
L 54.281719 119.510535 
z
M 65.923027 122.745222 
Q 65.283652 122.745222 64.948496 123.204129 
Q 64.61334 123.663035 64.61334 124.527566 
Q 64.61334 125.392097 64.948496 125.852722 
Q 65.283652 126.311629 65.923027 126.311629 
Q 66.55209 126.311629 66.883809 125.852722 
Q 67.217246 125.392097 67.217246 124.527566 
Q 67.217246 123.663035 66.883809 123.204129 
Q 66.55209 122.745222 65.923027 122.745222 
z
M 65.923027 121.370222 
Q 67.475059 121.370222 68.348184 122.208972 
Q 69.221309 123.046004 69.221309 124.527566 
Q 69.221309 126.010847 68.348184 126.849597 
Q 67.475059 127.686629 65.923027 127.686629 
Q 64.36584 127.686629 63.487559 126.849597 
Q 62.609277 126.010847 62.609277 124.527566 
Q 62.609277 123.046004 63.487559 122.208972 
Q 64.36584 121.370222 65.923027 121.370222 
z
M 77.06375 127.090222 
Q 76.493125 127.385847 75.876094 127.535379 
Q 75.259062 127.686629 74.587031 127.686629 
Q 72.582969 127.686629 71.4125 126.566004 
Q 70.242031 125.445379 70.242031 123.528972 
Q 70.242031 121.605691 71.4125 120.486785 
Q 72.582969 119.36616 74.587031 119.36616 
Q 75.259062 119.36616 75.876094 119.51741 
Q 76.493125 119.666941 77.06375 119.962566 
L 77.06375 121.62116 
Q 76.487969 121.229285 75.929375 121.047097 
Q 75.370781 120.86491 74.75375 120.86491 
Q 73.646875 120.86491 73.012656 121.574754 
Q 72.380156 122.282879 72.380156 123.528972 
Q 72.380156 124.76991 73.012656 125.479754 
Q 73.646875 126.187879 74.75375 126.187879 
Q 75.370781 126.187879 75.929375 126.005691 
Q 76.487969 125.821785 77.06375 125.42991 
L 77.06375 127.090222 
z
M 81.55291 122.745222 
Q 80.913535 122.745222 80.578379 123.204129 
Q 80.243223 123.663035 80.243223 124.527566 
Q 80.243223 125.392097 80.578379 125.852722 
Q 80.913535 126.311629 81.55291 126.311629 
Q 82.181973 126.311629 82.513691 125.852722 
Q 82.847129 125.392097 82.847129 124.527566 
Q 82.847129 123.663035 82.513691 123.204129 
Q 82.181973 122.745222 81.55291 122.745222 
z
M 81.55291 121.370222 
Q 83.104941 121.370222 83.978066 122.208972 
Q 84.851191 123.046004 84.851191 124.527566 
Q 84.851191 126.010847 83.978066 126.849597 
Q 83.104941 127.686629 81.55291 127.686629 
Q 79.995723 127.686629 79.117441 126.849597 
Q 78.23916 126.010847 78.23916 124.527566 
Q 78.23916 123.046004 79.117441 122.208972 
Q 79.995723 121.370222 81.55291 121.370222 
z
M 85.920039 123.582254 
L 89.292227 123.582254 
L 89.292227 125.144597 
L 85.920039 125.144597 
L 85.920039 123.582254 
z
M 90.899687 119.510535 
L 92.967344 119.510535 
L 92.967344 122.566472 
L 96.018125 122.566472 
L 96.018125 119.510535 
L 98.085781 119.510535 
L 98.085781 127.530222 
L 96.018125 127.530222 
L 96.018125 124.130535 
L 92.967344 124.130535 
L 92.967344 127.530222 
L 90.899687 127.530222 
L 90.899687 119.510535 
z
" style="fill: #94a3b8; opacity: 0.7; stroke: #ffffff; stroke-width: 0.2"/>
    <path d="M 54.281719 119.510535 
L 56.361406 119.510535 
L 58.4875 125.42991 
L 60.610156 119.510535 
L 62.688125 119.510535 
L 59.718125 127.530222 
L 57.251719 127.530222 
L 54.281719 119.510535 
z
M 65.923027 122.745222 
Q 65.283652 122.745222 64.948496 123.204129 
Q 64.61334 123.663035 64.61334 124.527566 
Q 64.61334 125.392097 64.948496 125.852722 
Q 65.283652 126.311629 65.923027 126.311629 
Q 66.55209 126.311629 66.883809 125.852722 
Q 67.217246 125.392097 67.217246 124.527566 
Q 67.217246 123.663035 66.883809 123.204129 
Q 66.55209 122.745222 65.923027 122.745222 
z
M 65.923027 121.370222 
Q 67.475059 121.370222 68.348184 122.208972 
Q 69.221309 123.046004 69.221309 124.527566 
Q 69.221309 126.010847 68.348184 126.849597 
Q 67.475059 127.686629 65.923027 127.686629 
Q 64.36584 127.686629 63.487559 126.849597 
Q 62.609277 126.010847 62.609277 124.527566 
Q 62.609277 123.046004 63.487559 122.208972 
Q 64.36584 121.370222 65.923027 121.370222 
z
M 77.06375 127.090222 
Q 76.493125 127.385847 75.876094 127.535379 
Q 75.259062 127.686629 74.587031 127.686629 
Q 72.582969 127.686629 71.4125 126.566004 
Q 70.242031 125.445379 70.242031 123.528972 
Q 70.242031 121.605691 71.4125 120.486785 
Q 72.582969 119.36616 74.587031 119.36616 
Q 75.259062 119.36616 75.876094 119.51741 
Q 76.493125 119.666941 77.06375 119.962566 
L 77.06375 121.62116 
Q 76.487969 121.229285 75.929375 121.047097 
Q 75.370781 120.86491 74.75375 120.86491 
Q 73.646875 120.86491 73.012656 121.574754 
Q 72.380156 122.282879 72.380156 123.528972 
Q 72.380156 124.76991 73.012656 125.479754 
Q 73.646875 126.187879 74.75375 126.187879 
Q 75.370781 126.187879 75.929375 126.005691 
Q 76.487969 125.821785 77.06375 125.42991 
L 77.06375 127.090222 
z
M 81.55291 122.745222 
Q 80.913535 122.745222 80.578379 123.204129 
Q 80.243223 123.663035 80.243223 124.527566 
Q 80.243223 125.392097 80.578379 125.852722 
Q 80.913535 126.311629 81.55291 126.311629 
Q 82.181973 126.311629 82.513691 125.852722 
Q 82.847129 125.392097 82.847129 124.527566 
Q 82.847129 123.663035 82.513691 123.204129 
Q 82.181973 122.745222 81.55291 122.745222 
z
M 81.55291 121.370222 
Q 83.104941 121.370222 83.978066 122.208972 
Q 84.851191 123.046004 84.851191 124.527566 
Q 84.851191 126.010847 83.978066 126.849597 
Q 83.104941 127.686629 81.55291 127.686629 
Q 79.995723 127.686629 79.117441 126.849597 
Q 78.23916 126.010847 78.23916 124.527566 
Q 78.23916 123.046004 79.117441 122.208972 
Q 79.995723 121.370222 81.55291 121.370222 
z
M 85.920039 123.582254 
L 89.292227 123.582254 
L 89.292227 125.144597 
L 85.920039 125.144597 
L 85.920039 123.582254 
z
M 90.899687 119.510535 
L 92.967344 119.510535 
L 92.967344 122.566472 
L 96.018125 122.566472 
L 96.018125 119.510535 
L 98.085781 119.510535 
L 98.085781 127.530222 
L 96.018125 127.530222 
L 96.018125 124.130535 
L 92.967344 124.130535 
L 92.967344 127.530222 
L 90.899687 127.530222 
L 90.899687 119.510535 
z
" style="fill: #94a3b8"/>
   </g>
   <g id="text_19">
    <path d="M 7.253281 173.319947 
L 9.332969 173.319947 
L 11.459062 179.239322 
L 13.581719 173.319947 
L 15.659687 173.319947 
L 12.689687 181.339634 
L 10.223281 181.339634 
L 7.253281 173.319947 
z
M 16.445371 175.324009 
L 18.366934 175.324009 
L 18.366934 181.339634 
L 16.445371 181.339634 
L 16.445371 175.324009 
z
M 16.445371 172.981353 
L 18.366934 172.981353 
L 18.366934 174.550572 
L 16.445371 174.550572 
L 16.445371 172.981353 
z
M 19.344473 173.319947 
L 26.735098 173.319947 
L 26.735098 174.884009 
L 24.076191 174.884009 
L 24.076191 181.339634 
L 22.008535 181.339634 
L 22.008535 174.884009 
L 19.344473 174.884009 
L 19.344473 173.319947 
z
M 25.768516 177.391665 
L 29.140703 177.391665 
L 29.140703 178.954009 
L 25.768516 178.954009 
L 25.768516 177.391665 
z
M 33.958789 176.425728 
Q 34.448633 176.425728 34.69957 176.210884 
Q 34.952227 175.99604 34.952227 175.576665 
Q 34.952227 175.162447 34.69957 174.945884 
Q 34.448633 174.727603 33.958789 174.727603 
L 32.81582 174.727603 
L 32.81582 176.425728 
L 33.958789 176.425728 
z
M 34.029258 179.931978 
Q 34.651445 179.931978 34.965977 179.669009 
Q 35.280508 179.40604 35.280508 178.874947 
Q 35.280508 178.352447 34.969414 178.092915 
Q 34.65832 177.831665 34.029258 177.831665 
L 32.81582 177.831665 
L 32.81582 179.931978 
L 34.029258 179.931978 
z
M 35.952539 177.047915 
Q 36.617695 177.242134 36.98207 177.762915 
Q 37.348164 178.283697 37.348164 179.039947 
Q 37.348164 180.200103 36.564414 180.770728 
Q 35.780664 181.339634 34.178789 181.339634 
L 30.748164 181.339634 
L 30.748164 173.319947 
L 33.852227 173.319947 
Q 35.522852 173.319947 36.272227 173.825259 
Q 37.021602 174.330572 37.021602 175.442603 
Q 37.021602 176.026978 36.746602 176.437759 
Q 36.47332 176.84854 35.952539 177.047915 
z
M 39.410879 179.911353 
L 41.23791 179.911353 
L 41.23791 174.727603 
L 39.362754 175.114322 
L 39.362754 173.706665 
L 41.225879 173.319947 
L 43.192129 173.319947 
L 43.192129 179.911353 
L 45.01916 179.911353 
L 45.01916 181.339634 
L 39.410879 181.339634 
L 39.410879 179.911353 
z
M 49.75625 177.381353 
Q 49.213125 177.381353 48.941562 177.733697 
Q 48.67 178.084322 48.67 178.789009 
Q 48.67 179.491978 48.941562 179.844322 
Q 49.213125 180.194947 49.75625 180.194947 
Q 50.302812 180.194947 50.574375 179.844322 
Q 50.845937 179.491978 50.845937 178.789009 
Q 50.845937 178.084322 50.574375 177.733697 
Q 50.302812 177.381353 49.75625 177.381353 
z
M 52.312031 173.529634 
L 52.312031 175.012915 
Q 51.801562 174.770572 51.349531 174.655415 
Q 50.899219 174.540259 50.469531 174.540259 
Q 49.546562 174.540259 49.030937 175.054165 
Q 48.515312 175.566353 48.429375 176.575259 
Q 48.783437 176.31229 49.195937 176.181665 
Q 49.610156 176.049322 50.1 176.049322 
Q 51.328906 176.049322 52.083437 176.769478 
Q 52.837969 177.487915 52.837969 178.653228 
Q 52.837969 179.94229 51.994062 180.719165 
Q 51.151875 181.49604 49.733906 181.49604 
Q 48.171562 181.49604 47.313906 180.440728 
Q 46.457969 179.383697 46.457969 177.444947 
Q 46.457969 175.458072 47.46 174.321978 
Q 48.462031 173.185884 50.206562 173.185884 
Q 50.76 173.185884 51.280781 173.271822 
Q 51.801562 173.357759 52.312031 173.529634 
z
M 61.406367 182.790259 
L 59.809648 182.790259 
Q 58.988086 181.463384 58.596211 180.268853 
Q 58.204336 179.072603 58.204336 177.896978 
Q 58.204336 176.719634 58.59793 175.51479 
Q 58.993242 174.308228 59.809648 172.993384 
L 61.406367 172.993384 
Q 60.718867 174.265259 60.375117 175.482134 
Q 60.031367 176.699009 60.031367 177.886665 
Q 60.031367 179.072603 60.37168 180.292915 
Q 60.711992 181.511509 61.406367 182.790259 
z
M 65.364648 174.884009 
L 65.364648 179.77729 
L 66.10543 179.77729 
Q 67.372148 179.77729 68.040742 179.148228 
Q 68.711055 178.519165 68.711055 177.321197 
Q 68.711055 176.130103 68.04418 175.507915 
Q 67.379023 174.884009 66.10543 174.884009 
L 65.364648 174.884009 
z
M 63.296992 173.319947 
L 65.476367 173.319947 
Q 67.303398 173.319947 68.197148 173.581197 
Q 69.090898 173.840728 69.730273 174.464634 
Q 70.294023 175.007759 70.567305 175.717603 
Q 70.842305 176.425728 70.842305 177.321197 
Q 70.842305 178.230415 70.567305 178.941978 
Q 70.294023 179.65354 69.730273 180.194947 
Q 69.085742 180.818853 68.183398 181.080103 
Q 67.281055 181.339634 65.476367 181.339634 
L 63.296992 181.339634 
L 63.296992 173.319947 
z
M 72.427852 173.319947 
L 74.495508 173.319947 
L 74.495508 181.339634 
L 72.427852 181.339634 
L 72.427852 173.319947 
z
M 76.520625 173.319947 
L 78.828906 173.319947 
L 81.745625 178.819947 
L 81.745625 173.319947 
L 83.706719 173.319947 
L 83.706719 181.339634 
L 81.396719 181.339634 
L 78.48 175.839634 
L 78.48 181.339634 
L 76.520625 181.339634 
L 76.520625 173.319947 
z
M 89.389336 174.674322 
Q 88.444023 174.674322 87.923242 175.372134 
Q 87.402461 176.069947 87.402461 177.338384 
Q 87.402461 178.599947 87.923242 179.299478 
Q 88.444023 179.99729 89.389336 179.99729 
Q 90.339805 179.99729 90.860586 179.299478 
Q 91.381367 178.599947 91.381367 177.338384 
Q 91.381367 176.069947 90.860586 175.372134 
Q 90.339805 174.674322 89.389336 174.674322 
z
M 89.389336 173.175572 
Q 91.32293 173.175572 92.417773 174.282447 
Q 93.514336 175.387603 93.514336 177.338384 
Q 93.514336 179.28229 92.417773 180.389165 
Q 91.32293 181.49604 89.389336 181.49604 
Q 87.460898 181.49604 86.362617 180.389165 
Q 85.264336 179.28229 85.264336 177.338384 
Q 85.264336 175.387603 86.362617 174.282447 
Q 87.460898 173.175572 89.389336 173.175572 
z
M 94.948848 182.790259 
Q 95.636348 181.511509 95.980098 180.292915 
Q 96.323848 179.072603 96.323848 177.886665 
Q 96.323848 176.699009 95.980098 175.482134 
Q 95.636348 174.265259 94.948848 172.993384 
L 96.543848 172.993384 
Q 97.360254 174.308228 97.753848 175.51479 
Q 98.14916 176.719634 98.14916 177.896978 
Q 98.14916 179.072603 97.757285 180.268853 
Q 97.36541 181.463384 96.543848 182.790259 
L 94.948848 182.790259 
z
" style="fill: #94a3b8; opacity: 0.7; stroke: #ffffff; stroke-width: 0.2"/>
    <path d="M 7.253281 173.319947 
L 9.332969 173.319947 
L 11.459062 179.239322 
L 13.581719 173.319947 
L 15.659687 173.319947 
L 12.689687 181.339634 
L 10.223281 181.339634 
L 7.253281 173.319947 
z
M 16.445371 175.324009 
L 18.366934 175.324009 
L 18.366934 181.339634 
L 16.445371 181.339634 
L 16.445371 175.324009 
z
M 16.445371 172.981353 
L 18.366934 172.981353 
L 18.366934 174.550572 
L 16.445371 174.550572 
L 16.445371 172.981353 
z
M 19.344473 173.319947 
L 26.735098 173.319947 
L 26.735098 174.884009 
L 24.076191 174.884009 
L 24.076191 181.339634 
L 22.008535 181.339634 
L 22.008535 174.884009 
L 19.344473 174.884009 
L 19.344473 173.319947 
z
M 25.768516 177.391665 
L 29.140703 177.391665 
L 29.140703 178.954009 
L 25.768516 178.954009 
L 25.768516 177.391665 
z
M 33.958789 176.425728 
Q 34.448633 176.425728 34.69957 176.210884 
Q 34.952227 175.99604 34.952227 175.576665 
Q 34.952227 175.162447 34.69957 174.945884 
Q 34.448633 174.727603 33.958789 174.727603 
L 32.81582 174.727603 
L 32.81582 176.425728 
L 33.958789 176.425728 
z
M 34.029258 179.931978 
Q 34.651445 179.931978 34.965977 179.669009 
Q 35.280508 179.40604 35.280508 178.874947 
Q 35.280508 178.352447 34.969414 178.092915 
Q 34.65832 177.831665 34.029258 177.831665 
L 32.81582 177.831665 
L 32.81582 179.931978 
L 34.029258 179.931978 
z
M 35.952539 177.047915 
Q 36.617695 177.242134 36.98207 177.762915 
Q 37.348164 178.283697 37.348164 179.039947 
Q 37.348164 180.200103 36.564414 180.770728 
Q 35.780664 181.339634 34.178789 181.339634 
L 30.748164 181.339634 
L 30.748164 173.319947 
L 33.852227 173.319947 
Q 35.522852 173.319947 36.272227 173.825259 
Q 37.021602 174.330572 37.021602 175.442603 
Q 37.021602 176.026978 36.746602 176.437759 
Q 36.47332 176.84854 35.952539 177.047915 
z
M 39.410879 179.911353 
L 41.23791 179.911353 
L 41.23791 174.727603 
L 39.362754 175.114322 
L 39.362754 173.706665 
L 41.225879 173.319947 
L 43.192129 173.319947 
L 43.192129 179.911353 
L 45.01916 179.911353 
L 45.01916 181.339634 
L 39.410879 181.339634 
L 39.410879 179.911353 
z
M 49.75625 177.381353 
Q 49.213125 177.381353 48.941562 177.733697 
Q 48.67 178.084322 48.67 178.789009 
Q 48.67 179.491978 48.941562 179.844322 
Q 49.213125 180.194947 49.75625 180.194947 
Q 50.302812 180.194947 50.574375 179.844322 
Q 50.845937 179.491978 50.845937 178.789009 
Q 50.845937 178.084322 50.574375 177.733697 
Q 50.302812 177.381353 49.75625 177.381353 
z
M 52.312031 173.529634 
L 52.312031 175.012915 
Q 51.801562 174.770572 51.349531 174.655415 
Q 50.899219 174.540259 50.469531 174.540259 
Q 49.546562 174.540259 49.030937 175.054165 
Q 48.515312 175.566353 48.429375 176.575259 
Q 48.783437 176.31229 49.195937 176.181665 
Q 49.610156 176.049322 50.1 176.049322 
Q 51.328906 176.049322 52.083437 176.769478 
Q 52.837969 177.487915 52.837969 178.653228 
Q 52.837969 179.94229 51.994062 180.719165 
Q 51.151875 181.49604 49.733906 181.49604 
Q 48.171562 181.49604 47.313906 180.440728 
Q 46.457969 179.383697 46.457969 177.444947 
Q 46.457969 175.458072 47.46 174.321978 
Q 48.462031 173.185884 50.206562 173.185884 
Q 50.76 173.185884 51.280781 173.271822 
Q 51.801562 173.357759 52.312031 173.529634 
z
M 61.406367 182.790259 
L 59.809648 182.790259 
Q 58.988086 181.463384 58.596211 180.268853 
Q 58.204336 179.072603 58.204336 177.896978 
Q 58.204336 176.719634 58.59793 175.51479 
Q 58.993242 174.308228 59.809648 172.993384 
L 61.406367 172.993384 
Q 60.718867 174.265259 60.375117 175.482134 
Q 60.031367 176.699009 60.031367 177.886665 
Q 60.031367 179.072603 60.37168 180.292915 
Q 60.711992 181.511509 61.406367 182.790259 
z
M 65.364648 174.884009 
L 65.364648 179.77729 
L 66.10543 179.77729 
Q 67.372148 179.77729 68.040742 179.148228 
Q 68.711055 178.519165 68.711055 177.321197 
Q 68.711055 176.130103 68.04418 175.507915 
Q 67.379023 174.884009 66.10543 174.884009 
L 65.364648 174.884009 
z
M 63.296992 173.319947 
L 65.476367 173.319947 
Q 67.303398 173.319947 68.197148 173.581197 
Q 69.090898 173.840728 69.730273 174.464634 
Q 70.294023 175.007759 70.567305 175.717603 
Q 70.842305 176.425728 70.842305 177.321197 
Q 70.842305 178.230415 70.567305 178.941978 
Q 70.294023 179.65354 69.730273 180.194947 
Q 69.085742 180.818853 68.183398 181.080103 
Q 67.281055 181.339634 65.476367 181.339634 
L 63.296992 181.339634 
L 63.296992 173.319947 
z
M 72.427852 173.319947 
L 74.495508 173.319947 
L 74.495508 181.339634 
L 72.427852 181.339634 
L 72.427852 173.319947 
z
M 76.520625 173.319947 
L 78.828906 173.319947 
L 81.745625 178.819947 
L 81.745625 173.319947 
L 83.706719 173.319947 
L 83.706719 181.339634 
L 81.396719 181.339634 
L 78.48 175.839634 
L 78.48 181.339634 
L 76.520625 181.339634 
L 76.520625 173.319947 
z
M 89.389336 174.674322 
Q 88.444023 174.674322 87.923242 175.372134 
Q 87.402461 176.069947 87.402461 177.338384 
Q 87.402461 178.599947 87.923242 179.299478 
Q 88.444023 179.99729 89.389336 179.99729 
Q 90.339805 179.99729 90.860586 179.299478 
Q 91.381367 178.599947 91.381367 177.338384 
Q 91.381367 176.069947 90.860586 175.372134 
Q 90.339805 174.674322 89.389336 174.674322 
z
M 89.389336 173.175572 
Q 91.32293 173.175572 92.417773 174.282447 
Q 93.514336 175.387603 93.514336 177.338384 
Q 93.514336 179.28229 92.417773 180.389165 
Q 91.32293 181.49604 89.389336 181.49604 
Q 87.460898 181.49604 86.362617 180.389165 
Q 85.264336 179.28229 85.264336 177.338384 
Q 85.264336 175.387603 86.362617 174.282447 
Q 87.460898 173.175572 89.389336 173.175572 
z
M 94.948848 182.790259 
Q 95.636348 181.511509 95.980098 180.292915 
Q 96.323848 179.072603 96.323848 177.886665 
Q 96.323848 176.699009 95.980098 175.482134 
Q 95.636348 174.265259 94.948848 172.993384 
L 96.543848 172.993384 
Q 97.360254 174.308228 97.753848 175.51479 
Q 98.14916 176.719634 98.14916 177.896978 
Q 98.14916 179.072603 97.757285 180.268853 
Q 97.36541 181.463384 96.543848 182.790259 
L 94.948848 182.790259 
z
" style="fill: #94a3b8"/>
   </g>
  </g>
 </g>
 <defs>
  <clipPath id="p5b808b34d3">
   <rect x="119.182687" y="27.637969" width="401.76" height="182.952"/>
  </clipPath>
 </defs>
</svg>
