<?xml version="1.0" encoding="utf-8" standalone="no"?>
<!DOCTYPE svg PUBLIC "-//W3C//DTD SVG 1.1//EN"
  "http://www.w3.org/Graphics/SVG/1.1/DTD/svg11.dtd">
<svg xmlns:xlink="http://www.w3.org/1999/xlink" width="1339.538pt" height="284.317969pt" viewBox="0 0 1339.538 284.317969" xmlns="http://www.w3.org/2000/svg" version="1.1">
 <metadata>
  <rdf:RDF xmlns:dc="http://purl.org/dc/elements/1.1/" xmlns:cc="http://creativecommons.org/ns#" xmlns:rdf="http://www.w3.org/1999/02/22-rdf-syntax-ns#">
   <cc:Work>
    <dc:type rdf:resource="http://purl.org/dc/dcmitype/StillImage"/>
    <dc:date>2026-04-29T13:37:20.115269</dc:date>
    <dc:format>image/svg+xml</dc:format>
    <dc:creator>
     <cc:Agent>
      <dc:title>Matplotlib v3.10.9, https://matplotlib.org/</dc:title>
     </cc:Agent>
    </dc:creator>
   </cc:Work>
  </rdf:RDF>
 </metadata>
 <defs>
  <style type="text/css">*{stroke-linejoin: round; stroke-linecap: butt}</style>
 </defs>
 <g id="figure_1">
  <g id="patch_1">
   <path d="M 0 284.317969 
L 1339.538 284.317969 
L 1339.538 0 
L 0 0 
L 0 284.317969 
z
" style="fill: none; opacity: 0"/>
  </g>
  <g id="axes_1">
   <g id="patch_2">
    <path d="M 127.058 277.117969 
L 1332.338 277.117969 
L 1332.338 27.637969 
L 127.058 27.637969 
L 127.058 277.117969 
z
" style="fill: none"/>
   </g>
   <g id="patch_3">
    <path d="M 135.0932 45.655969 
L 219.4628 45.655969 
Q 222.476 45.655969 222.476 47.041969 
L 222.476 82.153969 
Q 222.476 83.539969 219.4628 83.539969 
L 135.0932 83.539969 
Q 132.08 83.539969 132.08 82.153969 
L 132.08 47.041969 
Q 132.08 45.655969 135.0932 45.655969 
z
" clip-path="url(#pb1ef06175d)" style="fill: #d1dae5; opacity: 0.6"/>
   </g>
   <g id="patch_4">
    <path d="M 135.0932 91.855969 
L 219.4628 91.855969 
Q 222.476 91.855969 222.476 93.241969 
L 222.476 128.353969 
Q 222.476 129.739969 219.4628 129.739969 
L 135.0932 129.739969 
Q 132.08 129.739969 132.08 128.353969 
L 132.08 93.241969 
Q 132.08 91.855969 135.0932 91.855969 
z
" clip-path="url(#pb1ef06175d)" style="fill: #dee5ed; opacity: 0.6"/>
   </g>
   <g id="patch_5">
    <path d="M 135.0932 138.055969 
L 219.4628 138.055969 
Q 222.476 138.055969 222.476 139.441969 
L 222.476 174.553969 
Q 222.476 175.939969 219.4628 175.939969 
L 135.0932 175.939969 
Q 132.08 175.939969 132.08 174.553969 
L 132.08 139.441969 
Q 132.08 138.055969 135.0932 138.055969 
z
" clip-path="url(#pb1ef06175d)" style="fill: #f1f5f9; opacity: 0.6"/>
   </g>
   <g id="patch_6">
    <path d="M 135.0932 184.255969 
L 219.4628 184.255969 
Q 222.476 184.255969 222.476 185.641969 
L 222.476 220.753969 
Q 222.476 222.139969 219.4628 222.139969 
L 135.0932 222.139969 
Q 132.08 222.139969 132.08 220.753969 
L 132.08 185.641969 
Q 132.08 184.255969 135.0932 184.255969 
z
" clip-path="url(#pb1ef06175d)" style="fill: #b3c7e5; opacity: 0.6"/>
   </g>
   <g id="patch_7">
    <path d="M 135.0932 230.455969 
L 219.4628 230.455969 
Q 222.476 230.455969 222.476 231.841969 
L 222.476 266.953969 
Q 222.476 268.339969 219.4628 268.339969 
L 135.0932 268.339969 
Q 132.08 268.339969 132.08 266.953969 
L 132.08 231.841969 
Q 132.08 230.455969 135.0932 230.455969 
z
" clip-path="url(#pb1ef06175d)" style="fill: #3b82f6; opacity: 0.6"/>
   </g>
   <g id="patch_8">
    <path d="M 235.5332 45.655969 
L 319.9028 45.655969 
Q 322.916 45.655969 322.916 47.041969 
L 322.916 82.153969 
Q 322.916 83.539969 319.9028 83.539969 
L 235.5332 83.539969 
Q 232.52 83.539969 232.52 82.153969 
L 232.52 47.041969 
Q 232.52 45.655969 235.5332 45.655969 
z
" clip-path="url(#pb1ef06175d)" style="fill: #f1f5f9; opacity: 0.6"/>
   </g>
   <g id="patch_9">
    <path d="M 235.5332 91.855969 
L 319.9028 91.855969 
Q 322.916 91.855969 322.916 93.241969 
L 322.916 128.353969 
Q 322.916 129.739969 319.9028 129.739969 
L 235.5332 129.739969 
Q 232.52 129.739969 232.52 128.353969 
L 232.52 93.241969 
Q 232.52 91.855969 235.5332 91.855969 
z
" clip-path="url(#pb1ef06175d)" style="fill: #b6c9e4; opacity: 0.6"/>
   </g>
   <g id="patch_10">
    <path d="M 235.5332 138.055969 
L 319.9028 138.055969 
Q 322.916 138.055969 322.916 139.441969 
L 322.916 174.553969 
Q 322.916 175.939969 319.9028 175.939969 
L 235.5332 175.939969 
Q 232.52 175.939969 232.52 174.553969 
L 232.52 139.441969 
Q 232.52 138.055969 235.5332 138.055969 
z
" clip-path="url(#pb1ef06175d)" style="fill: #6499f0; opacity: 0.6"/>
   </g>
   <g id="patch_11">
    <path d="M 235.5332 184.255969 
L 319.9028 184.255969 
Q 322.916 184.255969 322.916 185.641969 
L 322.916 220.753969 
Q 322.916 222.139969 319.9028 222.139969 
L 235.5332 222.139969 
Q 232.52 222.139969 232.52 220.753969 
L 232.52 185.641969 
Q 232.52 184.255969 235.5332 184.255969 
z
" clip-path="url(#pb1ef06175d)" style="fill: #b6c9e4; opacity: 0.6"/>
   </g>
   <g id="patch_12">
    <path d="M 235.5332 230.455969 
L 319.9028 230.455969 
Q 322.916 230.455969 322.916 231.841969 
L 322.916 266.953969 
Q 322.916 268.339969 319.9028 268.339969 
L 235.5332 268.339969 
Q 232.52 268.339969 232.52 266.953969 
L 232.52 231.841969 
Q 232.52 230.455969 235.5332 230.455969 
z
" clip-path="url(#pb1ef06175d)" style="fill: #3b82f6; opacity: 0.6"/>
   </g>
   <g id="patch_13">
    <path d="M 335.9732 45.655969 
L 420.3428 45.655969 
Q 423.356 45.655969 423.356 47.041969 
L 423.356 82.153969 
Q 423.356 83.539969 420.3428 83.539969 
L 335.9732 83.539969 
Q 332.96 83.539969 332.96 82.153969 
L 332.96 47.041969 
Q 332.96 45.655969 335.9732 45.655969 
z
" clip-path="url(#pb1ef06175d)" style="fill: #a5bfe7; opacity: 0.6"/>
   </g>
   <g id="patch_14">
    <path d="M 335.9732 91.855969 
L 420.3428 91.855969 
Q 423.356 91.855969 423.356 93.241969 
L 423.356 128.353969 
Q 423.356 129.739969 420.3428 129.739969 
L 335.9732 129.739969 
Q 332.96 129.739969 332.96 128.353969 
L 332.96 93.241969 
Q 332.96 91.855969 335.9732 91.855969 
z
" clip-path="url(#pb1ef06175d)" style="fill: #f1f5f9; opacity: 0.6"/>
   </g>
   <g id="patch_15">
    <path d="M 335.9732 138.055969 
L 420.3428 138.055969 
Q 423.356 138.055969 423.356 139.441969 
L 423.356 174.553969 
Q 423.356 175.939969 420.3428 175.939969 
L 335.9732 175.939969 
Q 332.96 175.939969 332.96 174.553969 
L 332.96 139.441969 
Q 332.96 138.055969 335.9732 138.055969 
z
" clip-path="url(#pb1ef06175d)" style="fill: #a5bfe7; opacity: 0.6"/>
   </g>
   <g id="patch_16">
    <path d="M 335.9732 184.255969 
L 420.3428 184.255969 
Q 423.356 184.255969 423.356 185.641969 
L 423.356 220.753969 
Q 423.356 222.139969 420.3428 222.139969 
L 335.9732 222.139969 
Q 332.96 222.139969 332.96 220.753969 
L 332.96 185.641969 
Q 332.96 184.255969 335.9732 184.255969 
z
" clip-path="url(#pb1ef06175d)" style="fill: #d9e1ea; opacity: 0.6"/>
   </g>
   <g id="patch_17">
    <path d="M 335.9732 230.455969 
L 420.3428 230.455969 
Q 423.356 230.455969 423.356 231.841969 
L 423.356 266.953969 
Q 423.356 268.339969 420.3428 268.339969 
L 335.9732 268.339969 
Q 332.96 268.339969 332.96 266.953969 
L 332.96 231.841969 
Q 332.96 230.455969 335.9732 230.455969 
z
" clip-path="url(#pb1ef06175d)" style="fill: #3b82f6; opacity: 0.6"/>
   </g>
   <g id="patch_18">
    <path d="M 436.4132 45.655969 
L 520.7828 45.655969 
Q 523.796 45.655969 523.796 47.041969 
L 523.796 82.153969 
Q 523.796 83.539969 520.7828 83.539969 
L 436.4132 83.539969 
Q 433.4 83.539969 433.4 82.153969 
L 433.4 47.041969 
Q 433.4 45.655969 436.4132 45.655969 
z
" clip-path="url(#pb1ef06175d)" style="fill: #f1f5f9; opacity: 0.6"/>
   </g>
   <g id="patch_19">
    <path d="M 436.4132 91.855969 
L 520.7828 91.855969 
Q 523.796 91.855969 523.796 93.241969 
L 523.796 128.353969 
Q 523.796 129.739969 520.7828 129.739969 
L 436.4132 129.739969 
Q 433.4 129.739969 433.4 128.353969 
L 433.4 93.241969 
Q 433.4 91.855969 436.4132 91.855969 
z
" clip-path="url(#pb1ef06175d)" style="fill: #e3e9f0; opacity: 0.6"/>
   </g>
   <g id="patch_20">
    <path d="M 436.4132 138.055969 
L 520.7828 138.055969 
Q 523.796 138.055969 523.796 139.441969 
L 523.796 174.553969 
Q 523.796 175.939969 520.7828 175.939969 
L 436.4132 175.939969 
Q 433.4 175.939969 433.4 174.553969 
L 433.4 139.441969 
Q 433.4 138.055969 436.4132 138.055969 
z
" clip-path="url(#pb1ef06175d)" style="fill: #d5dee7; opacity: 0.6"/>
   </g>
   <g id="patch_21">
    <path d="M 436.4132 184.255969 
L 520.7828 184.255969 
Q 523.796 184.255969 523.796 185.641969 
L 523.796 220.753969 
Q 523.796 222.139969 520.7828 222.139969 
L 436.4132 222.139969 
Q 433.4 222.139969 433.4 220.753969 
L 433.4 185.641969 
Q 433.4 184.255969 436.4132 184.255969 
z
" clip-path="url(#pb1ef06175d)" style="fill: #e3e9f0; opacity: 0.6"/>
   </g>
   <g id="patch_22">
    <path d="M 436.4132 230.455969 
L 520.7828 230.455969 
Q 523.796 230.455969 523.796 231.841969 
L 523.796 266.953969 
Q 523.796 268.339969 520.7828 268.339969 
L 436.4132 268.339969 
Q 433.4 268.339969 433.4 266.953969 
L 433.4 231.841969 
Q 433.4 230.455969 436.4132 230.455969 
z
" clip-path="url(#pb1ef06175d)" style="fill: #3b82f6; opacity: 0.6"/>
   </g>
   <g id="patch_23">
    <path d="M 536.8532 45.655969 
L 621.2228 45.655969 
Q 624.236 45.655969 624.236 47.041969 
L 624.236 82.153969 
Q 624.236 83.539969 621.2228 83.539969 
L 536.8532 83.539969 
Q 533.84 83.539969 533.84 82.153969 
L 533.84 47.041969 
Q 533.84 45.655969 536.8532 45.655969 
z
" clip-path="url(#pb1ef06175d)" style="fill: #3b82f6; opacity: 0.6"/>
   </g>
   <g id="patch_24">
    <path d="M 536.8532 91.855969 
L 621.2228 91.855969 
Q 624.236 91.855969 624.236 93.241969 
L 624.236 128.353969 
Q 624.236 129.739969 621.2228 129.739969 
L 536.8532 129.739969 
Q 533.84 129.739969 533.84 128.353969 
L 533.84 93.241969 
Q 533.84 91.855969 536.8532 91.855969 
z
" clip-path="url(#pb1ef06175d)" style="fill: #3b82f6; opacity: 0.6"/>
   </g>
   <g id="patch_25">
    <path d="M 536.8532 138.055969 
L 621.2228 138.055969 
Q 624.236 138.055969 624.236 139.441969 
L 624.236 174.553969 
Q 624.236 175.939969 621.2228 175.939969 
L 536.8532 175.939969 
Q 533.84 175.939969 533.84 174.553969 
L 533.84 139.441969 
Q 533.84 138.055969 536.8532 138.055969 
z
" clip-path="url(#pb1ef06175d)" style="fill: #7aa6ed; opacity: 0.6"/>
   </g>
   <g id="patch_26">
    <path d="M 536.8532 184.255969 
L 621.2228 184.255969 
Q 624.236 184.255969 624.236 185.641969 
L 624.236 220.753969 
Q 624.236 222.139969 621.2228 222.139969 
L 536.8532 222.139969 
Q 533.84 222.139969 533.84 220.753969 
L 533.84 185.641969 
Q 533.84 184.255969 536.8532 184.255969 
z
" clip-path="url(#pb1ef06175d)" style="fill: #7aa6ed; opacity: 0.6"/>
   </g>
   <g id="patch_27">
    <path d="M 536.8532 230.455969 
L 621.2228 230.455969 
Q 624.236 230.455969 624.236 231.841969 
L 624.236 266.953969 
Q 624.236 268.339969 621.2228 268.339969 
L 536.8532 268.339969 
Q 533.84 268.339969 533.84 266.953969 
L 533.84 231.841969 
Q 533.84 230.455969 536.8532 230.455969 
z
" clip-path="url(#pb1ef06175d)" style="fill: #f1f5f9; opacity: 0.6"/>
   </g>
   <g id="patch_28">
    <path d="M 637.2932 45.655969 
L 721.6628 45.655969 
Q 724.676 45.655969 724.676 47.041969 
L 724.676 82.153969 
Q 724.676 83.539969 721.6628 83.539969 
L 637.2932 83.539969 
Q 634.28 83.539969 634.28 82.153969 
L 634.28 47.041969 
Q 634.28 45.655969 637.2932 45.655969 
z
" clip-path="url(#pb1ef06175d)" style="fill: #9bb9e8; opacity: 0.6"/>
   </g>
   <g id="patch_29">
    <path d="M 637.2932 91.855969 
L 721.6628 91.855969 
Q 724.676 91.855969 724.676 93.241969 
L 724.676 128.353969 
Q 724.676 129.739969 721.6628 129.739969 
L 637.2932 129.739969 
Q 634.28 129.739969 634.28 128.353969 
L 634.28 93.241969 
Q 634.28 91.855969 637.2932 91.855969 
z
" clip-path="url(#pb1ef06175d)" style="fill: #3b82f6; opacity: 0.6"/>
   </g>
   <g id="patch_30">
    <path d="M 637.2932 138.055969 
L 721.6628 138.055969 
Q 724.676 138.055969 724.676 139.441969 
L 724.676 174.553969 
Q 724.676 175.939969 721.6628 175.939969 
L 637.2932 175.939969 
Q 634.28 175.939969 634.28 174.553969 
L 634.28 139.441969 
Q 634.28 138.055969 637.2932 138.055969 
z
" clip-path="url(#pb1ef06175d)" style="fill: #9bb9e8; opacity: 0.6"/>
   </g>
   <g id="patch_31">
    <path d="M 637.2932 184.255969 
L 721.6628 184.255969 
Q 724.676 184.255969 724.676 185.641969 
L 724.676 220.753969 
Q 724.676 222.139969 721.6628 222.139969 
L 637.2932 222.139969 
Q 634.28 222.139969 634.28 220.753969 
L 634.28 185.641969 
Q 634.28 184.255969 637.2932 184.255969 
z
" clip-path="url(#pb1ef06175d)" style="fill: #f1f5f9; opacity: 0.6"/>
   </g>
   <g id="patch_32">
    <path d="M 637.2932 230.455969 
L 721.6628 230.455969 
Q 724.676 230.455969 724.676 231.841969 
L 724.676 266.953969 
Q 724.676 268.339969 721.6628 268.339969 
L 637.2932 268.339969 
Q 634.28 268.339969 634.28 266.953969 
L 634.28 231.841969 
Q 634.28 230.455969 637.2932 230.455969 
z
" clip-path="url(#pb1ef06175d)" style="fill: #9bb9e8; opacity: 0.6"/>
   </g>
   <g id="patch_33">
    <path d="M 737.7332 45.655969 
L 822.1028 45.655969 
Q 825.116 45.655969 825.116 47.041969 
L 825.116 82.153969 
Q 825.116 83.539969 822.1028 83.539969 
L 737.7332 83.539969 
Q 734.72 83.539969 734.72 82.153969 
L 734.72 47.041969 
Q 734.72 45.655969 737.7332 45.655969 
z
" clip-path="url(#pb1ef06175d)" style="fill: #3b82f6; opacity: 0.6"/>
   </g>
   <g id="patch_34">
    <path d="M 737.7332 91.855969 
L 822.1028 91.855969 
Q 825.116 91.855969 825.116 93.241969 
L 825.116 128.353969 
Q 825.116 129.739969 822.1028 129.739969 
L 737.7332 129.739969 
Q 734.72 129.739969 734.72 128.353969 
L 734.72 93.241969 
Q 734.72 91.855969 737.7332 91.855969 
z
" clip-path="url(#pb1ef06175d)" style="fill: #3b82f6; opacity: 0.6"/>
   </g>
   <g id="patch_35">
    <path d="M 737.7332 138.055969 
L 822.1028 138.055969 
Q 825.116 138.055969 825.116 139.441969 
L 825.116 174.553969 
Q 825.116 175.939969 822.1028 175.939969 
L 737.7332 175.939969 
Q 734.72 175.939969 734.72 174.553969 
L 734.72 139.441969 
Q 734.72 138.055969 737.7332 138.055969 
z
" clip-path="url(#pb1ef06175d)" style="fill: #cbd5e1; opacity: 0.6"/>
   </g>
   <g id="patch_36">
    <path d="M 737.7332 184.255969 
L 822.1028 184.255969 
Q 825.116 184.255969 825.116 185.641969 
L 825.116 220.753969 
Q 825.116 222.139969 822.1028 222.139969 
L 737.7332 222.139969 
Q 734.72 222.139969 734.72 220.753969 
L 734.72 185.641969 
Q 734.72 184.255969 737.7332 184.255969 
z
" clip-path="url(#pb1ef06175d)" style="fill: #cbd5e1; opacity: 0.6"/>
   </g>
   <g id="patch_37">
    <path d="M 737.7332 230.455969 
L 822.1028 230.455969 
Q 825.116 230.455969 825.116 231.841969 
L 825.116 266.953969 
Q 825.116 268.339969 822.1028 268.339969 
L 737.7332 268.339969 
Q 734.72 268.339969 734.72 266.953969 
L 734.72 231.841969 
Q 734.72 230.455969 737.7332 230.455969 
z
" clip-path="url(#pb1ef06175d)" style="fill: #f1f5f9; opacity: 0.6"/>
   </g>
   <g id="patch_38">
    <path d="M 838.1732 45.655969 
L 922.5428 45.655969 
Q 925.556 45.655969 925.556 47.041969 
L 925.556 82.153969 
Q 925.556 83.539969 922.5428 83.539969 
L 838.1732 83.539969 
Q 835.16 83.539969 835.16 82.153969 
L 835.16 47.041969 
Q 835.16 45.655969 838.1732 45.655969 
z
" clip-path="url(#pb1ef06175d)" style="fill: #3b82f6; opacity: 0.6"/>
   </g>
   <g id="patch_39">
    <path d="M 838.1732 91.855969 
L 922.5428 91.855969 
Q 925.556 91.855969 925.556 93.241969 
L 925.556 128.353969 
Q 925.556 129.739969 922.5428 129.739969 
L 838.1732 129.739969 
Q 835.16 129.739969 835.16 128.353969 
L 835.16 93.241969 
Q 835.16 91.855969 838.1732 91.855969 
z
" clip-path="url(#pb1ef06175d)" style="fill: #3b82f6; opacity: 0.6"/>
   </g>
   <g id="patch_40">
    <path d="M 838.1732 138.055969 
L 922.5428 138.055969 
Q 925.556 138.055969 925.556 139.441969 
L 925.556 174.553969 
Q 925.556 175.939969 922.5428 175.939969 
L 838.1732 175.939969 
Q 835.16 175.939969 835.16 174.553969 
L 835.16 139.441969 
Q 835.16 138.055969 838.1732 138.055969 
z
" clip-path="url(#pb1ef06175d)" style="fill: #3b82f6; opacity: 0.6"/>
   </g>
   <g id="patch_41">
    <path d="M 838.1732 184.255969 
L 922.5428 184.255969 
Q 925.556 184.255969 925.556 185.641969 
L 925.556 220.753969 
Q 925.556 222.139969 922.5428 222.139969 
L 838.1732 222.139969 
Q 835.16 222.139969 835.16 220.753969 
L 835.16 185.641969 
Q 835.16 184.255969 838.1732 184.255969 
z
" clip-path="url(#pb1ef06175d)" style="fill: #3b82f6; opacity: 0.6"/>
   </g>
   <g id="patch_42">
    <path d="M 838.1732 230.455969 
L 922.5428 230.455969 
Q 925.556 230.455969 925.556 231.841969 
L 925.556 266.953969 
Q 925.556 268.339969 922.5428 268.339969 
L 838.1732 268.339969 
Q 835.16 268.339969 835.16 266.953969 
L 835.16 231.841969 
Q 835.16 230.455969 838.1732 230.455969 
z
" clip-path="url(#pb1ef06175d)" style="fill: #f1f5f9; opacity: 0.6"/>
   </g>
   <g id="patch_43">
    <path d="M 938.6132 45.655969 
L 1022.9828 45.655969 
Q 1025.996 45.655969 1025.996 47.041969 
L 1025.996 82.153969 
Q 1025.996 83.539969 1022.9828 83.539969 
L 938.6132 83.539969 
Q 935.6 83.539969 935.6 82.153969 
L 935.6 47.041969 
Q 935.6 45.655969 938.6132 45.655969 
z
" clip-path="url(#pb1ef06175d)" style="fill: #3b82f6; opacity: 0.6"/>
   </g>
   <g id="patch_44">
    <path d="M 938.6132 91.855969 
L 1022.9828 91.855969 
Q 1025.996 91.855969 1025.996 93.241969 
L 1025.996 128.353969 
Q 1025.996 129.739969 1022.9828 129.739969 
L 938.6132 129.739969 
Q 935.6 129.739969 935.6 128.353969 
L 935.6 93.241969 
Q 935.6 91.855969 938.6132 91.855969 
z
" clip-path="url(#pb1ef06175d)" style="fill: #f1f5f9; opacity: 0.6"/>
   </g>
   <g id="patch_45">
    <path d="M 938.6132 138.055969 
L 1022.9828 138.055969 
Q 1025.996 138.055969 1025.996 139.441969 
L 1025.996 174.553969 
Q 1025.996 175.939969 1022.9828 175.939969 
L 938.6132 175.939969 
Q 935.6 175.939969 935.6 174.553969 
L 935.6 139.441969 
Q 935.6 138.055969 938.6132 138.055969 
z
" clip-path="url(#pb1ef06175d)" style="fill: #f1f5f9; opacity: 0.6"/>
   </g>
   <g id="patch_46">
    <path d="M 938.6132 184.255969 
L 1022.9828 184.255969 
Q 1025.996 184.255969 1025.996 185.641969 
L 1025.996 220.753969 
Q 1025.996 222.139969 1022.9828 222.139969 
L 938.6132 222.139969 
Q 935.6 222.139969 935.6 220.753969 
L 935.6 185.641969 
Q 935.6 184.255969 938.6132 184.255969 
z
" clip-path="url(#pb1ef06175d)" style="fill: #f1f5f9; opacity: 0.6"/>
   </g>
   <g id="patch_47">
    <path d="M 938.6132 230.455969 
L 1022.9828 230.455969 
Q 1025.996 230.455969 1025.996 231.841969 
L 1025.996 266.953969 
Q 1025.996 268.339969 1022.9828 268.339969 
L 938.6132 268.339969 
Q 935.6 268.339969 935.6 266.953969 
L 935.6 231.841969 
Q 935.6 230.455969 938.6132 230.455969 
z
" clip-path="url(#pb1ef06175d)" style="fill: #3b82f6; opacity: 0.6"/>
   </g>
   <g id="patch_48">
    <path d="M 1039.0532 45.655969 
L 1123.4228 45.655969 
Q 1126.436 45.655969 1126.436 47.041969 
L 1126.436 82.153969 
Q 1126.436 83.539969 1123.4228 83.539969 
L 1039.0532 83.539969 
Q 1036.04 83.539969 1036.04 82.153969 
L 1036.04 47.041969 
Q 1036.04 45.655969 1039.0532 45.655969 
z
" clip-path="url(#pb1ef06175d)" style="fill: #3b82f6; opacity: 0.6"/>
   </g>
   <g id="patch_49">
    <path d="M 1039.0532 91.855969 
L 1123.4228 91.855969 
Q 1126.436 91.855969 1126.436 93.241969 
L 1126.436 128.353969 
Q 1126.436 129.739969 1123.4228 129.739969 
L 1039.0532 129.739969 
Q 1036.04 129.739969 1036.04 128.353969 
L 1036.04 93.241969 
Q 1036.04 91.855969 1039.0532 91.855969 
z
" clip-path="url(#pb1ef06175d)" style="fill: #cbd5e1; opacity: 0.6"/>
   </g>
   <g id="patch_50">
    <path d="M 1039.0532 138.055969 
L 1123.4228 138.055969 
Q 1126.436 138.055969 1126.436 139.441969 
L 1126.436 174.553969 
Q 1126.436 175.939969 1123.4228 175.939969 
L 1039.0532 175.939969 
Q 1036.04 175.939969 1036.04 174.553969 
L 1036.04 139.441969 
Q 1036.04 138.055969 1039.0532 138.055969 
z
" clip-path="url(#pb1ef06175d)" style="fill: #83aceb; opacity: 0.6"/>
   </g>
   <g id="patch_51">
    <path d="M 1039.0532 184.255969 
L 1123.4228 184.255969 
Q 1126.436 184.255969 1126.436 185.641969 
L 1126.436 220.753969 
Q 1126.436 222.139969 1123.4228 222.139969 
L 1039.0532 222.139969 
Q 1036.04 222.139969 1036.04 220.753969 
L 1036.04 185.641969 
Q 1036.04 184.255969 1039.0532 184.255969 
z
" clip-path="url(#pb1ef06175d)" style="fill: #f1f5f9; opacity: 0.6"/>
   </g>
   <g id="patch_52">
    <path d="M 1039.0532 230.455969 
L 1123.4228 230.455969 
Q 1126.436 230.455969 1126.436 231.841969 
L 1126.436 266.953969 
Q 1126.436 268.339969 1123.4228 268.339969 
L 1039.0532 268.339969 
Q 1036.04 268.339969 1036.04 266.953969 
L 1036.04 231.841969 
Q 1036.04 230.455969 1039.0532 230.455969 
z
" clip-path="url(#pb1ef06175d)" style="fill: #f1f5f9; opacity: 0.6"/>
   </g>
   <g id="patch_53">
    <path d="M 1139.4932 45.655969 
L 1223.8628 45.655969 
Q 1226.876 45.655969 1226.876 47.041969 
L 1226.876 82.153969 
Q 1226.876 83.539969 1223.8628 83.539969 
L 1139.4932 83.539969 
Q 1136.48 83.539969 1136.48 82.153969 
L 1136.48 47.041969 
Q 1136.48 45.655969 1139.4932 45.655969 
z
" clip-path="url(#pb1ef06175d)" style="fill: #3b82f6; opacity: 0.6"/>
   </g>
   <g id="patch_54">
    <path d="M 1139.4932 91.855969 
L 1223.8628 91.855969 
Q 1226.876 91.855969 1226.876 93.241969 
L 1226.876 128.353969 
Q 1226.876 129.739969 1223.8628 129.739969 
L 1139.4932 129.739969 
Q 1136.48 129.739969 1136.48 128.353969 
L 1136.48 93.241969 
Q 1136.48 91.855969 1139.4932 91.855969 
z
" clip-path="url(#pb1ef06175d)" style="fill: #75a3ee; opacity: 0.6"/>
   </g>
   <g id="patch_55">
    <path d="M 1139.4932 138.055969 
L 1223.8628 138.055969 
Q 1226.876 138.055969 1226.876 139.441969 
L 1226.876 174.553969 
Q 1226.876 175.939969 1223.8628 175.939969 
L 1139.4932 175.939969 
Q 1136.48 175.939969 1136.48 174.553969 
L 1136.48 139.441969 
Q 1136.48 138.055969 1139.4932 138.055969 
z
" clip-path="url(#pb1ef06175d)" style="fill: #3b82f6; opacity: 0.6"/>
   </g>
   <g id="patch_56">
    <path d="M 1139.4932 184.255969 
L 1223.8628 184.255969 
Q 1226.876 184.255969 1226.876 185.641969 
L 1226.876 220.753969 
Q 1226.876 222.139969 1223.8628 222.139969 
L 1139.4932 222.139969 
Q 1136.48 222.139969 1136.48 220.753969 
L 1136.48 185.641969 
Q 1136.48 184.255969 1139.4932 184.255969 
z
" clip-path="url(#pb1ef06175d)" style="fill: #f1f5f9; opacity: 0.6"/>
   </g>
   <g id="patch_57">
    <path d="M 1139.4932 230.455969 
L 1223.8628 230.455969 
Q 1226.876 230.455969 1226.876 231.841969 
L 1226.876 266.953969 
Q 1226.876 268.339969 1223.8628 268.339969 
L 1139.4932 268.339969 
Q 1136.48 268.339969 1136.48 266.953969 
L 1136.48 231.841969 
Q 1136.48 230.455969 1139.4932 230.455969 
z
" clip-path="url(#pb1ef06175d)" style="fill: #3b82f6; opacity: 0.6"/>
   </g>
   <g id="patch_58">
    <path d="M 1239.9332 45.655969 
L 1324.3028 45.655969 
Q 1327.316 45.655969 1327.316 47.041969 
L 1327.316 82.153969 
Q 1327.316 83.539969 1324.3028 83.539969 
L 1239.9332 83.539969 
Q 1236.92 83.539969 1236.92 82.153969 
L 1236.92 47.041969 
Q 1236.92 45.655969 1239.9332 45.655969 
z
" clip-path="url(#pb1ef06175d)" style="fill: #4f46e5; opacity: 0.3"/>
   </g>
   <g id="patch_59">
    <path d="M 1239.9332 91.855969 
L 1324.3028 91.855969 
Q 1327.316 91.855969 1327.316 93.241969 
L 1327.316 128.353969 
Q 1327.316 129.739969 1324.3028 129.739969 
L 1239.9332 129.739969 
Q 1236.92 129.739969 1236.92 128.353969 
L 1236.92 93.241969 
Q 1236.92 91.855969 1239.9332 91.855969 
z
" clip-path="url(#pb1ef06175d)" style="fill: #4f46e5; opacity: 0.255556"/>
   </g>
   <g id="patch_60">
    <path d="M 1239.9332 138.055969 
L 1324.3028 138.055969 
Q 1327.316 138.055969 1327.316 139.441969 
L 1327.316 174.553969 
Q 1327.316 175.939969 1324.3028 175.939969 
L 1239.9332 175.939969 
Q 1236.92 175.939969 1236.92 174.553969 
L 1236.92 139.441969 
Q 1236.92 138.055969 1239.9332 138.055969 
z
" clip-path="url(#pb1ef06175d)" style="fill: #4f46e5; opacity: 0.233333"/>
   </g>
   <g id="patch_61">
    <path d="M 1239.9332 184.255969 
L 1324.3028 184.255969 
Q 1327.316 184.255969 1327.316 185.641969 
L 1327.316 220.753969 
Q 1327.316 222.139969 1324.3028 222.139969 
L 1239.9332 222.139969 
Q 1236.92 222.139969 1236.92 220.753969 
L 1236.92 185.641969 
Q 1236.92 184.255969 1239.9332 184.255969 
z
" clip-path="url(#pb1ef06175d)" style="fill: #4f46e5; opacity: 0.122222"/>
   </g>
   <g id="patch_62">
    <path d="M 1239.9332 230.455969 
L 1324.3028 230.455969 
Q 1327.316 230.455969 1327.316 231.841969 
L 1327.316 266.953969 
Q 1327.316 268.339969 1324.3028 268.339969 
L 1239.9332 268.339969 
Q 1236.92 268.339969 1236.92 266.953969 
L 1236.92 231.841969 
Q 1236.92 230.455969 1239.9332 230.455969 
z
" clip-path="url(#pb1ef06175d)" style="fill: #4f46e5; opacity: 0.1"/>
   </g>
   <g id="matplotlib.axis_1">
    <g id="xtick_1">
     <g id="line2d_1"/>
     <g id="text_1">
      <!-- nodulemnist -->
      <g style="fill: #94a3b8" transform="translate(142.1905 20.397344) scale(0.1 -0.1)">
       <defs>
        <path id="DejaVuSans-Bold-6e" d="M 4056 2131 
L 4056 0 
L 2931 0 
L 2931 347 
L 2931 1631 
Q 2931 2084 2911 2256 
Q 2891 2428 2841 2509 
Q 2775 2619 2662 2680 
Q 2550 2741 2406 2741 
Q 2056 2741 1856 2470 
Q 1656 2200 1656 1722 
L 1656 0 
L 538 0 
L 538 3500 
L 1656 3500 
L 1656 2988 
Q 1909 3294 2193 3439 
Q 2478 3584 2822 3584 
Q 3428 3584 3742 3212 
Q 4056 2841 4056 2131 
z
" transform="scale(0.015625)"/>
        <path id="DejaVuSans-Bold-6f" d="M 2203 2784 
Q 1831 2784 1636 2517 
Q 1441 2250 1441 1747 
Q 1441 1244 1636 976 
Q 1831 709 2203 709 
Q 2569 709 2762 976 
Q 2956 1244 2956 1747 
Q 2956 2250 2762 2517 
Q 2569 2784 2203 2784 
z
M 2203 3584 
Q 3106 3584 3614 3096 
Q 4122 2609 4122 1747 
Q 4122 884 3614 396 
Q 3106 -91 2203 -91 
Q 1297 -91 786 396 
Q 275 884 275 1747 
Q 275 2609 786 3096 
Q 1297 3584 2203 3584 
z
" transform="scale(0.015625)"/>
        <path id="DejaVuSans-Bold-64" d="M 2919 2988 
L 2919 4863 
L 4044 4863 
L 4044 0 
L 2919 0 
L 2919 506 
Q 2688 197 2409 53 
Q 2131 -91 1766 -91 
Q 1119 -91 703 423 
Q 288 938 288 1747 
Q 288 2556 703 3070 
Q 1119 3584 1766 3584 
Q 2128 3584 2408 3439 
Q 2688 3294 2919 2988 
z
M 2181 722 
Q 2541 722 2730 984 
Q 2919 1247 2919 1747 
Q 2919 2247 2730 2509 
Q 2541 2772 2181 2772 
Q 1825 2772 1636 2509 
Q 1447 2247 1447 1747 
Q 1447 1247 1636 984 
Q 1825 722 2181 722 
z
" transform="scale(0.015625)"/>
        <path id="DejaVuSans-Bold-75" d="M 500 1363 
L 500 3500 
L 1625 3500 
L 1625 3150 
Q 1625 2866 1622 2436 
Q 1619 2006 1619 1863 
Q 1619 1441 1641 1255 
Q 1663 1069 1716 984 
Q 1784 875 1895 815 
Q 2006 756 2150 756 
Q 2500 756 2700 1025 
Q 2900 1294 2900 1772 
L 2900 3500 
L 4019 3500 
L 4019 0 
L 2900 0 
L 2900 506 
Q 2647 200 2364 54 
Q 2081 -91 1741 -91 
Q 1134 -91 817 281 
Q 500 653 500 1363 
z
" transform="scale(0.015625)"/>
        <path id="DejaVuSans-Bold-6c" d="M 538 4863 
L 1656 4863 
L 1656 0 
L 538 0 
L 538 4863 
z
" transform="scale(0.015625)"/>
        <path id="DejaVuSans-Bold-65" d="M 4031 1759 
L 4031 1441 
L 1416 1441 
Q 1456 1047 1700 850 
Q 1944 653 2381 653 
Q 2734 653 3104 758 
Q 3475 863 3866 1075 
L 3866 213 
Q 3469 63 3072 -14 
Q 2675 -91 2278 -91 
Q 1328 -91 801 392 
Q 275 875 275 1747 
Q 275 2603 792 3093 
Q 1309 3584 2216 3584 
Q 3041 3584 3536 3087 
Q 4031 2591 4031 1759 
z
M 2881 2131 
Q 2881 2450 2695 2645 
Q 2509 2841 2209 2841 
Q 1884 2841 1681 2658 
Q 1478 2475 1428 2131 
L 2881 2131 
z
" transform="scale(0.015625)"/>
        <path id="DejaVuSans-Bold-6d" d="M 3781 2919 
Q 3994 3244 4286 3414 
Q 4578 3584 4928 3584 
Q 5531 3584 5847 3212 
Q 6163 2841 6163 2131 
L 6163 0 
L 5038 0 
L 5038 1825 
Q 5041 1866 5042 1909 
Q 5044 1953 5044 2034 
Q 5044 2406 4934 2573 
Q 4825 2741 4581 2741 
Q 4263 2741 4089 2478 
Q 3916 2216 3909 1719 
L 3909 0 
L 2784 0 
L 2784 1825 
Q 2784 2406 2684 2573 
Q 2584 2741 2328 2741 
Q 2006 2741 1831 2477 
Q 1656 2213 1656 1722 
L 1656 0 
L 531 0 
L 531 3500 
L 1656 3500 
L 1656 2988 
Q 1863 3284 2130 3434 
Q 2397 3584 2719 3584 
Q 3081 3584 3359 3409 
Q 3638 3234 3781 2919 
z
" transform="scale(0.015625)"/>
        <path id="DejaVuSans-Bold-69" d="M 538 3500 
L 1656 3500 
L 1656 0 
L 538 0 
L 538 3500 
z
M 538 4863 
L 1656 4863 
L 1656 3950 
L 538 3950 
L 538 4863 
z
" transform="scale(0.015625)"/>
        <path id="DejaVuSans-Bold-73" d="M 3272 3391 
L 3272 2541 
Q 2913 2691 2578 2766 
Q 2244 2841 1947 2841 
Q 1628 2841 1473 2761 
Q 1319 2681 1319 2516 
Q 1319 2381 1436 2309 
Q 1553 2238 1856 2203 
L 2053 2175 
Q 2913 2066 3209 1816 
Q 3506 1566 3506 1031 
Q 3506 472 3093 190 
Q 2681 -91 1863 -91 
Q 1516 -91 1145 -36 
Q 775 19 384 128 
L 384 978 
Q 719 816 1070 734 
Q 1422 653 1784 653 
Q 2113 653 2278 743 
Q 2444 834 2444 1013 
Q 2444 1163 2330 1236 
Q 2216 1309 1875 1350 
L 1678 1375 
Q 931 1469 631 1722 
Q 331 1975 331 2491 
Q 331 3047 712 3315 
Q 1094 3584 1881 3584 
Q 2191 3584 2531 3537 
Q 2872 3491 3272 3391 
z
" transform="scale(0.015625)"/>
        <path id="DejaVuSans-Bold-74" d="M 1759 4494 
L 1759 3500 
L 2913 3500 
L 2913 2700 
L 1759 2700 
L 1759 1216 
Q 1759 972 1856 886 
Q 1953 800 2241 800 
L 2816 800 
L 2816 0 
L 1856 0 
Q 1194 0 917 276 
Q 641 553 641 1216 
L 641 2700 
L 84 2700 
L 84 3500 
L 641 3500 
L 641 4494 
L 1759 4494 
z
" transform="scale(0.015625)"/>
       </defs>
       <use xlink:href="#DejaVuSans-Bold-6e"/>
       <use xlink:href="#DejaVuSans-Bold-6f" transform="translate(71.191406 0)"/>
       <use xlink:href="#DejaVuSans-Bold-64" transform="translate(139.892578 0)"/>
       <use xlink:href="#DejaVuSans-Bold-75" transform="translate(211.474609 0)"/>
       <use xlink:href="#DejaVuSans-Bold-6c" transform="translate(282.666016 0)"/>
       <use xlink:href="#DejaVuSans-Bold-65" transform="translate(316.943359 0)"/>
       <use xlink:href="#DejaVuSans-Bold-6d" transform="translate(384.765625 0)"/>
       <use xlink:href="#DejaVuSans-Bold-6e" transform="translate(488.964844 0)"/>
       <use xlink:href="#DejaVuSans-Bold-69" transform="translate(560.15625 0)"/>
       <use xlink:href="#DejaVuSans-Bold-73" transform="translate(594.433594 0)"/>
       <use xlink:href="#DejaVuSans-Bold-74" transform="translate(653.955078 0)"/>
      </g>
     </g>
    </g>
    <g id="xtick_2">
     <g id="line2d_2"/>
     <g id="text_2">
      <!-- organmnist -->
      <g style="fill: #94a3b8" transform="translate(245.4555 20.358281) scale(0.1 -0.1)">
       <defs>
        <path id="DejaVuSans-Bold-72" d="M 3138 2547 
Q 2991 2616 2845 2648 
Q 2700 2681 2553 2681 
Q 2122 2681 1889 2404 
Q 1656 2128 1656 1613 
L 1656 0 
L 538 0 
L 538 3500 
L 1656 3500 
L 1656 2925 
Q 1872 3269 2151 3426 
Q 2431 3584 2822 3584 
Q 2878 3584 2943 3579 
Q 3009 3575 3134 3559 
L 3138 2547 
z
" transform="scale(0.015625)"/>
        <path id="DejaVuSans-Bold-67" d="M 2919 594 
Q 2688 288 2409 144 
Q 2131 0 1766 0 
Q 1125 0 706 504 
Q 288 1009 288 1791 
Q 288 2575 706 3076 
Q 1125 3578 1766 3578 
Q 2131 3578 2409 3434 
Q 2688 3291 2919 2981 
L 2919 3500 
L 4044 3500 
L 4044 353 
Q 4044 -491 3511 -936 
Q 2978 -1381 1966 -1381 
Q 1638 -1381 1331 -1331 
Q 1025 -1281 716 -1178 
L 716 -306 
Q 1009 -475 1290 -558 
Q 1572 -641 1856 -641 
Q 2406 -641 2662 -400 
Q 2919 -159 2919 353 
L 2919 594 
z
M 2181 2772 
Q 1834 2772 1640 2515 
Q 1447 2259 1447 1791 
Q 1447 1309 1634 1061 
Q 1822 813 2181 813 
Q 2531 813 2725 1069 
Q 2919 1325 2919 1791 
Q 2919 2259 2725 2515 
Q 2531 2772 2181 2772 
z
" transform="scale(0.015625)"/>
        <path id="DejaVuSans-Bold-61" d="M 2106 1575 
Q 1756 1575 1579 1456 
Q 1403 1338 1403 1106 
Q 1403 894 1545 773 
Q 1688 653 1941 653 
Q 2256 653 2472 879 
Q 2688 1106 2688 1447 
L 2688 1575 
L 2106 1575 
z
M 3816 1997 
L 3816 0 
L 2688 0 
L 2688 519 
Q 2463 200 2181 54 
Q 1900 -91 1497 -91 
Q 953 -91 614 226 
Q 275 544 275 1050 
Q 275 1666 698 1953 
Q 1122 2241 2028 2241 
L 2688 2241 
L 2688 2328 
Q 2688 2594 2478 2717 
Q 2269 2841 1825 2841 
Q 1466 2841 1156 2769 
Q 847 2697 581 2553 
L 581 3406 
Q 941 3494 1303 3539 
Q 1666 3584 2028 3584 
Q 2975 3584 3395 3211 
Q 3816 2838 3816 1997 
z
" transform="scale(0.015625)"/>
       </defs>
       <use xlink:href="#DejaVuSans-Bold-6f"/>
       <use xlink:href="#DejaVuSans-Bold-72" transform="translate(68.701172 0)"/>
       <use xlink:href="#DejaVuSans-Bold-67" transform="translate(118.017578 0)"/>
       <use xlink:href="#DejaVuSans-Bold-61" transform="translate(189.599609 0)"/>
       <use xlink:href="#DejaVuSans-Bold-6e" transform="translate(257.080078 0)"/>
       <use xlink:href="#DejaVuSans-Bold-6d" transform="translate(328.271484 0)"/>
       <use xlink:href="#DejaVuSans-Bold-6e" transform="translate(432.470703 0)"/>
       <use xlink:href="#DejaVuSans-Bold-69" transform="translate(503.662109 0)"/>
       <use xlink:href="#DejaVuSans-Bold-73" transform="translate(537.939453 0)"/>
       <use xlink:href="#DejaVuSans-Bold-74" transform="translate(597.460938 0)"/>
      </g>
     </g>
    </g>
    <g id="xtick_3">
     <g id="line2d_3"/>
     <g id="text_3">
      <!-- cc-ccii -->
      <g style="fill: #94a3b8" transform="translate(360.798625 20.397344) scale(0.1 -0.1)">
       <defs>
        <path id="DejaVuSans-Bold-63" d="M 3366 3391 
L 3366 2478 
Q 3138 2634 2908 2709 
Q 2678 2784 2431 2784 
Q 1963 2784 1702 2511 
Q 1441 2238 1441 1747 
Q 1441 1256 1702 982 
Q 1963 709 2431 709 
Q 2694 709 2930 787 
Q 3166 866 3366 1019 
L 3366 103 
Q 3103 6 2833 -42 
Q 2563 -91 2291 -91 
Q 1344 -91 809 395 
Q 275 881 275 1747 
Q 275 2613 809 3098 
Q 1344 3584 2291 3584 
Q 2566 3584 2833 3536 
Q 3100 3488 3366 3391 
z
" transform="scale(0.015625)"/>
        <path id="DejaVuSans-Bold-2d" d="M 347 2297 
L 2309 2297 
L 2309 1388 
L 347 1388 
L 347 2297 
z
" transform="scale(0.015625)"/>
       </defs>
       <use xlink:href="#DejaVuSans-Bold-63"/>
       <use xlink:href="#DejaVuSans-Bold-63" transform="translate(59.277344 0)"/>
       <use xlink:href="#DejaVuSans-Bold-2d" transform="translate(118.554688 0)"/>
       <use xlink:href="#DejaVuSans-Bold-63" transform="translate(160.058594 0)"/>
       <use xlink:href="#DejaVuSans-Bold-63" transform="translate(219.335938 0)"/>
       <use xlink:href="#DejaVuSans-Bold-69" transform="translate(278.613281 0)"/>
       <use xlink:href="#DejaVuSans-Bold-69" transform="translate(312.890625 0)"/>
      </g>
     </g>
    </g>
    <g id="xtick_4">
     <g id="line2d_4"/>
     <g id="text_4">
      <!-- luna25 -->
      <g style="fill: #94a3b8" transform="translate(459.433156 20.397344) scale(0.1 -0.1)">
       <defs>
        <path id="DejaVuSans-Bold-32" d="M 1844 884 
L 3897 884 
L 3897 0 
L 506 0 
L 506 884 
L 2209 2388 
Q 2438 2594 2547 2791 
Q 2656 2988 2656 3200 
Q 2656 3528 2436 3728 
Q 2216 3928 1850 3928 
Q 1569 3928 1234 3808 
Q 900 3688 519 3450 
L 519 4475 
Q 925 4609 1322 4679 
Q 1719 4750 2100 4750 
Q 2938 4750 3402 4381 
Q 3866 4013 3866 3353 
Q 3866 2972 3669 2642 
Q 3472 2313 2841 1759 
L 1844 884 
z
" transform="scale(0.015625)"/>
        <path id="DejaVuSans-Bold-35" d="M 678 4666 
L 3669 4666 
L 3669 3781 
L 1638 3781 
L 1638 3059 
Q 1775 3097 1914 3117 
Q 2053 3138 2203 3138 
Q 3056 3138 3531 2711 
Q 4006 2284 4006 1522 
Q 4006 766 3489 337 
Q 2972 -91 2053 -91 
Q 1656 -91 1267 -14 
Q 878 63 494 219 
L 494 1166 
Q 875 947 1217 837 
Q 1559 728 1863 728 
Q 2300 728 2551 942 
Q 2803 1156 2803 1522 
Q 2803 1891 2551 2103 
Q 2300 2316 1863 2316 
Q 1603 2316 1309 2248 
Q 1016 2181 678 2041 
L 678 4666 
z
" transform="scale(0.015625)"/>
       </defs>
       <use xlink:href="#DejaVuSans-Bold-6c"/>
       <use xlink:href="#DejaVuSans-Bold-75" transform="translate(34.277344 0)"/>
       <use xlink:href="#DejaVuSans-Bold-6e" transform="translate(105.46875 0)"/>
       <use xlink:href="#DejaVuSans-Bold-61" transform="translate(176.660156 0)"/>
       <use xlink:href="#DejaVuSans-Bold-32" transform="translate(244.140625 0)"/>
       <use xlink:href="#DejaVuSans-Bold-35" transform="translate(313.720703 0)"/>
      </g>
     </g>
    </g>
    <g id="xtick_5">
     <g id="line2d_5"/>
     <g id="text_5">
      <!-- BTCV -->
      <g style="fill: #94a3b8" transform="translate(564.277063 20.397344) scale(0.1 -0.1)">
       <defs>
        <path id="DejaVuSans-Bold-42" d="M 2456 2859 
Q 2741 2859 2887 2984 
Q 3034 3109 3034 3353 
Q 3034 3594 2887 3720 
Q 2741 3847 2456 3847 
L 1791 3847 
L 1791 2859 
L 2456 2859 
z
M 2497 819 
Q 2859 819 3042 972 
Q 3225 1125 3225 1434 
Q 3225 1738 3044 1889 
Q 2863 2041 2497 2041 
L 1791 2041 
L 1791 819 
L 2497 819 
z
M 3616 2497 
Q 4003 2384 4215 2081 
Q 4428 1778 4428 1338 
Q 4428 663 3972 331 
Q 3516 0 2584 0 
L 588 0 
L 588 4666 
L 2394 4666 
Q 3366 4666 3802 4372 
Q 4238 4078 4238 3431 
Q 4238 3091 4078 2852 
Q 3919 2613 3616 2497 
z
" transform="scale(0.015625)"/>
        <path id="DejaVuSans-Bold-54" d="M 31 4666 
L 4331 4666 
L 4331 3756 
L 2784 3756 
L 2784 0 
L 1581 0 
L 1581 3756 
L 31 3756 
L 31 4666 
z
" transform="scale(0.015625)"/>
        <path id="DejaVuSans-Bold-43" d="M 4288 256 
Q 3956 84 3597 -3 
Q 3238 -91 2847 -91 
Q 1681 -91 1000 561 
Q 319 1213 319 2328 
Q 319 3447 1000 4098 
Q 1681 4750 2847 4750 
Q 3238 4750 3597 4662 
Q 3956 4575 4288 4403 
L 4288 3438 
Q 3953 3666 3628 3772 
Q 3303 3878 2944 3878 
Q 2300 3878 1931 3465 
Q 1563 3053 1563 2328 
Q 1563 1606 1931 1193 
Q 2300 781 2944 781 
Q 3303 781 3628 887 
Q 3953 994 4288 1222 
L 4288 256 
z
" transform="scale(0.015625)"/>
        <path id="DejaVuSans-Bold-56" d="M 31 4666 
L 1241 4666 
L 2478 1222 
L 3713 4666 
L 4922 4666 
L 3194 0 
L 1759 0 
L 31 4666 
z
" transform="scale(0.015625)"/>
       </defs>
       <use xlink:href="#DejaVuSans-Bold-42"/>
       <use xlink:href="#DejaVuSans-Bold-54" transform="translate(76.220703 0)"/>
       <use xlink:href="#DejaVuSans-Bold-43" transform="translate(144.433594 0)"/>
       <use xlink:href="#DejaVuSans-Bold-56" transform="translate(217.822266 0)"/>
      </g>
     </g>
    </g>
    <g id="xtick_6">
     <g id="line2d_6"/>
     <g id="text_6">
      <!-- word -->
      <g style="fill: #94a3b8" transform="translate(665.378781 20.397344) scale(0.1 -0.1)">
       <defs>
        <path id="DejaVuSans-Bold-77" d="M 225 3500 
L 1313 3500 
L 1900 1088 
L 2491 3500 
L 3425 3500 
L 4013 1113 
L 4603 3500 
L 5691 3500 
L 4769 0 
L 3547 0 
L 2956 2406 
L 2369 0 
L 1147 0 
L 225 3500 
z
" transform="scale(0.015625)"/>
       </defs>
       <use xlink:href="#DejaVuSans-Bold-77"/>
       <use xlink:href="#DejaVuSans-Bold-6f" transform="translate(92.382812 0)"/>
       <use xlink:href="#DejaVuSans-Bold-72" transform="translate(161.083984 0)"/>
       <use xlink:href="#DejaVuSans-Bold-64" transform="translate(210.400391 0)"/>
      </g>
     </g>
    </g>
    <g id="xtick_7">
     <g id="line2d_7"/>
     <g id="text_7">
      <!-- flare22 -->
      <g style="fill: #94a3b8" transform="translate(759.839875 20.397344) scale(0.1 -0.1)">
       <defs>
        <path id="DejaVuSans-Bold-66" d="M 2841 4863 
L 2841 4128 
L 2222 4128 
Q 1984 4128 1890 4042 
Q 1797 3956 1797 3744 
L 1797 3500 
L 2753 3500 
L 2753 2700 
L 1797 2700 
L 1797 0 
L 678 0 
L 678 2700 
L 122 2700 
L 122 3500 
L 678 3500 
L 678 3744 
Q 678 4316 997 4589 
Q 1316 4863 1984 4863 
L 2841 4863 
z
" transform="scale(0.015625)"/>
       </defs>
       <use xlink:href="#DejaVuSans-Bold-66"/>
       <use xlink:href="#DejaVuSans-Bold-6c" transform="translate(43.505859 0)"/>
       <use xlink:href="#DejaVuSans-Bold-61" transform="translate(77.783203 0)"/>
       <use xlink:href="#DejaVuSans-Bold-72" transform="translate(145.263672 0)"/>
       <use xlink:href="#DejaVuSans-Bold-65" transform="translate(194.580078 0)"/>
       <use xlink:href="#DejaVuSans-Bold-32" transform="translate(262.402344 0)"/>
       <use xlink:href="#DejaVuSans-Bold-32" transform="translate(331.982422 0)"/>
      </g>
     </g>
    </g>
    <g id="xtick_8">
     <g id="line2d_8"/>
     <g id="text_8">
      <!-- chaos -->
      <g style="fill: #94a3b8" transform="translate(864.049406 20.397344) scale(0.1 -0.1)">
       <defs>
        <path id="DejaVuSans-Bold-68" d="M 4056 2131 
L 4056 0 
L 2931 0 
L 2931 347 
L 2931 1625 
Q 2931 2084 2911 2256 
Q 2891 2428 2841 2509 
Q 2775 2619 2662 2680 
Q 2550 2741 2406 2741 
Q 2056 2741 1856 2470 
Q 1656 2200 1656 1722 
L 1656 0 
L 538 0 
L 538 4863 
L 1656 4863 
L 1656 2988 
Q 1909 3294 2193 3439 
Q 2478 3584 2822 3584 
Q 3428 3584 3742 3212 
Q 4056 2841 4056 2131 
z
" transform="scale(0.015625)"/>
       </defs>
       <use xlink:href="#DejaVuSans-Bold-63"/>
       <use xlink:href="#DejaVuSans-Bold-68" transform="translate(59.277344 0)"/>
       <use xlink:href="#DejaVuSans-Bold-61" transform="translate(130.46875 0)"/>
       <use xlink:href="#DejaVuSans-Bold-6f" transform="translate(197.949219 0)"/>
       <use xlink:href="#DejaVuSans-Bold-73" transform="translate(266.650391 0)"/>
      </g>
     </g>
    </g>
    <g id="xtick_9">
     <g id="line2d_9"/>
     <g id="text_9">
      <!-- LiTS17 -->
      <g style="fill: #94a3b8" transform="translate(961.928469 20.397344) scale(0.1 -0.1)">
       <defs>
        <path id="DejaVuSans-Bold-4c" d="M 588 4666 
L 1791 4666 
L 1791 909 
L 3903 909 
L 3903 0 
L 588 0 
L 588 4666 
z
" transform="scale(0.015625)"/>
        <path id="DejaVuSans-Bold-53" d="M 3834 4519 
L 3834 3531 
Q 3450 3703 3084 3790 
Q 2719 3878 2394 3878 
Q 1963 3878 1756 3759 
Q 1550 3641 1550 3391 
Q 1550 3203 1689 3098 
Q 1828 2994 2194 2919 
L 2706 2816 
Q 3484 2659 3812 2340 
Q 4141 2022 4141 1434 
Q 4141 663 3683 286 
Q 3225 -91 2284 -91 
Q 1841 -91 1394 -6 
Q 947 78 500 244 
L 500 1259 
Q 947 1022 1364 901 
Q 1781 781 2169 781 
Q 2563 781 2772 912 
Q 2981 1044 2981 1288 
Q 2981 1506 2839 1625 
Q 2697 1744 2272 1838 
L 1806 1941 
Q 1106 2091 782 2419 
Q 459 2747 459 3303 
Q 459 4000 909 4375 
Q 1359 4750 2203 4750 
Q 2588 4750 2994 4692 
Q 3400 4634 3834 4519 
z
" transform="scale(0.015625)"/>
        <path id="DejaVuSans-Bold-31" d="M 750 831 
L 1813 831 
L 1813 3847 
L 722 3622 
L 722 4441 
L 1806 4666 
L 2950 4666 
L 2950 831 
L 4013 831 
L 4013 0 
L 750 0 
L 750 831 
z
" transform="scale(0.015625)"/>
        <path id="DejaVuSans-Bold-37" d="M 428 4666 
L 3944 4666 
L 3944 3988 
L 2125 0 
L 953 0 
L 2675 3781 
L 428 3781 
L 428 4666 
z
" transform="scale(0.015625)"/>
       </defs>
       <use xlink:href="#DejaVuSans-Bold-4c"/>
       <use xlink:href="#DejaVuSans-Bold-69" transform="translate(63.720703 0)"/>
       <use xlink:href="#DejaVuSans-Bold-54" transform="translate(97.998047 0)"/>
       <use xlink:href="#DejaVuSans-Bold-53" transform="translate(166.210938 0)"/>
       <use xlink:href="#DejaVuSans-Bold-31" transform="translate(238.232422 0)"/>
       <use xlink:href="#DejaVuSans-Bold-37" transform="translate(307.8125 0)"/>
      </g>
     </g>
    </g>
    <g id="xtick_10">
     <g id="line2d_10"/>
     <g id="text_10">
      <!-- kits23 -->
      <g style="fill: #94a3b8" transform="translate(1063.8755 20.397344) scale(0.1 -0.1)">
       <defs>
        <path id="DejaVuSans-Bold-6b" d="M 538 4863 
L 1656 4863 
L 1656 2216 
L 2944 3500 
L 4244 3500 
L 2534 1894 
L 4378 0 
L 3022 0 
L 1656 1459 
L 1656 0 
L 538 0 
L 538 4863 
z
" transform="scale(0.015625)"/>
        <path id="DejaVuSans-Bold-33" d="M 2981 2516 
Q 3453 2394 3698 2092 
Q 3944 1791 3944 1325 
Q 3944 631 3412 270 
Q 2881 -91 1863 -91 
Q 1503 -91 1142 -33 
Q 781 25 428 141 
L 428 1069 
Q 766 900 1098 814 
Q 1431 728 1753 728 
Q 2231 728 2486 893 
Q 2741 1059 2741 1369 
Q 2741 1688 2480 1852 
Q 2219 2016 1709 2016 
L 1228 2016 
L 1228 2791 
L 1734 2791 
Q 2188 2791 2409 2933 
Q 2631 3075 2631 3366 
Q 2631 3634 2415 3781 
Q 2200 3928 1806 3928 
Q 1516 3928 1219 3862 
Q 922 3797 628 3669 
L 628 4550 
Q 984 4650 1334 4700 
Q 1684 4750 2022 4750 
Q 2931 4750 3382 4451 
Q 3834 4153 3834 3553 
Q 3834 3144 3618 2883 
Q 3403 2622 2981 2516 
z
" transform="scale(0.015625)"/>
       </defs>
       <use xlink:href="#DejaVuSans-Bold-6b"/>
       <use xlink:href="#DejaVuSans-Bold-69" transform="translate(66.503906 0)"/>
       <use xlink:href="#DejaVuSans-Bold-74" transform="translate(100.78125 0)"/>
       <use xlink:href="#DejaVuSans-Bold-73" transform="translate(148.583984 0)"/>
       <use xlink:href="#DejaVuSans-Bold-32" transform="translate(208.105469 0)"/>
       <use xlink:href="#DejaVuSans-Bold-33" transform="translate(277.685547 0)"/>
      </g>
     </g>
    </g>
    <g id="xtick_11">
     <g id="line2d_11"/>
     <g id="text_11">
      <!-- MSD Task 7 -->
      <g style="fill: #94a3b8" transform="translate(1149.548312 14.798437) scale(0.1 -0.1)">
       <defs>
        <path id="DejaVuSans-Bold-4d" d="M 588 4666 
L 2119 4666 
L 3181 2169 
L 4250 4666 
L 5778 4666 
L 5778 0 
L 4641 0 
L 4641 3413 
L 3566 897 
L 2803 897 
L 1728 3413 
L 1728 0 
L 588 0 
L 588 4666 
z
" transform="scale(0.015625)"/>
        <path id="DejaVuSans-Bold-44" d="M 1791 3756 
L 1791 909 
L 2222 909 
Q 2959 909 3348 1275 
Q 3738 1641 3738 2338 
Q 3738 3031 3350 3393 
Q 2963 3756 2222 3756 
L 1791 3756 
z
M 588 4666 
L 1856 4666 
Q 2919 4666 3439 4514 
Q 3959 4363 4331 4000 
Q 4659 3684 4818 3271 
Q 4978 2859 4978 2338 
Q 4978 1809 4818 1395 
Q 4659 981 4331 666 
Q 3956 303 3431 151 
Q 2906 0 1856 0 
L 588 0 
L 588 4666 
z
" transform="scale(0.015625)"/>
        <path id="DejaVuSans-Bold-20" transform="scale(0.015625)"/>
       </defs>
       <use xlink:href="#DejaVuSans-Bold-4d"/>
       <use xlink:href="#DejaVuSans-Bold-53" transform="translate(99.511719 0)"/>
       <use xlink:href="#DejaVuSans-Bold-44" transform="translate(171.533203 0)"/>
       <use xlink:href="#DejaVuSans-Bold-20" transform="translate(254.541016 0)"/>
       <use xlink:href="#DejaVuSans-Bold-54" transform="translate(289.355469 0)"/>
       <use xlink:href="#DejaVuSans-Bold-61" transform="translate(344.693359 0)"/>
       <use xlink:href="#DejaVuSans-Bold-73" transform="translate(412.173828 0)"/>
       <use xlink:href="#DejaVuSans-Bold-6b" transform="translate(471.695312 0)"/>
       <use xlink:href="#DejaVuSans-Bold-20" transform="translate(538.199219 0)"/>
       <use xlink:href="#DejaVuSans-Bold-37" transform="translate(573.013672 0)"/>
      </g>
      <!-- Pancreas -->
      <g style="fill: #94a3b8" transform="translate(1156.039719 25.99625) scale(0.1 -0.1)">
       <defs>
        <path id="DejaVuSans-Bold-50" d="M 588 4666 
L 2584 4666 
Q 3475 4666 3951 4270 
Q 4428 3875 4428 3144 
Q 4428 2409 3951 2014 
Q 3475 1619 2584 1619 
L 1791 1619 
L 1791 0 
L 588 0 
L 588 4666 
z
M 1791 3794 
L 1791 2491 
L 2456 2491 
Q 2806 2491 2997 2661 
Q 3188 2831 3188 3144 
Q 3188 3456 2997 3625 
Q 2806 3794 2456 3794 
L 1791 3794 
z
" transform="scale(0.015625)"/>
       </defs>
       <use xlink:href="#DejaVuSans-Bold-50"/>
       <use xlink:href="#DejaVuSans-Bold-61" transform="translate(70.666016 0)"/>
       <use xlink:href="#DejaVuSans-Bold-6e" transform="translate(138.146484 0)"/>
       <use xlink:href="#DejaVuSans-Bold-63" transform="translate(209.337891 0)"/>
       <use xlink:href="#DejaVuSans-Bold-72" transform="translate(268.615234 0)"/>
       <use xlink:href="#DejaVuSans-Bold-65" transform="translate(317.931641 0)"/>
       <use xlink:href="#DejaVuSans-Bold-61" transform="translate(385.753906 0)"/>
       <use xlink:href="#DejaVuSans-Bold-73" transform="translate(453.234375 0)"/>
      </g>
     </g>
    </g>
    <g id="xtick_12">
     <g id="line2d_12"/>
     <g id="text_12">
      <!-- Average -->
      <g style="fill: #94a3b8" transform="translate(1258.968781 20.319219) scale(0.1 -0.1)">
       <defs>
        <path id="DejaVuSans-Bold-41" d="M 3419 850 
L 1538 850 
L 1241 0 
L 31 0 
L 1759 4666 
L 3194 4666 
L 4922 0 
L 3713 0 
L 3419 850 
z
M 1838 1716 
L 3116 1716 
L 2478 3572 
L 1838 1716 
z
" transform="scale(0.015625)"/>
        <path id="DejaVuSans-Bold-76" d="M 97 3500 
L 1216 3500 
L 2088 1081 
L 2956 3500 
L 4078 3500 
L 2700 0 
L 1472 0 
L 97 3500 
z
" transform="scale(0.015625)"/>
       </defs>
       <use xlink:href="#DejaVuSans-Bold-41"/>
       <use xlink:href="#DejaVuSans-Bold-76" transform="translate(73.767578 0)"/>
       <use xlink:href="#DejaVuSans-Bold-65" transform="translate(138.953125 0)"/>
       <use xlink:href="#DejaVuSans-Bold-72" transform="translate(206.775391 0)"/>
       <use xlink:href="#DejaVuSans-Bold-61" transform="translate(256.091797 0)"/>
       <use xlink:href="#DejaVuSans-Bold-67" transform="translate(323.572266 0)"/>
       <use xlink:href="#DejaVuSans-Bold-65" transform="translate(395.154297 0)"/>
      </g>
     </g>
    </g>
   </g>
   <g id="text_13">
    <!-- 0.76 -->
    <g style="fill: #1e293b" transform="translate(166.145187 67.357344) scale(0.1 -0.1)">
     <defs>
      <path id="DejaVuSans-30" d="M 2034 4250 
Q 1547 4250 1301 3770 
Q 1056 3291 1056 2328 
Q 1056 1369 1301 889 
Q 1547 409 2034 409 
Q 2525 409 2770 889 
Q 3016 1369 3016 2328 
Q 3016 3291 2770 3770 
Q 2525 4250 2034 4250 
z
M 2034 4750 
Q 2819 4750 3233 4129 
Q 3647 3509 3647 2328 
Q 3647 1150 3233 529 
Q 2819 -91 2034 -91 
Q 1250 -91 836 529 
Q 422 1150 422 2328 
Q 422 3509 836 4129 
Q 1250 4750 2034 4750 
z
" transform="scale(0.015625)"/>
      <path id="DejaVuSans-2e" d="M 684 794 
L 1344 794 
L 1344 0 
L 684 0 
L 684 794 
z
" transform="scale(0.015625)"/>
      <path id="DejaVuSans-37" d="M 525 4666 
L 3525 4666 
L 3525 4397 
L 1831 0 
L 1172 0 
L 2766 4134 
L 525 4134 
L 525 4666 
z
" transform="scale(0.015625)"/>
      <path id="DejaVuSans-36" d="M 2113 2584 
Q 1688 2584 1439 2293 
Q 1191 2003 1191 1497 
Q 1191 994 1439 701 
Q 1688 409 2113 409 
Q 2538 409 2786 701 
Q 3034 994 3034 1497 
Q 3034 2003 2786 2293 
Q 2538 2584 2113 2584 
z
M 3366 4563 
L 3366 3988 
Q 3128 4100 2886 4159 
Q 2644 4219 2406 4219 
Q 1781 4219 1451 3797 
Q 1122 3375 1075 2522 
Q 1259 2794 1537 2939 
Q 1816 3084 2150 3084 
Q 2853 3084 3261 2657 
Q 3669 2231 3669 1497 
Q 3669 778 3244 343 
Q 2819 -91 2113 -91 
Q 1303 -91 875 529 
Q 447 1150 447 2328 
Q 447 3434 972 4092 
Q 1497 4750 2381 4750 
Q 2619 4750 2861 4703 
Q 3103 4656 3366 4563 
z
" transform="scale(0.015625)"/>
     </defs>
     <use xlink:href="#DejaVuSans-30"/>
     <use xlink:href="#DejaVuSans-2e" transform="translate(63.623047 0)"/>
     <use xlink:href="#DejaVuSans-37" transform="translate(95.410156 0)"/>
     <use xlink:href="#DejaVuSans-36" transform="translate(159.033203 0)"/>
    </g>
   </g>
   <g id="text_14">
    <!-- 0.74 -->
    <g style="fill: #1e293b" transform="translate(166.145187 113.557344) scale(0.1 -0.1)">
     <defs>
      <path id="DejaVuSans-34" d="M 2419 4116 
L 825 1625 
L 2419 1625 
L 2419 4116 
z
M 2253 4666 
L 3047 4666 
L 3047 1625 
L 3713 1625 
L 3713 1100 
L 3047 1100 
L 3047 0 
L 2419 0 
L 2419 1100 
L 313 1100 
L 313 1709 
L 2253 4666 
z
" transform="scale(0.015625)"/>
     </defs>
     <use xlink:href="#DejaVuSans-30"/>
     <use xlink:href="#DejaVuSans-2e" transform="translate(63.623047 0)"/>
     <use xlink:href="#DejaVuSans-37" transform="translate(95.410156 0)"/>
     <use xlink:href="#DejaVuSans-34" transform="translate(159.033203 0)"/>
    </g>
   </g>
   <g id="text_15">
    <!-- 0.71 -->
    <g style="fill: #1e293b" transform="translate(166.145187 159.757344) scale(0.1 -0.1)">
     <defs>
      <path id="DejaVuSans-31" d="M 794 531 
L 1825 531 
L 1825 4091 
L 703 3866 
L 703 4441 
L 1819 4666 
L 2450 4666 
L 2450 531 
L 3481 531 
L 3481 0 
L 794 0 
L 794 531 
z
" transform="scale(0.015625)"/>
     </defs>
     <use xlink:href="#DejaVuSans-30"/>
     <use xlink:href="#DejaVuSans-2e" transform="translate(63.623047 0)"/>
     <use xlink:href="#DejaVuSans-37" transform="translate(95.410156 0)"/>
     <use xlink:href="#DejaVuSans-31" transform="translate(159.033203 0)"/>
    </g>
   </g>
   <g id="text_16">
    <!-- 0.78 -->
    <g style="fill: #1e293b" transform="translate(166.145187 205.957344) scale(0.1 -0.1)">
     <defs>
      <path id="DejaVuSans-38" d="M 2034 2216 
Q 1584 2216 1326 1975 
Q 1069 1734 1069 1313 
Q 1069 891 1326 650 
Q 1584 409 2034 409 
Q 2484 409 2743 651 
Q 3003 894 3003 1313 
Q 3003 1734 2745 1975 
Q 2488 2216 2034 2216 
z
M 1403 2484 
Q 997 2584 770 2862 
Q 544 3141 544 3541 
Q 544 4100 942 4425 
Q 1341 4750 2034 4750 
Q 2731 4750 3128 4425 
Q 3525 4100 3525 3541 
Q 3525 3141 3298 2862 
Q 3072 2584 2669 2484 
Q 3125 2378 3379 2068 
Q 3634 1759 3634 1313 
Q 3634 634 3220 271 
Q 2806 -91 2034 -91 
Q 1263 -91 848 271 
Q 434 634 434 1313 
Q 434 1759 690 2068 
Q 947 2378 1403 2484 
z
M 1172 3481 
Q 1172 3119 1398 2916 
Q 1625 2713 2034 2713 
Q 2441 2713 2670 2916 
Q 2900 3119 2900 3481 
Q 2900 3844 2670 4047 
Q 2441 4250 2034 4250 
Q 1625 4250 1398 4047 
Q 1172 3844 1172 3481 
z
" transform="scale(0.015625)"/>
     </defs>
     <use xlink:href="#DejaVuSans-30"/>
     <use xlink:href="#DejaVuSans-2e" transform="translate(63.623047 0)"/>
     <use xlink:href="#DejaVuSans-37" transform="translate(95.410156 0)"/>
     <use xlink:href="#DejaVuSans-38" transform="translate(159.033203 0)"/>
    </g>
   </g>
   <g id="text_17">
    <!-- 0.83 -->
    <g style="fill: #1e293b" transform="translate(166.145187 252.157344) scale(0.1 -0.1)">
     <defs>
      <path id="DejaVuSans-33" d="M 2597 2516 
Q 3050 2419 3304 2112 
Q 3559 1806 3559 1356 
Q 3559 666 3084 287 
Q 2609 -91 1734 -91 
Q 1441 -91 1130 -33 
Q 819 25 488 141 
L 488 750 
Q 750 597 1062 519 
Q 1375 441 1716 441 
Q 2309 441 2620 675 
Q 2931 909 2931 1356 
Q 2931 1769 2642 2001 
Q 2353 2234 1838 2234 
L 1294 2234 
L 1294 2753 
L 1863 2753 
Q 2328 2753 2575 2939 
Q 2822 3125 2822 3475 
Q 2822 3834 2567 4026 
Q 2313 4219 1838 4219 
Q 1578 4219 1281 4162 
Q 984 4106 628 3988 
L 628 4550 
Q 988 4650 1302 4700 
Q 1616 4750 1894 4750 
Q 2613 4750 3031 4423 
Q 3450 4097 3450 3541 
Q 3450 3153 3228 2886 
Q 3006 2619 2597 2516 
z
" transform="scale(0.015625)"/>
     </defs>
     <use xlink:href="#DejaVuSans-30"/>
     <use xlink:href="#DejaVuSans-2e" transform="translate(63.623047 0)"/>
     <use xlink:href="#DejaVuSans-38" transform="translate(95.410156 0)"/>
     <use xlink:href="#DejaVuSans-33" transform="translate(159.033203 0)"/>
    </g>
   </g>
   <g id="text_18">
    <!-- 0.92 -->
    <g style="fill: #1e293b" transform="translate(266.585187 67.357344) scale(0.1 -0.1)">
     <defs>
      <path id="DejaVuSans-39" d="M 703 97 
L 703 672 
Q 941 559 1184 500 
Q 1428 441 1663 441 
Q 2288 441 2617 861 
Q 2947 1281 2994 2138 
Q 2813 1869 2534 1725 
Q 2256 1581 1919 1581 
Q 1219 1581 811 2004 
Q 403 2428 403 3163 
Q 403 3881 828 4315 
Q 1253 4750 1959 4750 
Q 2769 4750 3195 4129 
Q 3622 3509 3622 2328 
Q 3622 1225 3098 567 
Q 2575 -91 1691 -91 
Q 1453 -91 1209 -44 
Q 966 3 703 97 
z
M 1959 2075 
Q 2384 2075 2632 2365 
Q 2881 2656 2881 3163 
Q 2881 3666 2632 3958 
Q 2384 4250 1959 4250 
Q 1534 4250 1286 3958 
Q 1038 3666 1038 3163 
Q 1038 2656 1286 2365 
Q 1534 2075 1959 2075 
z
" transform="scale(0.015625)"/>
      <path id="DejaVuSans-32" d="M 1228 531 
L 3431 531 
L 3431 0 
L 469 0 
L 469 531 
Q 828 903 1448 1529 
Q 2069 2156 2228 2338 
Q 2531 2678 2651 2914 
Q 2772 3150 2772 3378 
Q 2772 3750 2511 3984 
Q 2250 4219 1831 4219 
Q 1534 4219 1204 4116 
Q 875 4013 500 3803 
L 500 4441 
Q 881 4594 1212 4672 
Q 1544 4750 1819 4750 
Q 2544 4750 2975 4387 
Q 3406 4025 3406 3419 
Q 3406 3131 3298 2873 
Q 3191 2616 2906 2266 
Q 2828 2175 2409 1742 
Q 1991 1309 1228 531 
z
" transform="scale(0.015625)"/>
     </defs>
     <use xlink:href="#DejaVuSans-30"/>
     <use xlink:href="#DejaVuSans-2e" transform="translate(63.623047 0)"/>
     <use xlink:href="#DejaVuSans-39" transform="translate(95.410156 0)"/>
     <use xlink:href="#DejaVuSans-32" transform="translate(159.033203 0)"/>
    </g>
   </g>
   <g id="text_19">
    <!-- 0.96 -->
    <g style="fill: #1e293b" transform="translate(266.585187 113.557344) scale(0.1 -0.1)">
     <use xlink:href="#DejaVuSans-30"/>
     <use xlink:href="#DejaVuSans-2e" transform="translate(63.623047 0)"/>
     <use xlink:href="#DejaVuSans-39" transform="translate(95.410156 0)"/>
     <use xlink:href="#DejaVuSans-36" transform="translate(159.033203 0)"/>
    </g>
   </g>
   <g id="text_20">
    <!-- 0.98 -->
    <g style="fill: #1e293b" transform="translate(266.585187 159.757344) scale(0.1 -0.1)">
     <use xlink:href="#DejaVuSans-30"/>
     <use xlink:href="#DejaVuSans-2e" transform="translate(63.623047 0)"/>
     <use xlink:href="#DejaVuSans-39" transform="translate(95.410156 0)"/>
     <use xlink:href="#DejaVuSans-38" transform="translate(159.033203 0)"/>
    </g>
   </g>
   <g id="text_21">
    <!-- 0.96 -->
    <g style="fill: #1e293b" transform="translate(266.585187 205.957344) scale(0.1 -0.1)">
     <use xlink:href="#DejaVuSans-30"/>
     <use xlink:href="#DejaVuSans-2e" transform="translate(63.623047 0)"/>
     <use xlink:href="#DejaVuSans-39" transform="translate(95.410156 0)"/>
     <use xlink:href="#DejaVuSans-36" transform="translate(159.033203 0)"/>
    </g>
   </g>
   <g id="text_22">
    <!-- 0.99 -->
    <g style="fill: #1e293b" transform="translate(266.585187 252.157344) scale(0.1 -0.1)">
     <use xlink:href="#DejaVuSans-30"/>
     <use xlink:href="#DejaVuSans-2e" transform="translate(63.623047 0)"/>
     <use xlink:href="#DejaVuSans-39" transform="translate(95.410156 0)"/>
     <use xlink:href="#DejaVuSans-39" transform="translate(159.033203 0)"/>
    </g>
   </g>
   <g id="text_23">
    <!-- 0.83 -->
    <g style="fill: #1e293b" transform="translate(367.025188 67.357344) scale(0.1 -0.1)">
     <use xlink:href="#DejaVuSans-30"/>
     <use xlink:href="#DejaVuSans-2e" transform="translate(63.623047 0)"/>
     <use xlink:href="#DejaVuSans-38" transform="translate(95.410156 0)"/>
     <use xlink:href="#DejaVuSans-33" transform="translate(159.033203 0)"/>
    </g>
   </g>
   <g id="text_24">
    <!-- 0.71 -->
    <g style="fill: #1e293b" transform="translate(367.025188 113.557344) scale(0.1 -0.1)">
     <use xlink:href="#DejaVuSans-30"/>
     <use xlink:href="#DejaVuSans-2e" transform="translate(63.623047 0)"/>
     <use xlink:href="#DejaVuSans-37" transform="translate(95.410156 0)"/>
     <use xlink:href="#DejaVuSans-31" transform="translate(159.033203 0)"/>
    </g>
   </g>
   <g id="text_25">
    <!-- 0.83 -->
    <g style="fill: #1e293b" transform="translate(367.025188 159.757344) scale(0.1 -0.1)">
     <use xlink:href="#DejaVuSans-30"/>
     <use xlink:href="#DejaVuSans-2e" transform="translate(63.623047 0)"/>
     <use xlink:href="#DejaVuSans-38" transform="translate(95.410156 0)"/>
     <use xlink:href="#DejaVuSans-33" transform="translate(159.033203 0)"/>
    </g>
   </g>
   <g id="text_26">
    <!-- 0.77 -->
    <g style="fill: #1e293b" transform="translate(367.025188 205.957344) scale(0.1 -0.1)">
     <use xlink:href="#DejaVuSans-30"/>
     <use xlink:href="#DejaVuSans-2e" transform="translate(63.623047 0)"/>
     <use xlink:href="#DejaVuSans-37" transform="translate(95.410156 0)"/>
     <use xlink:href="#DejaVuSans-37" transform="translate(159.033203 0)"/>
    </g>
   </g>
   <g id="text_27">
    <!-- 0.9 -->
    <g style="fill: #1e293b" transform="translate(370.206437 252.157344) scale(0.1 -0.1)">
     <use xlink:href="#DejaVuSans-30"/>
     <use xlink:href="#DejaVuSans-2e" transform="translate(63.623047 0)"/>
     <use xlink:href="#DejaVuSans-39" transform="translate(95.410156 0)"/>
    </g>
   </g>
   <g id="text_28">
    <!-- 0.7 -->
    <g style="fill: #1e293b" transform="translate(470.646437 67.357344) scale(0.1 -0.1)">
     <use xlink:href="#DejaVuSans-30"/>
     <use xlink:href="#DejaVuSans-2e" transform="translate(63.623047 0)"/>
     <use xlink:href="#DejaVuSans-37" transform="translate(95.410156 0)"/>
    </g>
   </g>
   <g id="text_29">
    <!-- 0.72 -->
    <g style="fill: #1e293b" transform="translate(467.465187 113.557344) scale(0.1 -0.1)">
     <use xlink:href="#DejaVuSans-30"/>
     <use xlink:href="#DejaVuSans-2e" transform="translate(63.623047 0)"/>
     <use xlink:href="#DejaVuSans-37" transform="translate(95.410156 0)"/>
     <use xlink:href="#DejaVuSans-32" transform="translate(159.033203 0)"/>
    </g>
   </g>
   <g id="text_30">
    <!-- 0.74 -->
    <g style="fill: #1e293b" transform="translate(467.465187 159.757344) scale(0.1 -0.1)">
     <use xlink:href="#DejaVuSans-30"/>
     <use xlink:href="#DejaVuSans-2e" transform="translate(63.623047 0)"/>
     <use xlink:href="#DejaVuSans-37" transform="translate(95.410156 0)"/>
     <use xlink:href="#DejaVuSans-34" transform="translate(159.033203 0)"/>
    </g>
   </g>
   <g id="text_31">
    <!-- 0.72 -->
    <g style="fill: #1e293b" transform="translate(467.465187 205.957344) scale(0.1 -0.1)">
     <use xlink:href="#DejaVuSans-30"/>
     <use xlink:href="#DejaVuSans-2e" transform="translate(63.623047 0)"/>
     <use xlink:href="#DejaVuSans-37" transform="translate(95.410156 0)"/>
     <use xlink:href="#DejaVuSans-32" transform="translate(159.033203 0)"/>
    </g>
   </g>
   <g id="text_32">
    <!-- 0.81 -->
    <g style="fill: #1e293b" transform="translate(467.465187 252.157344) scale(0.1 -0.1)">
     <use xlink:href="#DejaVuSans-30"/>
     <use xlink:href="#DejaVuSans-2e" transform="translate(63.623047 0)"/>
     <use xlink:href="#DejaVuSans-38" transform="translate(95.410156 0)"/>
     <use xlink:href="#DejaVuSans-31" transform="translate(159.033203 0)"/>
    </g>
   </g>
   <g id="text_33">
    <!-- 0.83 -->
    <g style="fill: #1e293b" transform="translate(567.905188 67.357344) scale(0.1 -0.1)">
     <use xlink:href="#DejaVuSans-30"/>
     <use xlink:href="#DejaVuSans-2e" transform="translate(63.623047 0)"/>
     <use xlink:href="#DejaVuSans-38" transform="translate(95.410156 0)"/>
     <use xlink:href="#DejaVuSans-33" transform="translate(159.033203 0)"/>
    </g>
   </g>
   <g id="text_34">
    <!-- 0.83 -->
    <g style="fill: #1e293b" transform="translate(567.905188 113.557344) scale(0.1 -0.1)">
     <use xlink:href="#DejaVuSans-30"/>
     <use xlink:href="#DejaVuSans-2e" transform="translate(63.623047 0)"/>
     <use xlink:href="#DejaVuSans-38" transform="translate(95.410156 0)"/>
     <use xlink:href="#DejaVuSans-33" transform="translate(159.033203 0)"/>
    </g>
   </g>
   <g id="text_35">
    <!-- 0.81 -->
    <g style="fill: #1e293b" transform="translate(567.905188 159.757344) scale(0.1 -0.1)">
     <use xlink:href="#DejaVuSans-30"/>
     <use xlink:href="#DejaVuSans-2e" transform="translate(63.623047 0)"/>
     <use xlink:href="#DejaVuSans-38" transform="translate(95.410156 0)"/>
     <use xlink:href="#DejaVuSans-31" transform="translate(159.033203 0)"/>
    </g>
   </g>
   <g id="text_36">
    <!-- 0.81 -->
    <g style="fill: #1e293b" transform="translate(567.905188 205.957344) scale(0.1 -0.1)">
     <use xlink:href="#DejaVuSans-30"/>
     <use xlink:href="#DejaVuSans-2e" transform="translate(63.623047 0)"/>
     <use xlink:href="#DejaVuSans-38" transform="translate(95.410156 0)"/>
     <use xlink:href="#DejaVuSans-31" transform="translate(159.033203 0)"/>
    </g>
   </g>
   <g id="text_37">
    <!-- 0.74 -->
    <g style="fill: #1e293b" transform="translate(567.905188 252.157344) scale(0.1 -0.1)">
     <use xlink:href="#DejaVuSans-30"/>
     <use xlink:href="#DejaVuSans-2e" transform="translate(63.623047 0)"/>
     <use xlink:href="#DejaVuSans-37" transform="translate(95.410156 0)"/>
     <use xlink:href="#DejaVuSans-34" transform="translate(159.033203 0)"/>
    </g>
   </g>
   <g id="text_38">
    <!-- 0.85 -->
    <g style="fill: #1e293b" transform="translate(668.345187 67.357344) scale(0.1 -0.1)">
     <defs>
      <path id="DejaVuSans-35" d="M 691 4666 
L 3169 4666 
L 3169 4134 
L 1269 4134 
L 1269 2991 
Q 1406 3038 1543 3061 
Q 1681 3084 1819 3084 
Q 2600 3084 3056 2656 
Q 3513 2228 3513 1497 
Q 3513 744 3044 326 
Q 2575 -91 1722 -91 
Q 1428 -91 1123 -41 
Q 819 9 494 109 
L 494 744 
Q 775 591 1075 516 
Q 1375 441 1709 441 
Q 2250 441 2565 725 
Q 2881 1009 2881 1497 
Q 2881 1984 2565 2268 
Q 2250 2553 1709 2553 
Q 1456 2553 1204 2497 
Q 953 2441 691 2322 
L 691 4666 
z
" transform="scale(0.015625)"/>
     </defs>
     <use xlink:href="#DejaVuSans-30"/>
     <use xlink:href="#DejaVuSans-2e" transform="translate(63.623047 0)"/>
     <use xlink:href="#DejaVuSans-38" transform="translate(95.410156 0)"/>
     <use xlink:href="#DejaVuSans-35" transform="translate(159.033203 0)"/>
    </g>
   </g>
   <g id="text_39">
    <!-- 0.86 -->
    <g style="fill: #1e293b" transform="translate(668.345187 113.557344) scale(0.1 -0.1)">
     <use xlink:href="#DejaVuSans-30"/>
     <use xlink:href="#DejaVuSans-2e" transform="translate(63.623047 0)"/>
     <use xlink:href="#DejaVuSans-38" transform="translate(95.410156 0)"/>
     <use xlink:href="#DejaVuSans-36" transform="translate(159.033203 0)"/>
    </g>
   </g>
   <g id="text_40">
    <!-- 0.85 -->
    <g style="fill: #1e293b" transform="translate(668.345187 159.757344) scale(0.1 -0.1)">
     <use xlink:href="#DejaVuSans-30"/>
     <use xlink:href="#DejaVuSans-2e" transform="translate(63.623047 0)"/>
     <use xlink:href="#DejaVuSans-38" transform="translate(95.410156 0)"/>
     <use xlink:href="#DejaVuSans-35" transform="translate(159.033203 0)"/>
    </g>
   </g>
   <g id="text_41">
    <!-- 0.83 -->
    <g style="fill: #1e293b" transform="translate(668.345187 205.957344) scale(0.1 -0.1)">
     <use xlink:href="#DejaVuSans-30"/>
     <use xlink:href="#DejaVuSans-2e" transform="translate(63.623047 0)"/>
     <use xlink:href="#DejaVuSans-38" transform="translate(95.410156 0)"/>
     <use xlink:href="#DejaVuSans-33" transform="translate(159.033203 0)"/>
    </g>
   </g>
   <g id="text_42">
    <!-- 0.85 -->
    <g style="fill: #1e293b" transform="translate(668.345187 252.157344) scale(0.1 -0.1)">
     <use xlink:href="#DejaVuSans-30"/>
     <use xlink:href="#DejaVuSans-2e" transform="translate(63.623047 0)"/>
     <use xlink:href="#DejaVuSans-38" transform="translate(95.410156 0)"/>
     <use xlink:href="#DejaVuSans-35" transform="translate(159.033203 0)"/>
    </g>
   </g>
   <g id="text_43">
    <!-- 0.92 -->
    <g style="fill: #1e293b" transform="translate(768.785188 67.357344) scale(0.1 -0.1)">
     <use xlink:href="#DejaVuSans-30"/>
     <use xlink:href="#DejaVuSans-2e" transform="translate(63.623047 0)"/>
     <use xlink:href="#DejaVuSans-39" transform="translate(95.410156 0)"/>
     <use xlink:href="#DejaVuSans-32" transform="translate(159.033203 0)"/>
    </g>
   </g>
   <g id="text_44">
    <!-- 0.92 -->
    <g style="fill: #1e293b" transform="translate(768.785188 113.557344) scale(0.1 -0.1)">
     <use xlink:href="#DejaVuSans-30"/>
     <use xlink:href="#DejaVuSans-2e" transform="translate(63.623047 0)"/>
     <use xlink:href="#DejaVuSans-39" transform="translate(95.410156 0)"/>
     <use xlink:href="#DejaVuSans-32" transform="translate(159.033203 0)"/>
    </g>
   </g>
   <g id="text_45">
    <!-- 0.91 -->
    <g style="fill: #1e293b" transform="translate(768.785188 159.757344) scale(0.1 -0.1)">
     <use xlink:href="#DejaVuSans-30"/>
     <use xlink:href="#DejaVuSans-2e" transform="translate(63.623047 0)"/>
     <use xlink:href="#DejaVuSans-39" transform="translate(95.410156 0)"/>
     <use xlink:href="#DejaVuSans-31" transform="translate(159.033203 0)"/>
    </g>
   </g>
   <g id="text_46">
    <!-- 0.91 -->
    <g style="fill: #1e293b" transform="translate(768.785188 205.957344) scale(0.1 -0.1)">
     <use xlink:href="#DejaVuSans-30"/>
     <use xlink:href="#DejaVuSans-2e" transform="translate(63.623047 0)"/>
     <use xlink:href="#DejaVuSans-39" transform="translate(95.410156 0)"/>
     <use xlink:href="#DejaVuSans-31" transform="translate(159.033203 0)"/>
    </g>
   </g>
   <g id="text_47">
    <!-- 0.9 -->
    <g style="fill: #1e293b" transform="translate(771.966437 252.157344) scale(0.1 -0.1)">
     <use xlink:href="#DejaVuSans-30"/>
     <use xlink:href="#DejaVuSans-2e" transform="translate(63.623047 0)"/>
     <use xlink:href="#DejaVuSans-39" transform="translate(95.410156 0)"/>
    </g>
   </g>
   <g id="text_48">
    <!-- 0.97 -->
    <g style="fill: #1e293b" transform="translate(869.225187 67.357344) scale(0.1 -0.1)">
     <use xlink:href="#DejaVuSans-30"/>
     <use xlink:href="#DejaVuSans-2e" transform="translate(63.623047 0)"/>
     <use xlink:href="#DejaVuSans-39" transform="translate(95.410156 0)"/>
     <use xlink:href="#DejaVuSans-37" transform="translate(159.033203 0)"/>
    </g>
   </g>
   <g id="text_49">
    <!-- 0.97 -->
    <g style="fill: #1e293b" transform="translate(869.225187 113.557344) scale(0.1 -0.1)">
     <use xlink:href="#DejaVuSans-30"/>
     <use xlink:href="#DejaVuSans-2e" transform="translate(63.623047 0)"/>
     <use xlink:href="#DejaVuSans-39" transform="translate(95.410156 0)"/>
     <use xlink:href="#DejaVuSans-37" transform="translate(159.033203 0)"/>
    </g>
   </g>
   <g id="text_50">
    <!-- 0.97 -->
    <g style="fill: #1e293b" transform="translate(869.225187 159.757344) scale(0.1 -0.1)">
     <use xlink:href="#DejaVuSans-30"/>
     <use xlink:href="#DejaVuSans-2e" transform="translate(63.623047 0)"/>
     <use xlink:href="#DejaVuSans-39" transform="translate(95.410156 0)"/>
     <use xlink:href="#DejaVuSans-37" transform="translate(159.033203 0)"/>
    </g>
   </g>
   <g id="text_51">
    <!-- 0.97 -->
    <g style="fill: #1e293b" transform="translate(869.225187 205.957344) scale(0.1 -0.1)">
     <use xlink:href="#DejaVuSans-30"/>
     <use xlink:href="#DejaVuSans-2e" transform="translate(63.623047 0)"/>
     <use xlink:href="#DejaVuSans-39" transform="translate(95.410156 0)"/>
     <use xlink:href="#DejaVuSans-37" transform="translate(159.033203 0)"/>
    </g>
   </g>
   <g id="text_52">
    <!-- 0.96 -->
    <g style="fill: #1e293b" transform="translate(869.225187 252.157344) scale(0.1 -0.1)">
     <use xlink:href="#DejaVuSans-30"/>
     <use xlink:href="#DejaVuSans-2e" transform="translate(63.623047 0)"/>
     <use xlink:href="#DejaVuSans-39" transform="translate(95.410156 0)"/>
     <use xlink:href="#DejaVuSans-36" transform="translate(159.033203 0)"/>
    </g>
   </g>
   <g id="text_53">
    <!-- 0.82 -->
    <g style="fill: #1e293b" transform="translate(969.665188 67.357344) scale(0.1 -0.1)">
     <use xlink:href="#DejaVuSans-30"/>
     <use xlink:href="#DejaVuSans-2e" transform="translate(63.623047 0)"/>
     <use xlink:href="#DejaVuSans-38" transform="translate(95.410156 0)"/>
     <use xlink:href="#DejaVuSans-32" transform="translate(159.033203 0)"/>
    </g>
   </g>
   <g id="text_54">
    <!-- 0.81 -->
    <g style="fill: #1e293b" transform="translate(969.665188 113.557344) scale(0.1 -0.1)">
     <use xlink:href="#DejaVuSans-30"/>
     <use xlink:href="#DejaVuSans-2e" transform="translate(63.623047 0)"/>
     <use xlink:href="#DejaVuSans-38" transform="translate(95.410156 0)"/>
     <use xlink:href="#DejaVuSans-31" transform="translate(159.033203 0)"/>
    </g>
   </g>
   <g id="text_55">
    <!-- 0.81 -->
    <g style="fill: #1e293b" transform="translate(969.665188 159.757344) scale(0.1 -0.1)">
     <use xlink:href="#DejaVuSans-30"/>
     <use xlink:href="#DejaVuSans-2e" transform="translate(63.623047 0)"/>
     <use xlink:href="#DejaVuSans-38" transform="translate(95.410156 0)"/>
     <use xlink:href="#DejaVuSans-31" transform="translate(159.033203 0)"/>
    </g>
   </g>
   <g id="text_56">
    <!-- 0.81 -->
    <g style="fill: #1e293b" transform="translate(969.665188 205.957344) scale(0.1 -0.1)">
     <use xlink:href="#DejaVuSans-30"/>
     <use xlink:href="#DejaVuSans-2e" transform="translate(63.623047 0)"/>
     <use xlink:href="#DejaVuSans-38" transform="translate(95.410156 0)"/>
     <use xlink:href="#DejaVuSans-31" transform="translate(159.033203 0)"/>
    </g>
   </g>
   <g id="text_57">
    <!-- 0.82 -->
    <g style="fill: #1e293b" transform="translate(969.665188 252.157344) scale(0.1 -0.1)">
     <use xlink:href="#DejaVuSans-30"/>
     <use xlink:href="#DejaVuSans-2e" transform="translate(63.623047 0)"/>
     <use xlink:href="#DejaVuSans-38" transform="translate(95.410156 0)"/>
     <use xlink:href="#DejaVuSans-32" transform="translate(159.033203 0)"/>
    </g>
   </g>
   <g id="text_58">
    <!-- 0.82 -->
    <g style="fill: #1e293b" transform="translate(1070.105188 67.357344) scale(0.1 -0.1)">
     <use xlink:href="#DejaVuSans-30"/>
     <use xlink:href="#DejaVuSans-2e" transform="translate(63.623047 0)"/>
     <use xlink:href="#DejaVuSans-38" transform="translate(95.410156 0)"/>
     <use xlink:href="#DejaVuSans-32" transform="translate(159.033203 0)"/>
    </g>
   </g>
   <g id="text_59">
    <!-- 0.78 -->
    <g style="fill: #1e293b" transform="translate(1070.105188 113.557344) scale(0.1 -0.1)">
     <use xlink:href="#DejaVuSans-30"/>
     <use xlink:href="#DejaVuSans-2e" transform="translate(63.623047 0)"/>
     <use xlink:href="#DejaVuSans-37" transform="translate(95.410156 0)"/>
     <use xlink:href="#DejaVuSans-38" transform="translate(159.033203 0)"/>
    </g>
   </g>
   <g id="text_60">
    <!-- 0.8 -->
    <g style="fill: #1e293b" transform="translate(1073.286438 159.757344) scale(0.1 -0.1)">
     <use xlink:href="#DejaVuSans-30"/>
     <use xlink:href="#DejaVuSans-2e" transform="translate(63.623047 0)"/>
     <use xlink:href="#DejaVuSans-38" transform="translate(95.410156 0)"/>
    </g>
   </g>
   <g id="text_61">
    <!-- 0.74 -->
    <g style="fill: #1e293b" transform="translate(1070.105188 205.957344) scale(0.1 -0.1)">
     <use xlink:href="#DejaVuSans-30"/>
     <use xlink:href="#DejaVuSans-2e" transform="translate(63.623047 0)"/>
     <use xlink:href="#DejaVuSans-37" transform="translate(95.410156 0)"/>
     <use xlink:href="#DejaVuSans-34" transform="translate(159.033203 0)"/>
    </g>
   </g>
   <g id="text_62">
    <!-- 0.74 -->
    <g style="fill: #1e293b" transform="translate(1070.105188 252.157344) scale(0.1 -0.1)">
     <use xlink:href="#DejaVuSans-30"/>
     <use xlink:href="#DejaVuSans-2e" transform="translate(63.623047 0)"/>
     <use xlink:href="#DejaVuSans-37" transform="translate(95.410156 0)"/>
     <use xlink:href="#DejaVuSans-34" transform="translate(159.033203 0)"/>
    </g>
   </g>
   <g id="text_63">
    <!-- 0.72 -->
    <g style="fill: #1e293b" transform="translate(1170.545187 67.357344) scale(0.1 -0.1)">
     <use xlink:href="#DejaVuSans-30"/>
     <use xlink:href="#DejaVuSans-2e" transform="translate(63.623047 0)"/>
     <use xlink:href="#DejaVuSans-37" transform="translate(95.410156 0)"/>
     <use xlink:href="#DejaVuSans-32" transform="translate(159.033203 0)"/>
    </g>
   </g>
   <g id="text_64">
    <!-- 0.71 -->
    <g style="fill: #1e293b" transform="translate(1170.545187 113.557344) scale(0.1 -0.1)">
     <use xlink:href="#DejaVuSans-30"/>
     <use xlink:href="#DejaVuSans-2e" transform="translate(63.623047 0)"/>
     <use xlink:href="#DejaVuSans-37" transform="translate(95.410156 0)"/>
     <use xlink:href="#DejaVuSans-31" transform="translate(159.033203 0)"/>
    </g>
   </g>
   <g id="text_65">
    <!-- 0.72 -->
    <g style="fill: #1e293b" transform="translate(1170.545187 159.757344) scale(0.1 -0.1)">
     <use xlink:href="#DejaVuSans-30"/>
     <use xlink:href="#DejaVuSans-2e" transform="translate(63.623047 0)"/>
     <use xlink:href="#DejaVuSans-37" transform="translate(95.410156 0)"/>
     <use xlink:href="#DejaVuSans-32" transform="translate(159.033203 0)"/>
    </g>
   </g>
   <g id="text_66">
    <!-- 0.67 -->
    <g style="fill: #1e293b" transform="translate(1170.545187 205.957344) scale(0.1 -0.1)">
     <use xlink:href="#DejaVuSans-30"/>
     <use xlink:href="#DejaVuSans-2e" transform="translate(63.623047 0)"/>
     <use xlink:href="#DejaVuSans-36" transform="translate(95.410156 0)"/>
     <use xlink:href="#DejaVuSans-37" transform="translate(159.033203 0)"/>
    </g>
   </g>
   <g id="text_67">
    <!-- 0.72 -->
    <g style="fill: #1e293b" transform="translate(1170.545187 252.157344) scale(0.1 -0.1)">
     <use xlink:href="#DejaVuSans-30"/>
     <use xlink:href="#DejaVuSans-2e" transform="translate(63.623047 0)"/>
     <use xlink:href="#DejaVuSans-37" transform="translate(95.410156 0)"/>
     <use xlink:href="#DejaVuSans-32" transform="translate(159.033203 0)"/>
    </g>
   </g>
   <g id="text_68">
    <!-- 0.790 -->
    <g style="fill: #4f46e5" transform="translate(1266.303156 67.357344) scale(0.1 -0.1)">
     <defs>
      <path id="DejaVuSans-Bold-30" d="M 2944 2338 
Q 2944 3213 2780 3570 
Q 2616 3928 2228 3928 
Q 1841 3928 1675 3570 
Q 1509 3213 1509 2338 
Q 1509 1453 1675 1090 
Q 1841 728 2228 728 
Q 2613 728 2778 1090 
Q 2944 1453 2944 2338 
z
M 4147 2328 
Q 4147 1169 3647 539 
Q 3147 -91 2228 -91 
Q 1306 -91 806 539 
Q 306 1169 306 2328 
Q 306 3491 806 4120 
Q 1306 4750 2228 4750 
Q 3147 4750 3647 4120 
Q 4147 3491 4147 2328 
z
" transform="scale(0.015625)"/>
      <path id="DejaVuSans-Bold-2e" d="M 653 1209 
L 1778 1209 
L 1778 0 
L 653 0 
L 653 1209 
z
" transform="scale(0.015625)"/>
      <path id="DejaVuSans-Bold-39" d="M 641 103 
L 641 966 
Q 928 831 1190 764 
Q 1453 697 1709 697 
Q 2247 697 2547 995 
Q 2847 1294 2900 1881 
Q 2688 1725 2447 1647 
Q 2206 1569 1925 1569 
Q 1209 1569 770 1986 
Q 331 2403 331 3084 
Q 331 3838 820 4291 
Q 1309 4744 2131 4744 
Q 3044 4744 3544 4128 
Q 4044 3513 4044 2388 
Q 4044 1231 3459 570 
Q 2875 -91 1856 -91 
Q 1528 -91 1228 -42 
Q 928 6 641 103 
z
M 2125 2350 
Q 2441 2350 2600 2554 
Q 2759 2759 2759 3169 
Q 2759 3575 2600 3781 
Q 2441 3988 2125 3988 
Q 1809 3988 1650 3781 
Q 1491 3575 1491 3169 
Q 1491 2759 1650 2554 
Q 1809 2350 2125 2350 
z
" transform="scale(0.015625)"/>
     </defs>
     <use xlink:href="#DejaVuSans-Bold-30"/>
     <use xlink:href="#DejaVuSans-Bold-2e" transform="translate(69.580078 0)"/>
     <use xlink:href="#DejaVuSans-Bold-37" transform="translate(107.568359 0)"/>
     <use xlink:href="#DejaVuSans-Bold-39" transform="translate(177.148438 0)"/>
     <use xlink:href="#DejaVuSans-Bold-30" transform="translate(246.728516 0)"/>
    </g>
   </g>
   <g id="text_69">
    <!-- 0.783 -->
    <g style="fill: #4f46e5" transform="translate(1266.303156 113.557344) scale(0.1 -0.1)">
     <defs>
      <path id="DejaVuSans-Bold-38" d="M 2228 2088 
Q 1891 2088 1709 1903 
Q 1528 1719 1528 1375 
Q 1528 1031 1709 848 
Q 1891 666 2228 666 
Q 2563 666 2741 848 
Q 2919 1031 2919 1375 
Q 2919 1722 2741 1905 
Q 2563 2088 2228 2088 
z
M 1350 2484 
Q 925 2613 709 2878 
Q 494 3144 494 3541 
Q 494 4131 934 4440 
Q 1375 4750 2228 4750 
Q 3075 4750 3515 4442 
Q 3956 4134 3956 3541 
Q 3956 3144 3739 2878 
Q 3522 2613 3097 2484 
Q 3572 2353 3814 2058 
Q 4056 1763 4056 1313 
Q 4056 619 3595 264 
Q 3134 -91 2228 -91 
Q 1319 -91 855 264 
Q 391 619 391 1313 
Q 391 1763 633 2058 
Q 875 2353 1350 2484 
z
M 1631 3419 
Q 1631 3141 1786 2991 
Q 1941 2841 2228 2841 
Q 2509 2841 2662 2991 
Q 2816 3141 2816 3419 
Q 2816 3697 2662 3845 
Q 2509 3994 2228 3994 
Q 1941 3994 1786 3844 
Q 1631 3694 1631 3419 
z
" transform="scale(0.015625)"/>
     </defs>
     <use xlink:href="#DejaVuSans-Bold-30"/>
     <use xlink:href="#DejaVuSans-Bold-2e" transform="translate(69.580078 0)"/>
     <use xlink:href="#DejaVuSans-Bold-37" transform="translate(107.568359 0)"/>
     <use xlink:href="#DejaVuSans-Bold-38" transform="translate(177.148438 0)"/>
     <use xlink:href="#DejaVuSans-Bold-33" transform="translate(246.728516 0)"/>
    </g>
   </g>
   <g id="text_70">
    <!-- 0.780 -->
    <g style="fill: #4f46e5" transform="translate(1266.303156 159.757344) scale(0.1 -0.1)">
     <use xlink:href="#DejaVuSans-Bold-30"/>
     <use xlink:href="#DejaVuSans-Bold-2e" transform="translate(69.580078 0)"/>
     <use xlink:href="#DejaVuSans-Bold-37" transform="translate(107.568359 0)"/>
     <use xlink:href="#DejaVuSans-Bold-38" transform="translate(177.148438 0)"/>
     <use xlink:href="#DejaVuSans-Bold-30" transform="translate(246.728516 0)"/>
    </g>
   </g>
   <g id="text_71">
    <!-- 0.763 -->
    <g style="fill: #4f46e5" transform="translate(1266.303156 205.957344) scale(0.1 -0.1)">
     <defs>
      <path id="DejaVuSans-Bold-36" d="M 2316 2303 
Q 2000 2303 1842 2098 
Q 1684 1894 1684 1484 
Q 1684 1075 1842 870 
Q 2000 666 2316 666 
Q 2634 666 2792 870 
Q 2950 1075 2950 1484 
Q 2950 1894 2792 2098 
Q 2634 2303 2316 2303 
z
M 3803 4544 
L 3803 3681 
Q 3506 3822 3243 3889 
Q 2981 3956 2731 3956 
Q 2194 3956 1894 3657 
Q 1594 3359 1544 2772 
Q 1750 2925 1990 3001 
Q 2231 3078 2516 3078 
Q 3231 3078 3670 2659 
Q 4109 2241 4109 1563 
Q 4109 813 3618 361 
Q 3128 -91 2303 -91 
Q 1394 -91 895 523 
Q 397 1138 397 2266 
Q 397 3422 980 4083 
Q 1563 4744 2578 4744 
Q 2900 4744 3203 4694 
Q 3506 4644 3803 4544 
z
" transform="scale(0.015625)"/>
     </defs>
     <use xlink:href="#DejaVuSans-Bold-30"/>
     <use xlink:href="#DejaVuSans-Bold-2e" transform="translate(69.580078 0)"/>
     <use xlink:href="#DejaVuSans-Bold-37" transform="translate(107.568359 0)"/>
     <use xlink:href="#DejaVuSans-Bold-36" transform="translate(177.148438 0)"/>
     <use xlink:href="#DejaVuSans-Bold-33" transform="translate(246.728516 0)"/>
    </g>
   </g>
   <g id="text_72">
    <!-- 0.760 -->
    <g style="fill: #4f46e5" transform="translate(1266.303156 252.157344) scale(0.1 -0.1)">
     <use xlink:href="#DejaVuSans-Bold-30"/>
     <use xlink:href="#DejaVuSans-Bold-2e" transform="translate(69.580078 0)"/>
     <use xlink:href="#DejaVuSans-Bold-37" transform="translate(107.568359 0)"/>
     <use xlink:href="#DejaVuSans-Bold-36" transform="translate(177.148438 0)"/>
     <use xlink:href="#DejaVuSans-Bold-30" transform="translate(246.728516 0)"/>
    </g>
   </g>
   <g id="text_73">
    <!-- VoCo-H -->
    <g style="fill: #334155" transform="translate(62.10375 67.633281) scale(0.11 -0.11)">
     <defs>
      <path id="DejaVuSans-Bold-48" d="M 588 4666 
L 1791 4666 
L 1791 2888 
L 3566 2888 
L 3566 4666 
L 4769 4666 
L 4769 0 
L 3566 0 
L 3566 1978 
L 1791 1978 
L 1791 0 
L 588 0 
L 588 4666 
z
" transform="scale(0.015625)"/>
     </defs>
     <use xlink:href="#DejaVuSans-Bold-56"/>
     <use xlink:href="#DejaVuSans-Bold-6f" transform="translate(71.892578 0)"/>
     <use xlink:href="#DejaVuSans-Bold-43" transform="translate(140.59375 0)"/>
     <use xlink:href="#DejaVuSans-Bold-6f" transform="translate(213.982422 0)"/>
     <use xlink:href="#DejaVuSans-Bold-2d" transform="translate(282.683594 0)"/>
     <use xlink:href="#DejaVuSans-Bold-48" transform="translate(324.1875 0)"/>
    </g>
   </g>
   <g id="text_74">
    <!-- VoCo-B -->
    <g style="fill: #334155" transform="translate(62.925312 113.833281) scale(0.11 -0.11)">
     <use xlink:href="#DejaVuSans-Bold-56"/>
     <use xlink:href="#DejaVuSans-Bold-6f" transform="translate(71.892578 0)"/>
     <use xlink:href="#DejaVuSans-Bold-43" transform="translate(140.59375 0)"/>
     <use xlink:href="#DejaVuSans-Bold-6f" transform="translate(213.982422 0)"/>
     <use xlink:href="#DejaVuSans-Bold-2d" transform="translate(282.683594 0)"/>
     <use xlink:href="#DejaVuSans-Bold-42" transform="translate(324.1875 0)"/>
    </g>
   </g>
   <g id="text_75">
    <!-- SuPreM -->
    <g style="fill: #334155" transform="translate(59.322812 160.033281) scale(0.11 -0.11)">
     <use xlink:href="#DejaVuSans-Bold-53"/>
     <use xlink:href="#DejaVuSans-Bold-75" transform="translate(72.021484 0)"/>
     <use xlink:href="#DejaVuSans-Bold-50" transform="translate(143.212891 0)"/>
     <use xlink:href="#DejaVuSans-Bold-72" transform="translate(216.503906 0)"/>
     <use xlink:href="#DejaVuSans-Bold-65" transform="translate(265.820312 0)"/>
     <use xlink:href="#DejaVuSans-Bold-4d" transform="translate(333.642578 0)"/>
    </g>
   </g>
   <g id="text_76">
    <!-- Universal Model -->
    <g style="fill: #334155" transform="translate(7.2 206.233281) scale(0.11 -0.11)">
     <defs>
      <path id="DejaVuSans-Bold-55" d="M 588 4666 
L 1791 4666 
L 1791 1869 
Q 1791 1291 1980 1042 
Q 2169 794 2597 794 
Q 3028 794 3217 1042 
Q 3406 1291 3406 1869 
L 3406 4666 
L 4609 4666 
L 4609 1869 
Q 4609 878 4112 393 
Q 3616 -91 2597 -91 
Q 1581 -91 1084 393 
Q 588 878 588 1869 
L 588 4666 
z
" transform="scale(0.015625)"/>
     </defs>
     <use xlink:href="#DejaVuSans-Bold-55"/>
     <use xlink:href="#DejaVuSans-Bold-6e" transform="translate(81.201172 0)"/>
     <use xlink:href="#DejaVuSans-Bold-69" transform="translate(152.392578 0)"/>
     <use xlink:href="#DejaVuSans-Bold-76" transform="translate(186.669922 0)"/>
     <use xlink:href="#DejaVuSans-Bold-65" transform="translate(251.855469 0)"/>
     <use xlink:href="#DejaVuSans-Bold-72" transform="translate(319.677734 0)"/>
     <use xlink:href="#DejaVuSans-Bold-73" transform="translate(368.994141 0)"/>
     <use xlink:href="#DejaVuSans-Bold-61" transform="translate(428.515625 0)"/>
     <use xlink:href="#DejaVuSans-Bold-6c" transform="translate(495.996094 0)"/>
     <use xlink:href="#DejaVuSans-Bold-20" transform="translate(530.273438 0)"/>
     <use xlink:href="#DejaVuSans-Bold-4d" transform="translate(565.087891 0)"/>
     <use xlink:href="#DejaVuSans-Bold-6f" transform="translate(664.599609 0)"/>
     <use xlink:href="#DejaVuSans-Bold-64" transform="translate(733.300781 0)"/>
     <use xlink:href="#DejaVuSans-Bold-65" transform="translate(804.882812 0)"/>
     <use xlink:href="#DejaVuSans-Bold-6c" transform="translate(872.705078 0)"/>
    </g>
   </g>
   <g id="text_77">
    <!-- SwinUNETR -->
    <g style="fill: #334155" transform="translate(35.657344 252.433281) scale(0.11 -0.11)">
     <defs>
      <path id="DejaVuSans-Bold-4e" d="M 588 4666 
L 1931 4666 
L 3628 1466 
L 3628 4666 
L 4769 4666 
L 4769 0 
L 3425 0 
L 1728 3200 
L 1728 0 
L 588 0 
L 588 4666 
z
" transform="scale(0.015625)"/>
      <path id="DejaVuSans-Bold-45" d="M 588 4666 
L 3834 4666 
L 3834 3756 
L 1791 3756 
L 1791 2888 
L 3713 2888 
L 3713 1978 
L 1791 1978 
L 1791 909 
L 3903 909 
L 3903 0 
L 588 0 
L 588 4666 
z
" transform="scale(0.015625)"/>
      <path id="DejaVuSans-Bold-52" d="M 2297 2597 
Q 2675 2597 2839 2737 
Q 3003 2878 3003 3200 
Q 3003 3519 2839 3656 
Q 2675 3794 2297 3794 
L 1791 3794 
L 1791 2597 
L 2297 2597 
z
M 1791 1766 
L 1791 0 
L 588 0 
L 588 4666 
L 2425 4666 
Q 3347 4666 3776 4356 
Q 4206 4047 4206 3378 
Q 4206 2916 3982 2619 
Q 3759 2322 3309 2181 
Q 3556 2125 3751 1926 
Q 3947 1728 4147 1325 
L 4800 0 
L 3519 0 
L 2950 1159 
Q 2778 1509 2601 1637 
Q 2425 1766 2131 1766 
L 1791 1766 
z
" transform="scale(0.015625)"/>
     </defs>
     <use xlink:href="#DejaVuSans-Bold-53"/>
     <use xlink:href="#DejaVuSans-Bold-77" transform="translate(72.021484 0)"/>
     <use xlink:href="#DejaVuSans-Bold-69" transform="translate(164.404297 0)"/>
     <use xlink:href="#DejaVuSans-Bold-6e" transform="translate(198.681641 0)"/>
     <use xlink:href="#DejaVuSans-Bold-55" transform="translate(269.873047 0)"/>
     <use xlink:href="#DejaVuSans-Bold-4e" transform="translate(351.074219 0)"/>
     <use xlink:href="#DejaVuSans-Bold-45" transform="translate(434.765625 0)"/>
     <use xlink:href="#DejaVuSans-Bold-54" transform="translate(503.076172 0)"/>
     <use xlink:href="#DejaVuSans-Bold-52" transform="translate(571.289062 0)"/>
    </g>
   </g>
  </g>
 </g>
 <defs>
  <clipPath id="pb1ef06175d">
   <rect x="127.058" y="27.637969" width="1205.28" height="249.48"/>
  </clipPath>
 </defs>
</svg>
