<?xml version="1.0" encoding="utf-8" standalone="no"?>
<!DOCTYPE svg PUBLIC "-//W3C//DTD SVG 1.1//EN"
  "http://www.w3.org/Graphics/SVG/1.1/DTD/svg11.dtd">
<svg xmlns:xlink="http://www.w3.org/1999/xlink" width="653.590625pt" height="329.201651pt" viewBox="0 0 653.590625 329.201651" xmlns="http://www.w3.org/2000/svg" version="1.1">
 <metadata>
  <rdf:RDF xmlns:dc="http://purl.org/dc/elements/1.1/" xmlns:cc="http://creativecommons.org/ns#" xmlns:rdf="http://www.w3.org/1999/02/22-rdf-syntax-ns#">
   <cc:Work>
    <dc:type rdf:resource="http://purl.org/dc/dcmitype/StillImage"/>
    <dc:date>2024-09-11T15:30:35.150023</dc:date>
    <dc:format>image/svg+xml</dc:format>
    <dc:creator>
     <cc:Agent>
      <dc:title>Matplotlib v3.9.0, https://matplotlib.org/</dc:title>
     </cc:Agent>
    </dc:creator>
   </cc:Work>
  </rdf:RDF>
 </metadata>
 <defs>
  <style type="text/css">*{stroke-linejoin: round; stroke-linecap: butt}</style>
 </defs>
 <g id="figure_1">
  <g id="patch_1">
   <path d="M 0 329.201651 
L 653.590625 329.201651 
L 653.590625 0 
L 0 0 
z
" style="fill: #ffffff"/>
  </g>
  <g id="axes_1">
   <g id="patch_2">
    <path d="M 199.990625 322.001651 
L 646.390625 322.001651 
L 646.390625 44.801651 
L 199.990625 44.801651 
z
" style="fill: #ffffff"/>
   </g>
   <g id="QuadMesh_1">
    <path d="M 199.990625 44.801651 
L 255.790625 44.801651 
L 255.790625 79.451651 
L 199.990625 79.451651 
L 199.990625 44.801651 
" clip-path="url(#p08d9e31654)" style="fill: #0000ff"/>
    <path d="M 255.790625 44.801651 
L 311.590625 44.801651 
L 311.590625 79.451651 
L 255.790625 79.451651 
L 255.790625 44.801651 
" clip-path="url(#p08d9e31654)" style="fill: #4a4aff"/>
    <path d="M 311.590625 44.801651 
L 367.390625 44.801651 
L 367.390625 79.451651 
L 311.590625 79.451651 
L 311.590625 44.801651 
" clip-path="url(#p08d9e31654)" style="fill: #4848ff"/>
    <path d="M 367.390625 44.801651 
L 423.190625 44.801651 
L 423.190625 79.451651 
L 367.390625 79.451651 
L 367.390625 44.801651 
" clip-path="url(#p08d9e31654)" style="fill: #5858ff"/>
    <path d="M 423.190625 44.801651 
L 478.990625 44.801651 
L 478.990625 79.451651 
L 423.190625 79.451651 
L 423.190625 44.801651 
" clip-path="url(#p08d9e31654)" style="fill: #0707ff"/>
    <path d="M 478.990625 44.801651 
L 534.790625 44.801651 
L 534.790625 79.451651 
L 478.990625 79.451651 
L 478.990625 44.801651 
" clip-path="url(#p08d9e31654)" style="fill: #7d7dff"/>
    <path d="M 534.790625 44.801651 
L 590.590625 44.801651 
L 590.590625 79.451651 
L 534.790625 79.451651 
L 534.790625 44.801651 
" clip-path="url(#p08d9e31654)" style="fill: #0000ff"/>
    <path d="M 590.590625 44.801651 
L 646.390625 44.801651 
L 646.390625 79.451651 
L 590.590625 79.451651 
L 590.590625 44.801651 
" clip-path="url(#p08d9e31654)" style="fill: #0000ff"/>
    <path d="M 199.990625 79.451651 
L 255.790625 79.451651 
L 255.790625 114.101651 
L 199.990625 114.101651 
L 199.990625 79.451651 
" clip-path="url(#p08d9e31654)" style="fill: #0808ff"/>
    <path d="M 255.790625 79.451651 
L 311.590625 79.451651 
L 311.590625 114.101651 
L 255.790625 114.101651 
L 255.790625 79.451651 
" clip-path="url(#p08d9e31654)" style="fill: #ffffff"/>
    <path d="M 311.590625 79.451651 
L 367.390625 79.451651 
L 367.390625 114.101651 
L 311.590625 114.101651 
L 311.590625 79.451651 
" clip-path="url(#p08d9e31654)" style="fill: #3131ff"/>
    <path d="M 367.390625 79.451651 
L 423.190625 79.451651 
L 423.190625 114.101651 
L 367.390625 114.101651 
L 367.390625 79.451651 
" clip-path="url(#p08d9e31654)" style="fill: #9d9dff"/>
    <path d="M 423.190625 79.451651 
L 478.990625 79.451651 
L 478.990625 114.101651 
L 423.190625 114.101651 
L 423.190625 79.451651 
" clip-path="url(#p08d9e31654)" style="fill: #0000ff"/>
    <path d="M 478.990625 79.451651 
L 534.790625 79.451651 
L 534.790625 114.101651 
L 478.990625 114.101651 
L 478.990625 79.451651 
" clip-path="url(#p08d9e31654)" style="fill: #5151ff"/>
    <path d="M 534.790625 79.451651 
L 590.590625 79.451651 
L 590.590625 114.101651 
L 534.790625 114.101651 
L 534.790625 79.451651 
" clip-path="url(#p08d9e31654)" style="fill: #3c3cff"/>
    <path d="M 590.590625 79.451651 
L 646.390625 79.451651 
L 646.390625 114.101651 
L 590.590625 114.101651 
L 590.590625 79.451651 
" clip-path="url(#p08d9e31654)" style="fill: #8d8dff"/>
    <path d="M 199.990625 114.101651 
L 255.790625 114.101651 
L 255.790625 148.751651 
L 199.990625 148.751651 
L 199.990625 114.101651 
" clip-path="url(#p08d9e31654)" style="fill: #7575ff"/>
    <path d="M 255.790625 114.101651 
L 311.590625 114.101651 
L 311.590625 148.751651 
L 255.790625 148.751651 
L 255.790625 114.101651 
" clip-path="url(#p08d9e31654)" style="fill: #6060ff"/>
    <path d="M 311.590625 114.101651 
L 367.390625 114.101651 
L 367.390625 148.751651 
L 311.590625 148.751651 
L 311.590625 114.101651 
" clip-path="url(#p08d9e31654)" style="fill: #0b0bff"/>
    <path d="M 367.390625 114.101651 
L 423.190625 114.101651 
L 423.190625 148.751651 
L 367.390625 148.751651 
L 367.390625 114.101651 
" clip-path="url(#p08d9e31654)" style="fill: #0000ff"/>
    <path d="M 423.190625 114.101651 
L 478.990625 114.101651 
L 478.990625 148.751651 
L 423.190625 148.751651 
L 423.190625 114.101651 
" clip-path="url(#p08d9e31654)" style="fill: #1c1cff"/>
    <path d="M 478.990625 114.101651 
L 534.790625 114.101651 
L 534.790625 148.751651 
L 478.990625 148.751651 
L 478.990625 114.101651 
" clip-path="url(#p08d9e31654)" style="fill: #3636ff"/>
    <path d="M 534.790625 114.101651 
L 590.590625 114.101651 
L 590.590625 148.751651 
L 534.790625 148.751651 
L 534.790625 114.101651 
" clip-path="url(#p08d9e31654)" style="fill: #6d6dff"/>
    <path d="M 590.590625 114.101651 
L 646.390625 114.101651 
L 646.390625 148.751651 
L 590.590625 148.751651 
L 590.590625 114.101651 
" clip-path="url(#p08d9e31654)" style="fill: #c4c4ff"/>
    <path d="M 199.990625 148.751651 
L 255.790625 148.751651 
L 255.790625 183.401651 
L 199.990625 183.401651 
L 199.990625 148.751651 
" clip-path="url(#p08d9e31654)" style="fill: #2323ff"/>
    <path d="M 255.790625 148.751651 
L 311.590625 148.751651 
L 311.590625 183.401651 
L 255.790625 183.401651 
L 255.790625 148.751651 
" clip-path="url(#p08d9e31654)" style="fill: #0000ff"/>
    <path d="M 311.590625 148.751651 
L 367.390625 148.751651 
L 367.390625 183.401651 
L 311.590625 183.401651 
L 311.590625 148.751651 
" clip-path="url(#p08d9e31654)" style="fill: #0000ff"/>
    <path d="M 367.390625 148.751651 
L 423.190625 148.751651 
L 423.190625 183.401651 
L 367.390625 183.401651 
L 367.390625 148.751651 
" clip-path="url(#p08d9e31654)" style="fill: #a2a2ff"/>
    <path d="M 423.190625 148.751651 
L 478.990625 148.751651 
L 478.990625 183.401651 
L 423.190625 183.401651 
L 423.190625 148.751651 
" clip-path="url(#p08d9e31654)" style="fill: #b1b1ff"/>
    <path d="M 478.990625 148.751651 
L 534.790625 148.751651 
L 534.790625 183.401651 
L 478.990625 183.401651 
L 478.990625 148.751651 
" clip-path="url(#p08d9e31654)" style="fill: #a8a8ff"/>
    <path d="M 534.790625 148.751651 
L 590.590625 148.751651 
L 590.590625 183.401651 
L 534.790625 183.401651 
L 534.790625 148.751651 
" clip-path="url(#p08d9e31654)" style="fill: #b3b3ff"/>
    <path d="M 590.590625 148.751651 
L 646.390625 148.751651 
L 646.390625 183.401651 
L 590.590625 183.401651 
L 590.590625 148.751651 
" clip-path="url(#p08d9e31654)" style="fill: #cbcbff"/>
    <path d="M 199.990625 183.401651 
L 255.790625 183.401651 
L 255.790625 218.051651 
L 199.990625 218.051651 
L 199.990625 183.401651 
" clip-path="url(#p08d9e31654)" style="fill: #4646ff"/>
    <path d="M 255.790625 183.401651 
L 311.590625 183.401651 
L 311.590625 218.051651 
L 255.790625 218.051651 
L 255.790625 183.401651 
" clip-path="url(#p08d9e31654)" style="fill: #7575ff"/>
    <path d="M 311.590625 183.401651 
L 367.390625 183.401651 
L 367.390625 218.051651 
L 311.590625 218.051651 
L 311.590625 183.401651 
" clip-path="url(#p08d9e31654)" style="fill: #2525ff"/>
    <path d="M 367.390625 183.401651 
L 423.190625 183.401651 
L 423.190625 218.051651 
L 367.390625 218.051651 
L 367.390625 183.401651 
" clip-path="url(#p08d9e31654)" style="fill: #ffffff"/>
    <path d="M 423.190625 183.401651 
L 478.990625 183.401651 
L 478.990625 218.051651 
L 423.190625 218.051651 
L 423.190625 183.401651 
" clip-path="url(#p08d9e31654)" style="fill: #dcdcff"/>
    <path d="M 478.990625 183.401651 
L 534.790625 183.401651 
L 534.790625 218.051651 
L 478.990625 218.051651 
L 478.990625 183.401651 
" clip-path="url(#p08d9e31654)" style="fill: #eaeaff"/>
    <path d="M 534.790625 183.401651 
L 590.590625 183.401651 
L 590.590625 218.051651 
L 534.790625 218.051651 
L 534.790625 183.401651 
" clip-path="url(#p08d9e31654)" style="fill: #5858ff"/>
    <path d="M 590.590625 183.401651 
L 646.390625 183.401651 
L 646.390625 218.051651 
L 590.590625 218.051651 
L 590.590625 183.401651 
" clip-path="url(#p08d9e31654)" style="fill: #6464ff"/>
    <path d="M 199.990625 218.051651 
L 255.790625 218.051651 
L 255.790625 252.701651 
L 199.990625 252.701651 
L 199.990625 218.051651 
" clip-path="url(#p08d9e31654)" style="fill: #7070ff"/>
    <path d="M 255.790625 218.051651 
L 311.590625 218.051651 
L 311.590625 252.701651 
L 255.790625 252.701651 
L 255.790625 218.051651 
" clip-path="url(#p08d9e31654)" style="fill: #6a6aff"/>
    <path d="M 311.590625 218.051651 
L 367.390625 218.051651 
L 367.390625 252.701651 
L 311.590625 252.701651 
L 311.590625 218.051651 
" clip-path="url(#p08d9e31654)" style="fill: #1717ff"/>
    <path d="M 367.390625 218.051651 
L 423.190625 218.051651 
L 423.190625 252.701651 
L 367.390625 252.701651 
L 367.390625 218.051651 
" clip-path="url(#p08d9e31654)" style="fill: #b6b6ff"/>
    <path d="M 423.190625 218.051651 
L 478.990625 218.051651 
L 478.990625 252.701651 
L 423.190625 252.701651 
L 423.190625 218.051651 
" clip-path="url(#p08d9e31654)" style="fill: #9c9cff"/>
    <path d="M 478.990625 218.051651 
L 534.790625 218.051651 
L 534.790625 252.701651 
L 478.990625 252.701651 
L 478.990625 218.051651 
" clip-path="url(#p08d9e31654)" style="fill: #4c4cff"/>
    <path d="M 534.790625 218.051651 
L 590.590625 218.051651 
L 590.590625 252.701651 
L 534.790625 252.701651 
L 534.790625 218.051651 
" clip-path="url(#p08d9e31654)" style="fill: #ffffff"/>
    <path d="M 590.590625 218.051651 
L 646.390625 218.051651 
L 646.390625 252.701651 
L 590.590625 252.701651 
L 590.590625 218.051651 
" clip-path="url(#p08d9e31654)" style="fill: #c9c9ff"/>
    <path d="M 199.990625 252.701651 
L 255.790625 252.701651 
L 255.790625 287.351651 
L 199.990625 287.351651 
L 199.990625 252.701651 
" clip-path="url(#p08d9e31654)" style="fill: #ffffff"/>
    <path d="M 255.790625 252.701651 
L 311.590625 252.701651 
L 311.590625 287.351651 
L 255.790625 287.351651 
L 255.790625 252.701651 
" clip-path="url(#p08d9e31654)" style="fill: #b5b5ff"/>
    <path d="M 311.590625 252.701651 
L 367.390625 252.701651 
L 367.390625 287.351651 
L 311.590625 287.351651 
L 311.590625 252.701651 
" clip-path="url(#p08d9e31654)" style="fill: #d4d4ff"/>
    <path d="M 367.390625 252.701651 
L 423.190625 252.701651 
L 423.190625 287.351651 
L 367.390625 287.351651 
L 367.390625 252.701651 
" clip-path="url(#p08d9e31654)" style="fill: #4444ff"/>
    <path d="M 423.190625 252.701651 
L 478.990625 252.701651 
L 478.990625 287.351651 
L 423.190625 287.351651 
L 423.190625 252.701651 
" clip-path="url(#p08d9e31654)" style="fill: #dcdcff"/>
    <path d="M 478.990625 252.701651 
L 534.790625 252.701651 
L 534.790625 287.351651 
L 478.990625 287.351651 
L 478.990625 252.701651 
" clip-path="url(#p08d9e31654)" style="fill: #0000ff"/>
    <path d="M 534.790625 252.701651 
L 590.590625 252.701651 
L 590.590625 287.351651 
L 534.790625 287.351651 
L 534.790625 252.701651 
" clip-path="url(#p08d9e31654)" style="fill: #4f4fff"/>
    <path d="M 590.590625 252.701651 
L 646.390625 252.701651 
L 646.390625 287.351651 
L 590.590625 287.351651 
L 590.590625 252.701651 
" clip-path="url(#p08d9e31654)" style="fill: #f4f4ff"/>
    <path d="M 199.990625 287.351651 
L 255.790625 287.351651 
L 255.790625 322.001651 
L 199.990625 322.001651 
L 199.990625 287.351651 
" clip-path="url(#p08d9e31654)" style="fill: #a3a3ff"/>
    <path d="M 255.790625 287.351651 
L 311.590625 287.351651 
L 311.590625 322.001651 
L 255.790625 322.001651 
L 255.790625 287.351651 
" clip-path="url(#p08d9e31654)" style="fill: #f5f5ff"/>
    <path d="M 311.590625 287.351651 
L 367.390625 287.351651 
L 367.390625 322.001651 
L 311.590625 322.001651 
L 311.590625 287.351651 
" clip-path="url(#p08d9e31654)" style="fill: #ffffff"/>
    <path d="M 367.390625 287.351651 
L 423.190625 287.351651 
L 423.190625 322.001651 
L 367.390625 322.001651 
L 367.390625 287.351651 
" clip-path="url(#p08d9e31654)" style="fill: #a7a7ff"/>
    <path d="M 423.190625 287.351651 
L 478.990625 287.351651 
L 478.990625 322.001651 
L 423.190625 322.001651 
L 423.190625 287.351651 
" clip-path="url(#p08d9e31654)" style="fill: #ffffff"/>
    <path d="M 478.990625 287.351651 
L 534.790625 287.351651 
L 534.790625 322.001651 
L 478.990625 322.001651 
L 478.990625 287.351651 
" clip-path="url(#p08d9e31654)" style="fill: #ffffff"/>
    <path d="M 534.790625 287.351651 
L 590.590625 287.351651 
L 590.590625 322.001651 
L 534.790625 322.001651 
L 534.790625 287.351651 
" clip-path="url(#p08d9e31654)" style="fill: #f6f6ff"/>
    <path d="M 590.590625 287.351651 
L 646.390625 287.351651 
L 646.390625 322.001651 
L 590.590625 322.001651 
L 590.590625 287.351651 
" clip-path="url(#p08d9e31654)" style="fill: #ffffff"/>
   </g>
   <g id="matplotlib.axis_1">
    <g id="xtick_1">
     <g id="text_1">
      <!-- BACH -->
      <g transform="translate(215.664742 35.847384) rotate(-20) scale(0.1 -0.1)">
       <defs>
        <path id="DejaVuSans-42" d="M 1259 2228 
L 1259 519 
L 2272 519 
Q 2781 519 3026 730 
Q 3272 941 3272 1375 
Q 3272 1813 3026 2020 
Q 2781 2228 2272 2228 
L 1259 2228 
z
M 1259 4147 
L 1259 2741 
L 2194 2741 
Q 2656 2741 2882 2914 
Q 3109 3088 3109 3444 
Q 3109 3797 2882 3972 
Q 2656 4147 2194 4147 
L 1259 4147 
z
M 628 4666 
L 2241 4666 
Q 2963 4666 3353 4366 
Q 3744 4066 3744 3513 
Q 3744 3084 3544 2831 
Q 3344 2578 2956 2516 
Q 3422 2416 3680 2098 
Q 3938 1781 3938 1306 
Q 3938 681 3513 340 
Q 3088 0 2303 0 
L 628 0 
L 628 4666 
z
" transform="scale(0.015625)"/>
        <path id="DejaVuSans-41" d="M 2188 4044 
L 1331 1722 
L 3047 1722 
L 2188 4044 
z
M 1831 4666 
L 2547 4666 
L 4325 0 
L 3669 0 
L 3244 1197 
L 1141 1197 
L 716 0 
L 50 0 
L 1831 4666 
z
" transform="scale(0.015625)"/>
        <path id="DejaVuSans-43" d="M 4122 4306 
L 4122 3641 
Q 3803 3938 3442 4084 
Q 3081 4231 2675 4231 
Q 1875 4231 1450 3742 
Q 1025 3253 1025 2328 
Q 1025 1406 1450 917 
Q 1875 428 2675 428 
Q 3081 428 3442 575 
Q 3803 722 4122 1019 
L 4122 359 
Q 3791 134 3420 21 
Q 3050 -91 2638 -91 
Q 1578 -91 968 557 
Q 359 1206 359 2328 
Q 359 3453 968 4101 
Q 1578 4750 2638 4750 
Q 3056 4750 3426 4639 
Q 3797 4528 4122 4306 
z
" transform="scale(0.015625)"/>
        <path id="DejaVuSans-48" d="M 628 4666 
L 1259 4666 
L 1259 2753 
L 3553 2753 
L 3553 4666 
L 4184 4666 
L 4184 0 
L 3553 0 
L 3553 2222 
L 1259 2222 
L 1259 0 
L 628 0 
L 628 4666 
z
" transform="scale(0.015625)"/>
       </defs>
       <use xlink:href="#DejaVuSans-42"/>
       <use xlink:href="#DejaVuSans-41" x="68.603516"/>
       <use xlink:href="#DejaVuSans-43" x="135.261719"/>
       <use xlink:href="#DejaVuSans-48" x="205.085938"/>
      </g>
     </g>
    </g>
    <g id="xtick_2">
     <g id="text_2">
      <!-- CRC -->
      <g transform="translate(275.042915 35.847384) rotate(-20) scale(0.1 -0.1)">
       <defs>
        <path id="DejaVuSans-52" d="M 2841 2188 
Q 3044 2119 3236 1894 
Q 3428 1669 3622 1275 
L 4263 0 
L 3584 0 
L 2988 1197 
Q 2756 1666 2539 1819 
Q 2322 1972 1947 1972 
L 1259 1972 
L 1259 0 
L 628 0 
L 628 4666 
L 2053 4666 
Q 2853 4666 3247 4331 
Q 3641 3997 3641 3322 
Q 3641 2881 3436 2590 
Q 3231 2300 2841 2188 
z
M 1259 4147 
L 1259 2491 
L 2053 2491 
Q 2509 2491 2742 2702 
Q 2975 2913 2975 3322 
Q 2975 3731 2742 3939 
Q 2509 4147 2053 4147 
L 1259 4147 
z
" transform="scale(0.015625)"/>
       </defs>
       <use xlink:href="#DejaVuSans-43"/>
       <use xlink:href="#DejaVuSans-52" x="69.824219"/>
       <use xlink:href="#DejaVuSans-43" x="134.306641"/>
      </g>
     </g>
    </g>
    <g id="xtick_3">
     <g id="text_3">
      <!-- MHIST -->
      <g transform="translate(325.608533 35.847384) rotate(-20) scale(0.1 -0.1)">
       <defs>
        <path id="DejaVuSans-4d" d="M 628 4666 
L 1569 4666 
L 2759 1491 
L 3956 4666 
L 4897 4666 
L 4897 0 
L 4281 0 
L 4281 4097 
L 3078 897 
L 2444 897 
L 1241 4097 
L 1241 0 
L 628 0 
L 628 4666 
z
" transform="scale(0.015625)"/>
        <path id="DejaVuSans-49" d="M 628 4666 
L 1259 4666 
L 1259 0 
L 628 0 
L 628 4666 
z
" transform="scale(0.015625)"/>
        <path id="DejaVuSans-53" d="M 3425 4513 
L 3425 3897 
Q 3066 4069 2747 4153 
Q 2428 4238 2131 4238 
Q 1616 4238 1336 4038 
Q 1056 3838 1056 3469 
Q 1056 3159 1242 3001 
Q 1428 2844 1947 2747 
L 2328 2669 
Q 3034 2534 3370 2195 
Q 3706 1856 3706 1288 
Q 3706 609 3251 259 
Q 2797 -91 1919 -91 
Q 1588 -91 1214 -16 
Q 841 59 441 206 
L 441 856 
Q 825 641 1194 531 
Q 1563 422 1919 422 
Q 2459 422 2753 634 
Q 3047 847 3047 1241 
Q 3047 1584 2836 1778 
Q 2625 1972 2144 2069 
L 1759 2144 
Q 1053 2284 737 2584 
Q 422 2884 422 3419 
Q 422 4038 858 4394 
Q 1294 4750 2059 4750 
Q 2388 4750 2728 4690 
Q 3069 4631 3425 4513 
z
" transform="scale(0.015625)"/>
        <path id="DejaVuSans-54" d="M -19 4666 
L 3928 4666 
L 3928 4134 
L 2272 4134 
L 2272 0 
L 1638 0 
L 1638 4134 
L -19 4134 
L -19 4666 
z
" transform="scale(0.015625)"/>
       </defs>
       <use xlink:href="#DejaVuSans-4d"/>
       <use xlink:href="#DejaVuSans-48" x="86.279297"/>
       <use xlink:href="#DejaVuSans-49" x="161.474609"/>
       <use xlink:href="#DejaVuSans-53" x="190.966797"/>
       <use xlink:href="#DejaVuSans-54" x="254.443359"/>
      </g>
     </g>
    </g>
    <g id="xtick_4">
     <g id="text_4">
      <!-- PCam -->
      <g transform="translate(382.664638 35.847384) rotate(-20) scale(0.1 -0.1)">
       <defs>
        <path id="DejaVuSans-50" d="M 1259 4147 
L 1259 2394 
L 2053 2394 
Q 2494 2394 2734 2622 
Q 2975 2850 2975 3272 
Q 2975 3691 2734 3919 
Q 2494 4147 2053 4147 
L 1259 4147 
z
M 628 4666 
L 2053 4666 
Q 2838 4666 3239 4311 
Q 3641 3956 3641 3272 
Q 3641 2581 3239 2228 
Q 2838 1875 2053 1875 
L 1259 1875 
L 1259 0 
L 628 0 
L 628 4666 
z
" transform="scale(0.015625)"/>
        <path id="DejaVuSans-61" d="M 2194 1759 
Q 1497 1759 1228 1600 
Q 959 1441 959 1056 
Q 959 750 1161 570 
Q 1363 391 1709 391 
Q 2188 391 2477 730 
Q 2766 1069 2766 1631 
L 2766 1759 
L 2194 1759 
z
M 3341 1997 
L 3341 0 
L 2766 0 
L 2766 531 
Q 2569 213 2275 61 
Q 1981 -91 1556 -91 
Q 1019 -91 701 211 
Q 384 513 384 1019 
Q 384 1609 779 1909 
Q 1175 2209 1959 2209 
L 2766 2209 
L 2766 2266 
Q 2766 2663 2505 2880 
Q 2244 3097 1772 3097 
Q 1472 3097 1187 3025 
Q 903 2953 641 2809 
L 641 3341 
Q 956 3463 1253 3523 
Q 1550 3584 1831 3584 
Q 2591 3584 2966 3190 
Q 3341 2797 3341 1997 
z
" transform="scale(0.015625)"/>
        <path id="DejaVuSans-6d" d="M 3328 2828 
Q 3544 3216 3844 3400 
Q 4144 3584 4550 3584 
Q 5097 3584 5394 3201 
Q 5691 2819 5691 2113 
L 5691 0 
L 5113 0 
L 5113 2094 
Q 5113 2597 4934 2840 
Q 4756 3084 4391 3084 
Q 3944 3084 3684 2787 
Q 3425 2491 3425 1978 
L 3425 0 
L 2847 0 
L 2847 2094 
Q 2847 2600 2669 2842 
Q 2491 3084 2119 3084 
Q 1678 3084 1418 2786 
Q 1159 2488 1159 1978 
L 1159 0 
L 581 0 
L 581 3500 
L 1159 3500 
L 1159 2956 
Q 1356 3278 1631 3431 
Q 1906 3584 2284 3584 
Q 2666 3584 2933 3390 
Q 3200 3197 3328 2828 
z
" transform="scale(0.015625)"/>
       </defs>
       <use xlink:href="#DejaVuSans-50"/>
       <use xlink:href="#DejaVuSans-43" x="60.302734"/>
       <use xlink:href="#DejaVuSans-61" x="130.126953"/>
       <use xlink:href="#DejaVuSans-6d" x="191.40625"/>
      </g>
     </g>
    </g>
    <g id="xtick_5">
     <g id="text_5">
      <!-- Camelyon16 -->
      <g transform="translate(422.489129 35.847384) rotate(-20) scale(0.1 -0.1)">
       <defs>
        <path id="DejaVuSans-65" d="M 3597 1894 
L 3597 1613 
L 953 1613 
Q 991 1019 1311 708 
Q 1631 397 2203 397 
Q 2534 397 2845 478 
Q 3156 559 3463 722 
L 3463 178 
Q 3153 47 2828 -22 
Q 2503 -91 2169 -91 
Q 1331 -91 842 396 
Q 353 884 353 1716 
Q 353 2575 817 3079 
Q 1281 3584 2069 3584 
Q 2775 3584 3186 3129 
Q 3597 2675 3597 1894 
z
M 3022 2063 
Q 3016 2534 2758 2815 
Q 2500 3097 2075 3097 
Q 1594 3097 1305 2825 
Q 1016 2553 972 2059 
L 3022 2063 
z
" transform="scale(0.015625)"/>
        <path id="DejaVuSans-6c" d="M 603 4863 
L 1178 4863 
L 1178 0 
L 603 0 
L 603 4863 
z
" transform="scale(0.015625)"/>
        <path id="DejaVuSans-79" d="M 2059 -325 
Q 1816 -950 1584 -1140 
Q 1353 -1331 966 -1331 
L 506 -1331 
L 506 -850 
L 844 -850 
Q 1081 -850 1212 -737 
Q 1344 -625 1503 -206 
L 1606 56 
L 191 3500 
L 800 3500 
L 1894 763 
L 2988 3500 
L 3597 3500 
L 2059 -325 
z
" transform="scale(0.015625)"/>
        <path id="DejaVuSans-6f" d="M 1959 3097 
Q 1497 3097 1228 2736 
Q 959 2375 959 1747 
Q 959 1119 1226 758 
Q 1494 397 1959 397 
Q 2419 397 2687 759 
Q 2956 1122 2956 1747 
Q 2956 2369 2687 2733 
Q 2419 3097 1959 3097 
z
M 1959 3584 
Q 2709 3584 3137 3096 
Q 3566 2609 3566 1747 
Q 3566 888 3137 398 
Q 2709 -91 1959 -91 
Q 1206 -91 779 398 
Q 353 888 353 1747 
Q 353 2609 779 3096 
Q 1206 3584 1959 3584 
z
" transform="scale(0.015625)"/>
        <path id="DejaVuSans-6e" d="M 3513 2113 
L 3513 0 
L 2938 0 
L 2938 2094 
Q 2938 2591 2744 2837 
Q 2550 3084 2163 3084 
Q 1697 3084 1428 2787 
Q 1159 2491 1159 1978 
L 1159 0 
L 581 0 
L 581 3500 
L 1159 3500 
L 1159 2956 
Q 1366 3272 1645 3428 
Q 1925 3584 2291 3584 
Q 2894 3584 3203 3211 
Q 3513 2838 3513 2113 
z
" transform="scale(0.015625)"/>
        <path id="DejaVuSans-31" d="M 794 531 
L 1825 531 
L 1825 4091 
L 703 3866 
L 703 4441 
L 1819 4666 
L 2450 4666 
L 2450 531 
L 3481 531 
L 3481 0 
L 794 0 
L 794 531 
z
" transform="scale(0.015625)"/>
        <path id="DejaVuSans-36" d="M 2113 2584 
Q 1688 2584 1439 2293 
Q 1191 2003 1191 1497 
Q 1191 994 1439 701 
Q 1688 409 2113 409 
Q 2538 409 2786 701 
Q 3034 994 3034 1497 
Q 3034 2003 2786 2293 
Q 2538 2584 2113 2584 
z
M 3366 4563 
L 3366 3988 
Q 3128 4100 2886 4159 
Q 2644 4219 2406 4219 
Q 1781 4219 1451 3797 
Q 1122 3375 1075 2522 
Q 1259 2794 1537 2939 
Q 1816 3084 2150 3084 
Q 2853 3084 3261 2657 
Q 3669 2231 3669 1497 
Q 3669 778 3244 343 
Q 2819 -91 2113 -91 
Q 1303 -91 875 529 
Q 447 1150 447 2328 
Q 447 3434 972 4092 
Q 1497 4750 2381 4750 
Q 2619 4750 2861 4703 
Q 3103 4656 3366 4563 
z
" transform="scale(0.015625)"/>
       </defs>
       <use xlink:href="#DejaVuSans-43"/>
       <use xlink:href="#DejaVuSans-61" x="69.824219"/>
       <use xlink:href="#DejaVuSans-6d" x="131.103516"/>
       <use xlink:href="#DejaVuSans-65" x="228.515625"/>
       <use xlink:href="#DejaVuSans-6c" x="290.039062"/>
       <use xlink:href="#DejaVuSans-79" x="317.822266"/>
       <use xlink:href="#DejaVuSans-6f" x="377.001953"/>
       <use xlink:href="#DejaVuSans-6e" x="438.183594"/>
       <use xlink:href="#DejaVuSans-31" x="501.5625"/>
       <use xlink:href="#DejaVuSans-36" x="565.185547"/>
      </g>
     </g>
    </g>
    <g id="xtick_6">
     <g id="text_6">
      <!-- PANDA -->
      <g transform="translate(491.822171 35.847384) rotate(-20) scale(0.1 -0.1)">
       <defs>
        <path id="DejaVuSans-4e" d="M 628 4666 
L 1478 4666 
L 3547 763 
L 3547 4666 
L 4159 4666 
L 4159 0 
L 3309 0 
L 1241 3903 
L 1241 0 
L 628 0 
L 628 4666 
z
" transform="scale(0.015625)"/>
        <path id="DejaVuSans-44" d="M 1259 4147 
L 1259 519 
L 2022 519 
Q 2988 519 3436 956 
Q 3884 1394 3884 2338 
Q 3884 3275 3436 3711 
Q 2988 4147 2022 4147 
L 1259 4147 
z
M 628 4666 
L 1925 4666 
Q 3281 4666 3915 4102 
Q 4550 3538 4550 2338 
Q 4550 1131 3912 565 
Q 3275 0 1925 0 
L 628 0 
L 628 4666 
z
" transform="scale(0.015625)"/>
       </defs>
       <use xlink:href="#DejaVuSans-50"/>
       <use xlink:href="#DejaVuSans-41" x="53.927734"/>
       <use xlink:href="#DejaVuSans-4e" x="122.335938"/>
       <use xlink:href="#DejaVuSans-44" x="197.140625"/>
       <use xlink:href="#DejaVuSans-41" x="272.392578"/>
      </g>
     </g>
    </g>
    <g id="xtick_7">
     <g id="text_7">
      <!-- CoNSeP -->
      <g transform="translate(545.256789 35.847384) rotate(-20) scale(0.1 -0.1)">
       <use xlink:href="#DejaVuSans-43"/>
       <use xlink:href="#DejaVuSans-6f" x="69.824219"/>
       <use xlink:href="#DejaVuSans-4e" x="131.005859"/>
       <use xlink:href="#DejaVuSans-53" x="205.810547"/>
       <use xlink:href="#DejaVuSans-65" x="269.287109"/>
       <use xlink:href="#DejaVuSans-50" x="330.810547"/>
      </g>
     </g>
    </g>
    <g id="xtick_8">
     <g id="text_8">
      <!-- MoNuSAC -->
      <g transform="translate(596.529379 35.847384) rotate(-20) scale(0.1 -0.1)">
       <defs>
        <path id="DejaVuSans-75" d="M 544 1381 
L 544 3500 
L 1119 3500 
L 1119 1403 
Q 1119 906 1312 657 
Q 1506 409 1894 409 
Q 2359 409 2629 706 
Q 2900 1003 2900 1516 
L 2900 3500 
L 3475 3500 
L 3475 0 
L 2900 0 
L 2900 538 
Q 2691 219 2414 64 
Q 2138 -91 1772 -91 
Q 1169 -91 856 284 
Q 544 659 544 1381 
z
M 1991 3584 
L 1991 3584 
z
" transform="scale(0.015625)"/>
       </defs>
       <use xlink:href="#DejaVuSans-4d"/>
       <use xlink:href="#DejaVuSans-6f" x="86.279297"/>
       <use xlink:href="#DejaVuSans-4e" x="147.460938"/>
       <use xlink:href="#DejaVuSans-75" x="222.265625"/>
       <use xlink:href="#DejaVuSans-53" x="285.644531"/>
       <use xlink:href="#DejaVuSans-41" x="350.996094"/>
       <use xlink:href="#DejaVuSans-43" x="417.654297"/>
      </g>
     </g>
    </g>
   </g>
   <g id="matplotlib.axis_2">
    <g id="ytick_1">
     <g id="line2d_1">
      <defs>
       <path id="m92c37dd165" d="M 0 0 
L -3.5 0 
" style="stroke: #000000; stroke-width: 0.8"/>
      </defs>
      <g>
       <use xlink:href="#m92c37dd165" x="199.990625" y="62.126651" style="stroke: #000000; stroke-width: 0.8"/>
      </g>
     </g>
     <g id="text_9">
      <!-- kaiko.ai - DINO ViT-B8 | TCGA -->
      <g transform="translate(47.992188 64.768839) scale(0.1 -0.1)">
       <defs>
        <path id="DejaVuSans-6b" d="M 581 4863 
L 1159 4863 
L 1159 1991 
L 2875 3500 
L 3609 3500 
L 1753 1863 
L 3688 0 
L 2938 0 
L 1159 1709 
L 1159 0 
L 581 0 
L 581 4863 
z
" transform="scale(0.015625)"/>
        <path id="DejaVuSans-69" d="M 603 3500 
L 1178 3500 
L 1178 0 
L 603 0 
L 603 3500 
z
M 603 4863 
L 1178 4863 
L 1178 4134 
L 603 4134 
L 603 4863 
z
" transform="scale(0.015625)"/>
        <path id="DejaVuSans-2e" d="M 684 794 
L 1344 794 
L 1344 0 
L 684 0 
L 684 794 
z
" transform="scale(0.015625)"/>
        <path id="DejaVuSans-20" transform="scale(0.015625)"/>
        <path id="DejaVuSans-2d" d="M 313 2009 
L 1997 2009 
L 1997 1497 
L 313 1497 
L 313 2009 
z
" transform="scale(0.015625)"/>
        <path id="DejaVuSans-4f" d="M 2522 4238 
Q 1834 4238 1429 3725 
Q 1025 3213 1025 2328 
Q 1025 1447 1429 934 
Q 1834 422 2522 422 
Q 3209 422 3611 934 
Q 4013 1447 4013 2328 
Q 4013 3213 3611 3725 
Q 3209 4238 2522 4238 
z
M 2522 4750 
Q 3503 4750 4090 4092 
Q 4678 3434 4678 2328 
Q 4678 1225 4090 567 
Q 3503 -91 2522 -91 
Q 1538 -91 948 565 
Q 359 1222 359 2328 
Q 359 3434 948 4092 
Q 1538 4750 2522 4750 
z
" transform="scale(0.015625)"/>
        <path id="DejaVuSans-56" d="M 1831 0 
L 50 4666 
L 709 4666 
L 2188 738 
L 3669 4666 
L 4325 4666 
L 2547 0 
L 1831 0 
z
" transform="scale(0.015625)"/>
        <path id="DejaVuSans-38" d="M 2034 2216 
Q 1584 2216 1326 1975 
Q 1069 1734 1069 1313 
Q 1069 891 1326 650 
Q 1584 409 2034 409 
Q 2484 409 2743 651 
Q 3003 894 3003 1313 
Q 3003 1734 2745 1975 
Q 2488 2216 2034 2216 
z
M 1403 2484 
Q 997 2584 770 2862 
Q 544 3141 544 3541 
Q 544 4100 942 4425 
Q 1341 4750 2034 4750 
Q 2731 4750 3128 4425 
Q 3525 4100 3525 3541 
Q 3525 3141 3298 2862 
Q 3072 2584 2669 2484 
Q 3125 2378 3379 2068 
Q 3634 1759 3634 1313 
Q 3634 634 3220 271 
Q 2806 -91 2034 -91 
Q 1263 -91 848 271 
Q 434 634 434 1313 
Q 434 1759 690 2068 
Q 947 2378 1403 2484 
z
M 1172 3481 
Q 1172 3119 1398 2916 
Q 1625 2713 2034 2713 
Q 2441 2713 2670 2916 
Q 2900 3119 2900 3481 
Q 2900 3844 2670 4047 
Q 2441 4250 2034 4250 
Q 1625 4250 1398 4047 
Q 1172 3844 1172 3481 
z
" transform="scale(0.015625)"/>
        <path id="DejaVuSans-7c" d="M 1344 4891 
L 1344 -1509 
L 813 -1509 
L 813 4891 
L 1344 4891 
z
" transform="scale(0.015625)"/>
        <path id="DejaVuSans-47" d="M 3809 666 
L 3809 1919 
L 2778 1919 
L 2778 2438 
L 4434 2438 
L 4434 434 
Q 4069 175 3628 42 
Q 3188 -91 2688 -91 
Q 1594 -91 976 548 
Q 359 1188 359 2328 
Q 359 3472 976 4111 
Q 1594 4750 2688 4750 
Q 3144 4750 3555 4637 
Q 3966 4525 4313 4306 
L 4313 3634 
Q 3963 3931 3569 4081 
Q 3175 4231 2741 4231 
Q 1884 4231 1454 3753 
Q 1025 3275 1025 2328 
Q 1025 1384 1454 906 
Q 1884 428 2741 428 
Q 3075 428 3337 486 
Q 3600 544 3809 666 
z
" transform="scale(0.015625)"/>
       </defs>
       <use xlink:href="#DejaVuSans-6b"/>
       <use xlink:href="#DejaVuSans-61" x="56.160156"/>
       <use xlink:href="#DejaVuSans-69" x="117.439453"/>
       <use xlink:href="#DejaVuSans-6b" x="145.222656"/>
       <use xlink:href="#DejaVuSans-6f" x="199.507812"/>
       <use xlink:href="#DejaVuSans-2e" x="258.939453"/>
       <use xlink:href="#DejaVuSans-61" x="290.726562"/>
       <use xlink:href="#DejaVuSans-69" x="352.005859"/>
       <use xlink:href="#DejaVuSans-20" x="379.789062"/>
       <use xlink:href="#DejaVuSans-2d" x="411.576172"/>
       <use xlink:href="#DejaVuSans-20" x="447.660156"/>
       <use xlink:href="#DejaVuSans-44" x="479.447266"/>
       <use xlink:href="#DejaVuSans-49" x="556.449219"/>
       <use xlink:href="#DejaVuSans-4e" x="585.941406"/>
       <use xlink:href="#DejaVuSans-4f" x="660.746094"/>
       <use xlink:href="#DejaVuSans-20" x="739.457031"/>
       <use xlink:href="#DejaVuSans-56" x="771.244141"/>
       <use xlink:href="#DejaVuSans-69" x="837.402344"/>
       <use xlink:href="#DejaVuSans-54" x="865.185547"/>
       <use xlink:href="#DejaVuSans-2d" x="917.144531"/>
       <use xlink:href="#DejaVuSans-42" x="949.603516"/>
       <use xlink:href="#DejaVuSans-38" x="1018.207031"/>
       <use xlink:href="#DejaVuSans-20" x="1081.830078"/>
       <use xlink:href="#DejaVuSans-7c" x="1113.617188"/>
       <use xlink:href="#DejaVuSans-20" x="1147.308594"/>
       <use xlink:href="#DejaVuSans-54" x="1179.095703"/>
       <use xlink:href="#DejaVuSans-43" x="1234.304688"/>
       <use xlink:href="#DejaVuSans-47" x="1304.128906"/>
       <use xlink:href="#DejaVuSans-41" x="1381.619141"/>
      </g>
     </g>
    </g>
    <g id="ytick_2">
     <g id="line2d_2">
      <g>
       <use xlink:href="#m92c37dd165" x="199.990625" y="96.776651" style="stroke: #000000; stroke-width: 0.8"/>
      </g>
     </g>
     <g id="text_10">
      <!-- kaiko.ai - DINOv2 ViT-L14 | TCGA -->
      <g transform="translate(30.275 99.418839) scale(0.1 -0.1)">
       <defs>
        <path id="DejaVuSans-76" d="M 191 3500 
L 800 3500 
L 1894 563 
L 2988 3500 
L 3597 3500 
L 2284 0 
L 1503 0 
L 191 3500 
z
" transform="scale(0.015625)"/>
        <path id="DejaVuSans-32" d="M 1228 531 
L 3431 531 
L 3431 0 
L 469 0 
L 469 531 
Q 828 903 1448 1529 
Q 2069 2156 2228 2338 
Q 2531 2678 2651 2914 
Q 2772 3150 2772 3378 
Q 2772 3750 2511 3984 
Q 2250 4219 1831 4219 
Q 1534 4219 1204 4116 
Q 875 4013 500 3803 
L 500 4441 
Q 881 4594 1212 4672 
Q 1544 4750 1819 4750 
Q 2544 4750 2975 4387 
Q 3406 4025 3406 3419 
Q 3406 3131 3298 2873 
Q 3191 2616 2906 2266 
Q 2828 2175 2409 1742 
Q 1991 1309 1228 531 
z
" transform="scale(0.015625)"/>
        <path id="DejaVuSans-4c" d="M 628 4666 
L 1259 4666 
L 1259 531 
L 3531 531 
L 3531 0 
L 628 0 
L 628 4666 
z
" transform="scale(0.015625)"/>
        <path id="DejaVuSans-34" d="M 2419 4116 
L 825 1625 
L 2419 1625 
L 2419 4116 
z
M 2253 4666 
L 3047 4666 
L 3047 1625 
L 3713 1625 
L 3713 1100 
L 3047 1100 
L 3047 0 
L 2419 0 
L 2419 1100 
L 313 1100 
L 313 1709 
L 2253 4666 
z
" transform="scale(0.015625)"/>
       </defs>
       <use xlink:href="#DejaVuSans-6b"/>
       <use xlink:href="#DejaVuSans-61" x="56.160156"/>
       <use xlink:href="#DejaVuSans-69" x="117.439453"/>
       <use xlink:href="#DejaVuSans-6b" x="145.222656"/>
       <use xlink:href="#DejaVuSans-6f" x="199.507812"/>
       <use xlink:href="#DejaVuSans-2e" x="258.939453"/>
       <use xlink:href="#DejaVuSans-61" x="290.726562"/>
       <use xlink:href="#DejaVuSans-69" x="352.005859"/>
       <use xlink:href="#DejaVuSans-20" x="379.789062"/>
       <use xlink:href="#DejaVuSans-2d" x="411.576172"/>
       <use xlink:href="#DejaVuSans-20" x="447.660156"/>
       <use xlink:href="#DejaVuSans-44" x="479.447266"/>
       <use xlink:href="#DejaVuSans-49" x="556.449219"/>
       <use xlink:href="#DejaVuSans-4e" x="585.941406"/>
       <use xlink:href="#DejaVuSans-4f" x="660.746094"/>
       <use xlink:href="#DejaVuSans-76" x="739.457031"/>
       <use xlink:href="#DejaVuSans-32" x="798.636719"/>
       <use xlink:href="#DejaVuSans-20" x="862.259766"/>
       <use xlink:href="#DejaVuSans-56" x="894.046875"/>
       <use xlink:href="#DejaVuSans-69" x="960.205078"/>
       <use xlink:href="#DejaVuSans-54" x="987.988281"/>
       <use xlink:href="#DejaVuSans-2d" x="1039.947266"/>
       <use xlink:href="#DejaVuSans-4c" x="1076.03125"/>
       <use xlink:href="#DejaVuSans-31" x="1131.744141"/>
       <use xlink:href="#DejaVuSans-34" x="1195.367188"/>
       <use xlink:href="#DejaVuSans-20" x="1258.990234"/>
       <use xlink:href="#DejaVuSans-7c" x="1290.777344"/>
       <use xlink:href="#DejaVuSans-20" x="1324.46875"/>
       <use xlink:href="#DejaVuSans-54" x="1356.255859"/>
       <use xlink:href="#DejaVuSans-43" x="1411.464844"/>
       <use xlink:href="#DejaVuSans-47" x="1481.289062"/>
       <use xlink:href="#DejaVuSans-41" x="1558.779297"/>
      </g>
     </g>
    </g>
    <g id="ytick_3">
     <g id="line2d_3">
      <g>
       <use xlink:href="#m92c37dd165" x="199.990625" y="131.426651" style="stroke: #000000; stroke-width: 0.8"/>
      </g>
     </g>
     <g id="text_11">
      <!-- UNI - DINOv2 ViT-L16 | Mass-100k -->
      <g transform="translate(23.934375 134.068839) scale(0.1 -0.1)">
       <defs>
        <path id="DejaVuSans-55" d="M 556 4666 
L 1191 4666 
L 1191 1831 
Q 1191 1081 1462 751 
Q 1734 422 2344 422 
Q 2950 422 3222 751 
Q 3494 1081 3494 1831 
L 3494 4666 
L 4128 4666 
L 4128 1753 
Q 4128 841 3676 375 
Q 3225 -91 2344 -91 
Q 1459 -91 1007 375 
Q 556 841 556 1753 
L 556 4666 
z
" transform="scale(0.015625)"/>
        <path id="DejaVuSans-73" d="M 2834 3397 
L 2834 2853 
Q 2591 2978 2328 3040 
Q 2066 3103 1784 3103 
Q 1356 3103 1142 2972 
Q 928 2841 928 2578 
Q 928 2378 1081 2264 
Q 1234 2150 1697 2047 
L 1894 2003 
Q 2506 1872 2764 1633 
Q 3022 1394 3022 966 
Q 3022 478 2636 193 
Q 2250 -91 1575 -91 
Q 1294 -91 989 -36 
Q 684 19 347 128 
L 347 722 
Q 666 556 975 473 
Q 1284 391 1588 391 
Q 1994 391 2212 530 
Q 2431 669 2431 922 
Q 2431 1156 2273 1281 
Q 2116 1406 1581 1522 
L 1381 1569 
Q 847 1681 609 1914 
Q 372 2147 372 2553 
Q 372 3047 722 3315 
Q 1072 3584 1716 3584 
Q 2034 3584 2315 3537 
Q 2597 3491 2834 3397 
z
" transform="scale(0.015625)"/>
        <path id="DejaVuSans-30" d="M 2034 4250 
Q 1547 4250 1301 3770 
Q 1056 3291 1056 2328 
Q 1056 1369 1301 889 
Q 1547 409 2034 409 
Q 2525 409 2770 889 
Q 3016 1369 3016 2328 
Q 3016 3291 2770 3770 
Q 2525 4250 2034 4250 
z
M 2034 4750 
Q 2819 4750 3233 4129 
Q 3647 3509 3647 2328 
Q 3647 1150 3233 529 
Q 2819 -91 2034 -91 
Q 1250 -91 836 529 
Q 422 1150 422 2328 
Q 422 3509 836 4129 
Q 1250 4750 2034 4750 
z
" transform="scale(0.015625)"/>
       </defs>
       <use xlink:href="#DejaVuSans-55"/>
       <use xlink:href="#DejaVuSans-4e" x="73.193359"/>
       <use xlink:href="#DejaVuSans-49" x="147.998047"/>
       <use xlink:href="#DejaVuSans-20" x="177.490234"/>
       <use xlink:href="#DejaVuSans-2d" x="209.277344"/>
       <use xlink:href="#DejaVuSans-20" x="245.361328"/>
       <use xlink:href="#DejaVuSans-44" x="277.148438"/>
       <use xlink:href="#DejaVuSans-49" x="354.150391"/>
       <use xlink:href="#DejaVuSans-4e" x="383.642578"/>
       <use xlink:href="#DejaVuSans-4f" x="458.447266"/>
       <use xlink:href="#DejaVuSans-76" x="537.158203"/>
       <use xlink:href="#DejaVuSans-32" x="596.337891"/>
       <use xlink:href="#DejaVuSans-20" x="659.960938"/>
       <use xlink:href="#DejaVuSans-56" x="691.748047"/>
       <use xlink:href="#DejaVuSans-69" x="757.90625"/>
       <use xlink:href="#DejaVuSans-54" x="785.689453"/>
       <use xlink:href="#DejaVuSans-2d" x="837.648438"/>
       <use xlink:href="#DejaVuSans-4c" x="873.732422"/>
       <use xlink:href="#DejaVuSans-31" x="929.445312"/>
       <use xlink:href="#DejaVuSans-36" x="993.068359"/>
       <use xlink:href="#DejaVuSans-20" x="1056.691406"/>
       <use xlink:href="#DejaVuSans-7c" x="1088.478516"/>
       <use xlink:href="#DejaVuSans-20" x="1122.169922"/>
       <use xlink:href="#DejaVuSans-4d" x="1153.957031"/>
       <use xlink:href="#DejaVuSans-61" x="1240.236328"/>
       <use xlink:href="#DejaVuSans-73" x="1301.515625"/>
       <use xlink:href="#DejaVuSans-73" x="1353.615234"/>
       <use xlink:href="#DejaVuSans-2d" x="1405.714844"/>
       <use xlink:href="#DejaVuSans-31" x="1441.798828"/>
       <use xlink:href="#DejaVuSans-30" x="1505.421875"/>
       <use xlink:href="#DejaVuSans-30" x="1569.044922"/>
       <use xlink:href="#DejaVuSans-6b" x="1632.667969"/>
      </g>
     </g>
    </g>
    <g id="ytick_4">
     <g id="line2d_4">
      <g>
       <use xlink:href="#m92c37dd165" x="199.990625" y="166.076651" style="stroke: #000000; stroke-width: 0.8"/>
      </g>
     </g>
     <g id="text_12">
      <!-- kaiko.ai - DINO ViT-B16 | TCGA -->
      <g transform="translate(41.629687 168.718839) scale(0.1 -0.1)">
       <use xlink:href="#DejaVuSans-6b"/>
       <use xlink:href="#DejaVuSans-61" x="56.160156"/>
       <use xlink:href="#DejaVuSans-69" x="117.439453"/>
       <use xlink:href="#DejaVuSans-6b" x="145.222656"/>
       <use xlink:href="#DejaVuSans-6f" x="199.507812"/>
       <use xlink:href="#DejaVuSans-2e" x="258.939453"/>
       <use xlink:href="#DejaVuSans-61" x="290.726562"/>
       <use xlink:href="#DejaVuSans-69" x="352.005859"/>
       <use xlink:href="#DejaVuSans-20" x="379.789062"/>
       <use xlink:href="#DejaVuSans-2d" x="411.576172"/>
       <use xlink:href="#DejaVuSans-20" x="447.660156"/>
       <use xlink:href="#DejaVuSans-44" x="479.447266"/>
       <use xlink:href="#DejaVuSans-49" x="556.449219"/>
       <use xlink:href="#DejaVuSans-4e" x="585.941406"/>
       <use xlink:href="#DejaVuSans-4f" x="660.746094"/>
       <use xlink:href="#DejaVuSans-20" x="739.457031"/>
       <use xlink:href="#DejaVuSans-56" x="771.244141"/>
       <use xlink:href="#DejaVuSans-69" x="837.402344"/>
       <use xlink:href="#DejaVuSans-54" x="865.185547"/>
       <use xlink:href="#DejaVuSans-2d" x="917.144531"/>
       <use xlink:href="#DejaVuSans-42" x="949.603516"/>
       <use xlink:href="#DejaVuSans-31" x="1018.207031"/>
       <use xlink:href="#DejaVuSans-36" x="1081.830078"/>
       <use xlink:href="#DejaVuSans-20" x="1145.453125"/>
       <use xlink:href="#DejaVuSans-7c" x="1177.240234"/>
       <use xlink:href="#DejaVuSans-20" x="1210.931641"/>
       <use xlink:href="#DejaVuSans-54" x="1242.71875"/>
       <use xlink:href="#DejaVuSans-43" x="1297.927734"/>
       <use xlink:href="#DejaVuSans-47" x="1367.751953"/>
       <use xlink:href="#DejaVuSans-41" x="1445.242188"/>
      </g>
     </g>
    </g>
    <g id="ytick_5">
     <g id="line2d_5">
      <g>
       <use xlink:href="#m92c37dd165" x="199.990625" y="200.726651" style="stroke: #000000; stroke-width: 0.8"/>
      </g>
     </g>
     <g id="text_13">
      <!-- kaiko.ai - DINO ViT-S8 | TCGA -->
      <g transform="translate(48.142187 203.368839) scale(0.1 -0.1)">
       <use xlink:href="#DejaVuSans-6b"/>
       <use xlink:href="#DejaVuSans-61" x="56.160156"/>
       <use xlink:href="#DejaVuSans-69" x="117.439453"/>
       <use xlink:href="#DejaVuSans-6b" x="145.222656"/>
       <use xlink:href="#DejaVuSans-6f" x="199.507812"/>
       <use xlink:href="#DejaVuSans-2e" x="258.939453"/>
       <use xlink:href="#DejaVuSans-61" x="290.726562"/>
       <use xlink:href="#DejaVuSans-69" x="352.005859"/>
       <use xlink:href="#DejaVuSans-20" x="379.789062"/>
       <use xlink:href="#DejaVuSans-2d" x="411.576172"/>
       <use xlink:href="#DejaVuSans-20" x="447.660156"/>
       <use xlink:href="#DejaVuSans-44" x="479.447266"/>
       <use xlink:href="#DejaVuSans-49" x="556.449219"/>
       <use xlink:href="#DejaVuSans-4e" x="585.941406"/>
       <use xlink:href="#DejaVuSans-4f" x="660.746094"/>
       <use xlink:href="#DejaVuSans-20" x="739.457031"/>
       <use xlink:href="#DejaVuSans-56" x="771.244141"/>
       <use xlink:href="#DejaVuSans-69" x="837.402344"/>
       <use xlink:href="#DejaVuSans-54" x="865.185547"/>
       <use xlink:href="#DejaVuSans-2d" x="917.144531"/>
       <use xlink:href="#DejaVuSans-53" x="953.228516"/>
       <use xlink:href="#DejaVuSans-38" x="1016.705078"/>
       <use xlink:href="#DejaVuSans-20" x="1080.328125"/>
       <use xlink:href="#DejaVuSans-7c" x="1112.115234"/>
       <use xlink:href="#DejaVuSans-20" x="1145.806641"/>
       <use xlink:href="#DejaVuSans-54" x="1177.59375"/>
       <use xlink:href="#DejaVuSans-43" x="1232.802734"/>
       <use xlink:href="#DejaVuSans-47" x="1302.626953"/>
       <use xlink:href="#DejaVuSans-41" x="1380.117188"/>
      </g>
     </g>
    </g>
    <g id="ytick_6">
     <g id="line2d_6">
      <g>
       <use xlink:href="#m92c37dd165" x="199.990625" y="235.376651" style="stroke: #000000; stroke-width: 0.8"/>
      </g>
     </g>
     <g id="text_14">
      <!-- kaiko.ai - DINO ViT-S16 | TCGA -->
      <g transform="translate(41.779687 238.018839) scale(0.1 -0.1)">
       <use xlink:href="#DejaVuSans-6b"/>
       <use xlink:href="#DejaVuSans-61" x="56.160156"/>
       <use xlink:href="#DejaVuSans-69" x="117.439453"/>
       <use xlink:href="#DejaVuSans-6b" x="145.222656"/>
       <use xlink:href="#DejaVuSans-6f" x="199.507812"/>
       <use xlink:href="#DejaVuSans-2e" x="258.939453"/>
       <use xlink:href="#DejaVuSans-61" x="290.726562"/>
       <use xlink:href="#DejaVuSans-69" x="352.005859"/>
       <use xlink:href="#DejaVuSans-20" x="379.789062"/>
       <use xlink:href="#DejaVuSans-2d" x="411.576172"/>
       <use xlink:href="#DejaVuSans-20" x="447.660156"/>
       <use xlink:href="#DejaVuSans-44" x="479.447266"/>
       <use xlink:href="#DejaVuSans-49" x="556.449219"/>
       <use xlink:href="#DejaVuSans-4e" x="585.941406"/>
       <use xlink:href="#DejaVuSans-4f" x="660.746094"/>
       <use xlink:href="#DejaVuSans-20" x="739.457031"/>
       <use xlink:href="#DejaVuSans-56" x="771.244141"/>
       <use xlink:href="#DejaVuSans-69" x="837.402344"/>
       <use xlink:href="#DejaVuSans-54" x="865.185547"/>
       <use xlink:href="#DejaVuSans-2d" x="917.144531"/>
       <use xlink:href="#DejaVuSans-53" x="953.228516"/>
       <use xlink:href="#DejaVuSans-31" x="1016.705078"/>
       <use xlink:href="#DejaVuSans-36" x="1080.328125"/>
       <use xlink:href="#DejaVuSans-20" x="1143.951172"/>
       <use xlink:href="#DejaVuSans-7c" x="1175.738281"/>
       <use xlink:href="#DejaVuSans-20" x="1209.429688"/>
       <use xlink:href="#DejaVuSans-54" x="1241.216797"/>
       <use xlink:href="#DejaVuSans-43" x="1296.425781"/>
       <use xlink:href="#DejaVuSans-47" x="1366.25"/>
       <use xlink:href="#DejaVuSans-41" x="1443.740234"/>
      </g>
     </g>
    </g>
    <g id="ytick_7">
     <g id="line2d_7">
      <g>
       <use xlink:href="#m92c37dd165" x="199.990625" y="270.026651" style="stroke: #000000; stroke-width: 0.8"/>
      </g>
     </g>
     <g id="text_15">
      <!-- Owkin (Phikon) - iBOT ViT-B16 | TCGA -->
      <g transform="translate(7.2 272.668839) scale(0.1 -0.1)">
       <defs>
        <path id="DejaVuSans-77" d="M 269 3500 
L 844 3500 
L 1563 769 
L 2278 3500 
L 2956 3500 
L 3675 769 
L 4391 3500 
L 4966 3500 
L 4050 0 
L 3372 0 
L 2619 2869 
L 1863 0 
L 1184 0 
L 269 3500 
z
" transform="scale(0.015625)"/>
        <path id="DejaVuSans-28" d="M 1984 4856 
Q 1566 4138 1362 3434 
Q 1159 2731 1159 2009 
Q 1159 1288 1364 580 
Q 1569 -128 1984 -844 
L 1484 -844 
Q 1016 -109 783 600 
Q 550 1309 550 2009 
Q 550 2706 781 3412 
Q 1013 4119 1484 4856 
L 1984 4856 
z
" transform="scale(0.015625)"/>
        <path id="DejaVuSans-68" d="M 3513 2113 
L 3513 0 
L 2938 0 
L 2938 2094 
Q 2938 2591 2744 2837 
Q 2550 3084 2163 3084 
Q 1697 3084 1428 2787 
Q 1159 2491 1159 1978 
L 1159 0 
L 581 0 
L 581 4863 
L 1159 4863 
L 1159 2956 
Q 1366 3272 1645 3428 
Q 1925 3584 2291 3584 
Q 2894 3584 3203 3211 
Q 3513 2838 3513 2113 
z
" transform="scale(0.015625)"/>
        <path id="DejaVuSans-29" d="M 513 4856 
L 1013 4856 
Q 1481 4119 1714 3412 
Q 1947 2706 1947 2009 
Q 1947 1309 1714 600 
Q 1481 -109 1013 -844 
L 513 -844 
Q 928 -128 1133 580 
Q 1338 1288 1338 2009 
Q 1338 2731 1133 3434 
Q 928 4138 513 4856 
z
" transform="scale(0.015625)"/>
       </defs>
       <use xlink:href="#DejaVuSans-4f"/>
       <use xlink:href="#DejaVuSans-77" x="78.710938"/>
       <use xlink:href="#DejaVuSans-6b" x="160.498047"/>
       <use xlink:href="#DejaVuSans-69" x="218.408203"/>
       <use xlink:href="#DejaVuSans-6e" x="246.191406"/>
       <use xlink:href="#DejaVuSans-20" x="309.570312"/>
       <use xlink:href="#DejaVuSans-28" x="341.357422"/>
       <use xlink:href="#DejaVuSans-50" x="380.371094"/>
       <use xlink:href="#DejaVuSans-68" x="440.673828"/>
       <use xlink:href="#DejaVuSans-69" x="504.052734"/>
       <use xlink:href="#DejaVuSans-6b" x="531.835938"/>
       <use xlink:href="#DejaVuSans-6f" x="586.121094"/>
       <use xlink:href="#DejaVuSans-6e" x="647.302734"/>
       <use xlink:href="#DejaVuSans-29" x="710.681641"/>
       <use xlink:href="#DejaVuSans-20" x="749.695312"/>
       <use xlink:href="#DejaVuSans-2d" x="781.482422"/>
       <use xlink:href="#DejaVuSans-20" x="817.566406"/>
       <use xlink:href="#DejaVuSans-69" x="849.353516"/>
       <use xlink:href="#DejaVuSans-42" x="877.136719"/>
       <use xlink:href="#DejaVuSans-4f" x="943.990234"/>
       <use xlink:href="#DejaVuSans-54" x="1022.701172"/>
       <use xlink:href="#DejaVuSans-20" x="1083.785156"/>
       <use xlink:href="#DejaVuSans-56" x="1115.572266"/>
       <use xlink:href="#DejaVuSans-69" x="1181.730469"/>
       <use xlink:href="#DejaVuSans-54" x="1209.513672"/>
       <use xlink:href="#DejaVuSans-2d" x="1261.472656"/>
       <use xlink:href="#DejaVuSans-42" x="1293.931641"/>
       <use xlink:href="#DejaVuSans-31" x="1362.535156"/>
       <use xlink:href="#DejaVuSans-36" x="1426.158203"/>
       <use xlink:href="#DejaVuSans-20" x="1489.78125"/>
       <use xlink:href="#DejaVuSans-7c" x="1521.568359"/>
       <use xlink:href="#DejaVuSans-20" x="1555.259766"/>
       <use xlink:href="#DejaVuSans-54" x="1587.046875"/>
       <use xlink:href="#DejaVuSans-43" x="1642.255859"/>
       <use xlink:href="#DejaVuSans-47" x="1712.080078"/>
       <use xlink:href="#DejaVuSans-41" x="1789.570312"/>
      </g>
     </g>
    </g>
    <g id="ytick_8">
     <g id="line2d_8">
      <g>
       <use xlink:href="#m92c37dd165" x="199.990625" y="304.676651" style="stroke: #000000; stroke-width: 0.8"/>
      </g>
     </g>
     <g id="text_16">
      <!-- Lunit - ViT-S16 | TCGA -->
      <g transform="translate(84.16875 307.318839) scale(0.1 -0.1)">
       <defs>
        <path id="DejaVuSans-74" d="M 1172 4494 
L 1172 3500 
L 2356 3500 
L 2356 3053 
L 1172 3053 
L 1172 1153 
Q 1172 725 1289 603 
Q 1406 481 1766 481 
L 2356 481 
L 2356 0 
L 1766 0 
Q 1100 0 847 248 
Q 594 497 594 1153 
L 594 3053 
L 172 3053 
L 172 3500 
L 594 3500 
L 594 4494 
L 1172 4494 
z
" transform="scale(0.015625)"/>
       </defs>
       <use xlink:href="#DejaVuSans-4c"/>
       <use xlink:href="#DejaVuSans-75" x="53.962891"/>
       <use xlink:href="#DejaVuSans-6e" x="117.341797"/>
       <use xlink:href="#DejaVuSans-69" x="180.720703"/>
       <use xlink:href="#DejaVuSans-74" x="208.503906"/>
       <use xlink:href="#DejaVuSans-20" x="247.712891"/>
       <use xlink:href="#DejaVuSans-2d" x="279.5"/>
       <use xlink:href="#DejaVuSans-20" x="315.583984"/>
       <use xlink:href="#DejaVuSans-56" x="347.371094"/>
       <use xlink:href="#DejaVuSans-69" x="413.529297"/>
       <use xlink:href="#DejaVuSans-54" x="441.3125"/>
       <use xlink:href="#DejaVuSans-2d" x="493.271484"/>
       <use xlink:href="#DejaVuSans-53" x="529.355469"/>
       <use xlink:href="#DejaVuSans-31" x="592.832031"/>
       <use xlink:href="#DejaVuSans-36" x="656.455078"/>
       <use xlink:href="#DejaVuSans-20" x="720.078125"/>
       <use xlink:href="#DejaVuSans-7c" x="751.865234"/>
       <use xlink:href="#DejaVuSans-20" x="785.556641"/>
       <use xlink:href="#DejaVuSans-54" x="817.34375"/>
       <use xlink:href="#DejaVuSans-43" x="872.552734"/>
       <use xlink:href="#DejaVuSans-47" x="942.376953"/>
       <use xlink:href="#DejaVuSans-41" x="1019.867188"/>
      </g>
     </g>
    </g>
   </g>
   <g id="text_17">
    <!-- 0.867 -->
    <g style="fill: #ffffff" transform="translate(213.576562 64.886026) scale(0.1 -0.1)">
     <defs>
      <path id="DejaVuSans-37" d="M 525 4666 
L 3525 4666 
L 3525 4397 
L 1831 0 
L 1172 0 
L 2766 4134 
L 525 4134 
L 525 4666 
z
" transform="scale(0.015625)"/>
     </defs>
     <use xlink:href="#DejaVuSans-30"/>
     <use xlink:href="#DejaVuSans-2e" x="63.623047"/>
     <use xlink:href="#DejaVuSans-38" x="95.410156"/>
     <use xlink:href="#DejaVuSans-36" x="159.033203"/>
     <use xlink:href="#DejaVuSans-37" x="222.65625"/>
    </g>
   </g>
   <g id="text_18">
    <!-- 0.952 -->
    <g style="fill: #ffffff" transform="translate(269.376562 64.886026) scale(0.1 -0.1)">
     <defs>
      <path id="DejaVuSans-39" d="M 703 97 
L 703 672 
Q 941 559 1184 500 
Q 1428 441 1663 441 
Q 2288 441 2617 861 
Q 2947 1281 2994 2138 
Q 2813 1869 2534 1725 
Q 2256 1581 1919 1581 
Q 1219 1581 811 2004 
Q 403 2428 403 3163 
Q 403 3881 828 4315 
Q 1253 4750 1959 4750 
Q 2769 4750 3195 4129 
Q 3622 3509 3622 2328 
Q 3622 1225 3098 567 
Q 2575 -91 1691 -91 
Q 1453 -91 1209 -44 
Q 966 3 703 97 
z
M 1959 2075 
Q 2384 2075 2632 2365 
Q 2881 2656 2881 3163 
Q 2881 3666 2632 3958 
Q 2384 4250 1959 4250 
Q 1534 4250 1286 3958 
Q 1038 3666 1038 3163 
Q 1038 2656 1286 2365 
Q 1534 2075 1959 2075 
z
" transform="scale(0.015625)"/>
      <path id="DejaVuSans-35" d="M 691 4666 
L 3169 4666 
L 3169 4134 
L 1269 4134 
L 1269 2991 
Q 1406 3038 1543 3061 
Q 1681 3084 1819 3084 
Q 2600 3084 3056 2656 
Q 3513 2228 3513 1497 
Q 3513 744 3044 326 
Q 2575 -91 1722 -91 
Q 1428 -91 1123 -41 
Q 819 9 494 109 
L 494 744 
Q 775 591 1075 516 
Q 1375 441 1709 441 
Q 2250 441 2565 725 
Q 2881 1009 2881 1497 
Q 2881 1984 2565 2268 
Q 2250 2553 1709 2553 
Q 1456 2553 1204 2497 
Q 953 2441 691 2322 
L 691 4666 
z
" transform="scale(0.015625)"/>
     </defs>
     <use xlink:href="#DejaVuSans-30"/>
     <use xlink:href="#DejaVuSans-2e" x="63.623047"/>
     <use xlink:href="#DejaVuSans-39" x="95.410156"/>
     <use xlink:href="#DejaVuSans-35" x="159.033203"/>
     <use xlink:href="#DejaVuSans-32" x="222.65625"/>
    </g>
   </g>
   <g id="text_19">
    <!-- 0.814 -->
    <g style="fill: #ffffff" transform="translate(325.176563 64.886026) scale(0.1 -0.1)">
     <use xlink:href="#DejaVuSans-30"/>
     <use xlink:href="#DejaVuSans-2e" x="63.623047"/>
     <use xlink:href="#DejaVuSans-38" x="95.410156"/>
     <use xlink:href="#DejaVuSans-31" x="159.033203"/>
     <use xlink:href="#DejaVuSans-34" x="222.65625"/>
    </g>
   </g>
   <g id="text_20">
    <!-- 0.921 -->
    <g style="fill: #ffffff" transform="translate(380.976562 64.886026) scale(0.1 -0.1)">
     <use xlink:href="#DejaVuSans-30"/>
     <use xlink:href="#DejaVuSans-2e" x="63.623047"/>
     <use xlink:href="#DejaVuSans-39" x="95.410156"/>
     <use xlink:href="#DejaVuSans-32" x="159.033203"/>
     <use xlink:href="#DejaVuSans-31" x="222.65625"/>
    </g>
   </g>
   <g id="text_21">
    <!-- 0.939 -->
    <g style="fill: #ffffff" transform="translate(436.776563 64.886026) scale(0.1 -0.1)">
     <defs>
      <path id="DejaVuSans-33" d="M 2597 2516 
Q 3050 2419 3304 2112 
Q 3559 1806 3559 1356 
Q 3559 666 3084 287 
Q 2609 -91 1734 -91 
Q 1441 -91 1130 -33 
Q 819 25 488 141 
L 488 750 
Q 750 597 1062 519 
Q 1375 441 1716 441 
Q 2309 441 2620 675 
Q 2931 909 2931 1356 
Q 2931 1769 2642 2001 
Q 2353 2234 1838 2234 
L 1294 2234 
L 1294 2753 
L 1863 2753 
Q 2328 2753 2575 2939 
Q 2822 3125 2822 3475 
Q 2822 3834 2567 4026 
Q 2313 4219 1838 4219 
Q 1578 4219 1281 4162 
Q 984 4106 628 3988 
L 628 4550 
Q 988 4650 1302 4700 
Q 1616 4750 1894 4750 
Q 2613 4750 3031 4423 
Q 3450 4097 3450 3541 
Q 3450 3153 3228 2886 
Q 3006 2619 2597 2516 
z
" transform="scale(0.015625)"/>
     </defs>
     <use xlink:href="#DejaVuSans-30"/>
     <use xlink:href="#DejaVuSans-2e" x="63.623047"/>
     <use xlink:href="#DejaVuSans-39" x="95.410156"/>
     <use xlink:href="#DejaVuSans-33" x="159.033203"/>
     <use xlink:href="#DejaVuSans-39" x="222.65625"/>
    </g>
   </g>
   <g id="text_22">
    <!-- 0.761 -->
    <g style="fill: #ffffff" transform="translate(492.576563 64.886026) scale(0.1 -0.1)">
     <use xlink:href="#DejaVuSans-30"/>
     <use xlink:href="#DejaVuSans-2e" x="63.623047"/>
     <use xlink:href="#DejaVuSans-37" x="95.410156"/>
     <use xlink:href="#DejaVuSans-36" x="159.033203"/>
     <use xlink:href="#DejaVuSans-31" x="222.65625"/>
    </g>
   </g>
   <g id="text_23">
    <!-- 0.706 -->
    <g style="fill: #ffffff" transform="translate(548.376562 64.886026) scale(0.1 -0.1)">
     <use xlink:href="#DejaVuSans-30"/>
     <use xlink:href="#DejaVuSans-2e" x="63.623047"/>
     <use xlink:href="#DejaVuSans-37" x="95.410156"/>
     <use xlink:href="#DejaVuSans-30" x="159.033203"/>
     <use xlink:href="#DejaVuSans-36" x="222.65625"/>
    </g>
   </g>
   <g id="text_24">
    <!-- 0.661 -->
    <g style="fill: #ffffff" transform="translate(604.176563 64.886026) scale(0.1 -0.1)">
     <use xlink:href="#DejaVuSans-30"/>
     <use xlink:href="#DejaVuSans-2e" x="63.623047"/>
     <use xlink:href="#DejaVuSans-36" x="95.410156"/>
     <use xlink:href="#DejaVuSans-36" x="159.033203"/>
     <use xlink:href="#DejaVuSans-31" x="222.65625"/>
    </g>
   </g>
   <g id="text_25">
    <!-- 0.862 -->
    <g style="fill: #ffffff" transform="translate(213.576562 99.536026) scale(0.1 -0.1)">
     <use xlink:href="#DejaVuSans-30"/>
     <use xlink:href="#DejaVuSans-2e" x="63.623047"/>
     <use xlink:href="#DejaVuSans-38" x="95.410156"/>
     <use xlink:href="#DejaVuSans-36" x="159.033203"/>
     <use xlink:href="#DejaVuSans-32" x="222.65625"/>
    </g>
   </g>
   <g id="text_26">
    <!-- 0.935 -->
    <g style="fill: #262626" transform="translate(269.376562 99.536026) scale(0.1 -0.1)">
     <use xlink:href="#DejaVuSans-30"/>
     <use xlink:href="#DejaVuSans-2e" x="63.623047"/>
     <use xlink:href="#DejaVuSans-39" x="95.410156"/>
     <use xlink:href="#DejaVuSans-33" x="159.033203"/>
     <use xlink:href="#DejaVuSans-35" x="222.65625"/>
    </g>
   </g>
   <g id="text_27">
    <!-- 0.822 -->
    <g style="fill: #ffffff" transform="translate(325.176563 99.536026) scale(0.1 -0.1)">
     <use xlink:href="#DejaVuSans-30"/>
     <use xlink:href="#DejaVuSans-2e" x="63.623047"/>
     <use xlink:href="#DejaVuSans-38" x="95.410156"/>
     <use xlink:href="#DejaVuSans-32" x="159.033203"/>
     <use xlink:href="#DejaVuSans-32" x="222.65625"/>
    </g>
   </g>
   <g id="text_28">
    <!-- 0.907 -->
    <g style="fill: #ffffff" transform="translate(380.976562 99.536026) scale(0.1 -0.1)">
     <use xlink:href="#DejaVuSans-30"/>
     <use xlink:href="#DejaVuSans-2e" x="63.623047"/>
     <use xlink:href="#DejaVuSans-39" x="95.410156"/>
     <use xlink:href="#DejaVuSans-30" x="159.033203"/>
     <use xlink:href="#DejaVuSans-37" x="222.65625"/>
    </g>
   </g>
   <g id="text_29">
    <!-- 0.941 -->
    <g style="fill: #ffffff" transform="translate(436.776563 99.536026) scale(0.1 -0.1)">
     <use xlink:href="#DejaVuSans-30"/>
     <use xlink:href="#DejaVuSans-2e" x="63.623047"/>
     <use xlink:href="#DejaVuSans-39" x="95.410156"/>
     <use xlink:href="#DejaVuSans-34" x="159.033203"/>
     <use xlink:href="#DejaVuSans-31" x="222.65625"/>
    </g>
   </g>
   <g id="text_30">
    <!-- 0.769 -->
    <g style="fill: #ffffff" transform="translate(492.576563 99.536026) scale(0.1 -0.1)">
     <use xlink:href="#DejaVuSans-30"/>
     <use xlink:href="#DejaVuSans-2e" x="63.623047"/>
     <use xlink:href="#DejaVuSans-37" x="95.410156"/>
     <use xlink:href="#DejaVuSans-36" x="159.033203"/>
     <use xlink:href="#DejaVuSans-39" x="222.65625"/>
    </g>
   </g>
   <g id="text_31">
    <!-- 0.686 -->
    <g style="fill: #ffffff" transform="translate(548.376562 99.536026) scale(0.1 -0.1)">
     <use xlink:href="#DejaVuSans-30"/>
     <use xlink:href="#DejaVuSans-2e" x="63.623047"/>
     <use xlink:href="#DejaVuSans-36" x="95.410156"/>
     <use xlink:href="#DejaVuSans-38" x="159.033203"/>
     <use xlink:href="#DejaVuSans-36" x="222.65625"/>
    </g>
   </g>
   <g id="text_32">
    <!-- 0.599 -->
    <g style="fill: #ffffff" transform="translate(604.176563 99.536026) scale(0.1 -0.1)">
     <use xlink:href="#DejaVuSans-30"/>
     <use xlink:href="#DejaVuSans-2e" x="63.623047"/>
     <use xlink:href="#DejaVuSans-35" x="95.410156"/>
     <use xlink:href="#DejaVuSans-39" x="159.033203"/>
     <use xlink:href="#DejaVuSans-39" x="222.65625"/>
    </g>
   </g>
   <g id="text_33">
    <!-- 0.797 -->
    <g style="fill: #ffffff" transform="translate(213.576562 134.186026) scale(0.1 -0.1)">
     <use xlink:href="#DejaVuSans-30"/>
     <use xlink:href="#DejaVuSans-2e" x="63.623047"/>
     <use xlink:href="#DejaVuSans-37" x="95.410156"/>
     <use xlink:href="#DejaVuSans-39" x="159.033203"/>
     <use xlink:href="#DejaVuSans-37" x="222.65625"/>
    </g>
   </g>
   <g id="text_34">
    <!-- 0.950 -->
    <g style="fill: #ffffff" transform="translate(269.376562 134.186026) scale(0.1 -0.1)">
     <use xlink:href="#DejaVuSans-30"/>
     <use xlink:href="#DejaVuSans-2e" x="63.623047"/>
     <use xlink:href="#DejaVuSans-39" x="95.410156"/>
     <use xlink:href="#DejaVuSans-35" x="159.033203"/>
     <use xlink:href="#DejaVuSans-30" x="222.65625"/>
    </g>
   </g>
   <g id="text_35">
    <!-- 0.835 -->
    <g style="fill: #ffffff" transform="translate(325.176563 134.186026) scale(0.1 -0.1)">
     <use xlink:href="#DejaVuSans-30"/>
     <use xlink:href="#DejaVuSans-2e" x="63.623047"/>
     <use xlink:href="#DejaVuSans-38" x="95.410156"/>
     <use xlink:href="#DejaVuSans-33" x="159.033203"/>
     <use xlink:href="#DejaVuSans-35" x="222.65625"/>
    </g>
   </g>
   <g id="text_36">
    <!-- 0.939 -->
    <g style="fill: #ffffff" transform="translate(380.976562 134.186026) scale(0.1 -0.1)">
     <use xlink:href="#DejaVuSans-30"/>
     <use xlink:href="#DejaVuSans-2e" x="63.623047"/>
     <use xlink:href="#DejaVuSans-39" x="95.410156"/>
     <use xlink:href="#DejaVuSans-33" x="159.033203"/>
     <use xlink:href="#DejaVuSans-39" x="222.65625"/>
    </g>
   </g>
   <g id="text_37">
    <!-- 0.933 -->
    <g style="fill: #ffffff" transform="translate(436.776563 134.186026) scale(0.1 -0.1)">
     <use xlink:href="#DejaVuSans-30"/>
     <use xlink:href="#DejaVuSans-2e" x="63.623047"/>
     <use xlink:href="#DejaVuSans-39" x="95.410156"/>
     <use xlink:href="#DejaVuSans-33" x="159.033203"/>
     <use xlink:href="#DejaVuSans-33" x="222.65625"/>
    </g>
   </g>
   <g id="text_38">
    <!-- 0.774 -->
    <g style="fill: #ffffff" transform="translate(492.576563 134.186026) scale(0.1 -0.1)">
     <use xlink:href="#DejaVuSans-30"/>
     <use xlink:href="#DejaVuSans-2e" x="63.623047"/>
     <use xlink:href="#DejaVuSans-37" x="95.410156"/>
     <use xlink:href="#DejaVuSans-37" x="159.033203"/>
     <use xlink:href="#DejaVuSans-34" x="222.65625"/>
    </g>
   </g>
   <g id="text_39">
    <!-- 0.670 -->
    <g style="fill: #ffffff" transform="translate(548.376562 134.186026) scale(0.1 -0.1)">
     <use xlink:href="#DejaVuSans-30"/>
     <use xlink:href="#DejaVuSans-2e" x="63.623047"/>
     <use xlink:href="#DejaVuSans-36" x="95.410156"/>
     <use xlink:href="#DejaVuSans-37" x="159.033203"/>
     <use xlink:href="#DejaVuSans-30" x="222.65625"/>
    </g>
   </g>
   <g id="text_40">
    <!-- 0.575 -->
    <g style="fill: #262626" transform="translate(604.176563 134.186026) scale(0.1 -0.1)">
     <use xlink:href="#DejaVuSans-30"/>
     <use xlink:href="#DejaVuSans-2e" x="63.623047"/>
     <use xlink:href="#DejaVuSans-35" x="95.410156"/>
     <use xlink:href="#DejaVuSans-37" x="159.033203"/>
     <use xlink:href="#DejaVuSans-35" x="222.65625"/>
    </g>
   </g>
   <g id="text_41">
    <!-- 0.846 -->
    <g style="fill: #ffffff" transform="translate(213.576562 168.836026) scale(0.1 -0.1)">
     <use xlink:href="#DejaVuSans-30"/>
     <use xlink:href="#DejaVuSans-2e" x="63.623047"/>
     <use xlink:href="#DejaVuSans-38" x="95.410156"/>
     <use xlink:href="#DejaVuSans-34" x="159.033203"/>
     <use xlink:href="#DejaVuSans-36" x="222.65625"/>
    </g>
   </g>
   <g id="text_42">
    <!-- 0.959 -->
    <g style="fill: #ffffff" transform="translate(269.376562 168.836026) scale(0.1 -0.1)">
     <use xlink:href="#DejaVuSans-30"/>
     <use xlink:href="#DejaVuSans-2e" x="63.623047"/>
     <use xlink:href="#DejaVuSans-39" x="95.410156"/>
     <use xlink:href="#DejaVuSans-35" x="159.033203"/>
     <use xlink:href="#DejaVuSans-39" x="222.65625"/>
    </g>
   </g>
   <g id="text_43">
    <!-- 0.839 -->
    <g style="fill: #ffffff" transform="translate(325.176563 168.836026) scale(0.1 -0.1)">
     <use xlink:href="#DejaVuSans-30"/>
     <use xlink:href="#DejaVuSans-2e" x="63.623047"/>
     <use xlink:href="#DejaVuSans-38" x="95.410156"/>
     <use xlink:href="#DejaVuSans-33" x="159.033203"/>
     <use xlink:href="#DejaVuSans-39" x="222.65625"/>
    </g>
   </g>
   <g id="text_44">
    <!-- 0.906 -->
    <g style="fill: #ffffff" transform="translate(380.976562 168.836026) scale(0.1 -0.1)">
     <use xlink:href="#DejaVuSans-30"/>
     <use xlink:href="#DejaVuSans-2e" x="63.623047"/>
     <use xlink:href="#DejaVuSans-39" x="95.410156"/>
     <use xlink:href="#DejaVuSans-30" x="159.033203"/>
     <use xlink:href="#DejaVuSans-36" x="222.65625"/>
    </g>
   </g>
   <g id="text_45">
    <!-- 0.891 -->
    <g style="fill: #262626" transform="translate(436.776563 168.836026) scale(0.1 -0.1)">
     <use xlink:href="#DejaVuSans-30"/>
     <use xlink:href="#DejaVuSans-2e" x="63.623047"/>
     <use xlink:href="#DejaVuSans-38" x="95.410156"/>
     <use xlink:href="#DejaVuSans-39" x="159.033203"/>
     <use xlink:href="#DejaVuSans-31" x="222.65625"/>
    </g>
   </g>
   <g id="text_46">
    <!-- 0.753 -->
    <g style="fill: #262626" transform="translate(492.576563 168.836026) scale(0.1 -0.1)">
     <use xlink:href="#DejaVuSans-30"/>
     <use xlink:href="#DejaVuSans-2e" x="63.623047"/>
     <use xlink:href="#DejaVuSans-37" x="95.410156"/>
     <use xlink:href="#DejaVuSans-35" x="159.033203"/>
     <use xlink:href="#DejaVuSans-33" x="222.65625"/>
    </g>
   </g>
   <g id="text_47">
    <!-- 0.647 -->
    <g style="fill: #262626" transform="translate(548.376562 168.836026) scale(0.1 -0.1)">
     <use xlink:href="#DejaVuSans-30"/>
     <use xlink:href="#DejaVuSans-2e" x="63.623047"/>
     <use xlink:href="#DejaVuSans-36" x="95.410156"/>
     <use xlink:href="#DejaVuSans-34" x="159.033203"/>
     <use xlink:href="#DejaVuSans-37" x="222.65625"/>
    </g>
   </g>
   <g id="text_48">
    <!-- 0.572 -->
    <g style="fill: #262626" transform="translate(604.176563 168.836026) scale(0.1 -0.1)">
     <use xlink:href="#DejaVuSans-30"/>
     <use xlink:href="#DejaVuSans-2e" x="63.623047"/>
     <use xlink:href="#DejaVuSans-35" x="95.410156"/>
     <use xlink:href="#DejaVuSans-37" x="159.033203"/>
     <use xlink:href="#DejaVuSans-32" x="222.65625"/>
    </g>
   </g>
   <g id="text_49">
    <!-- 0.825 -->
    <g style="fill: #ffffff" transform="translate(213.576562 203.486026) scale(0.1 -0.1)">
     <use xlink:href="#DejaVuSans-30"/>
     <use xlink:href="#DejaVuSans-2e" x="63.623047"/>
     <use xlink:href="#DejaVuSans-38" x="95.410156"/>
     <use xlink:href="#DejaVuSans-32" x="159.033203"/>
     <use xlink:href="#DejaVuSans-35" x="222.65625"/>
    </g>
   </g>
   <g id="text_50">
    <!-- 0.948 -->
    <g style="fill: #ffffff" transform="translate(269.376562 203.486026) scale(0.1 -0.1)">
     <use xlink:href="#DejaVuSans-30"/>
     <use xlink:href="#DejaVuSans-2e" x="63.623047"/>
     <use xlink:href="#DejaVuSans-39" x="95.410156"/>
     <use xlink:href="#DejaVuSans-34" x="159.033203"/>
     <use xlink:href="#DejaVuSans-38" x="222.65625"/>
    </g>
   </g>
   <g id="text_51">
    <!-- 0.826 -->
    <g style="fill: #ffffff" transform="translate(325.176563 203.486026) scale(0.1 -0.1)">
     <use xlink:href="#DejaVuSans-30"/>
     <use xlink:href="#DejaVuSans-2e" x="63.623047"/>
     <use xlink:href="#DejaVuSans-38" x="95.410156"/>
     <use xlink:href="#DejaVuSans-32" x="159.033203"/>
     <use xlink:href="#DejaVuSans-36" x="222.65625"/>
    </g>
   </g>
   <g id="text_52">
    <!-- 0.887 -->
    <g style="fill: #262626" transform="translate(380.976562 203.486026) scale(0.1 -0.1)">
     <use xlink:href="#DejaVuSans-30"/>
     <use xlink:href="#DejaVuSans-2e" x="63.623047"/>
     <use xlink:href="#DejaVuSans-38" x="95.410156"/>
     <use xlink:href="#DejaVuSans-38" x="159.033203"/>
     <use xlink:href="#DejaVuSans-37" x="222.65625"/>
    </g>
   </g>
   <g id="text_53">
    <!-- 0.879 -->
    <g style="fill: #262626" transform="translate(436.776563 203.486026) scale(0.1 -0.1)">
     <use xlink:href="#DejaVuSans-30"/>
     <use xlink:href="#DejaVuSans-2e" x="63.623047"/>
     <use xlink:href="#DejaVuSans-38" x="95.410156"/>
     <use xlink:href="#DejaVuSans-37" x="159.033203"/>
     <use xlink:href="#DejaVuSans-39" x="222.65625"/>
    </g>
   </g>
   <g id="text_54">
    <!-- 0.741 -->
    <g style="fill: #262626" transform="translate(492.576563 203.486026) scale(0.1 -0.1)">
     <use xlink:href="#DejaVuSans-30"/>
     <use xlink:href="#DejaVuSans-2e" x="63.623047"/>
     <use xlink:href="#DejaVuSans-37" x="95.410156"/>
     <use xlink:href="#DejaVuSans-34" x="159.033203"/>
     <use xlink:href="#DejaVuSans-31" x="222.65625"/>
    </g>
   </g>
   <g id="text_55">
    <!-- 0.677 -->
    <g style="fill: #ffffff" transform="translate(548.376562 203.486026) scale(0.1 -0.1)">
     <use xlink:href="#DejaVuSans-30"/>
     <use xlink:href="#DejaVuSans-2e" x="63.623047"/>
     <use xlink:href="#DejaVuSans-36" x="95.410156"/>
     <use xlink:href="#DejaVuSans-37" x="159.033203"/>
     <use xlink:href="#DejaVuSans-37" x="222.65625"/>
    </g>
   </g>
   <g id="text_56">
    <!-- 0.617 -->
    <g style="fill: #ffffff" transform="translate(604.176563 203.486026) scale(0.1 -0.1)">
     <use xlink:href="#DejaVuSans-30"/>
     <use xlink:href="#DejaVuSans-2e" x="63.623047"/>
     <use xlink:href="#DejaVuSans-36" x="95.410156"/>
     <use xlink:href="#DejaVuSans-31" x="159.033203"/>
     <use xlink:href="#DejaVuSans-37" x="222.65625"/>
    </g>
   </g>
   <g id="text_57">
    <!-- 0.800 -->
    <g style="fill: #ffffff" transform="translate(213.576562 238.136026) scale(0.1 -0.1)">
     <use xlink:href="#DejaVuSans-30"/>
     <use xlink:href="#DejaVuSans-2e" x="63.623047"/>
     <use xlink:href="#DejaVuSans-38" x="95.410156"/>
     <use xlink:href="#DejaVuSans-30" x="159.033203"/>
     <use xlink:href="#DejaVuSans-30" x="222.65625"/>
    </g>
   </g>
   <g id="text_58">
    <!-- 0.949 -->
    <g style="fill: #ffffff" transform="translate(269.376562 238.136026) scale(0.1 -0.1)">
     <use xlink:href="#DejaVuSans-30"/>
     <use xlink:href="#DejaVuSans-2e" x="63.623047"/>
     <use xlink:href="#DejaVuSans-39" x="95.410156"/>
     <use xlink:href="#DejaVuSans-34" x="159.033203"/>
     <use xlink:href="#DejaVuSans-39" x="222.65625"/>
    </g>
   </g>
   <g id="text_59">
    <!-- 0.831 -->
    <g style="fill: #ffffff" transform="translate(325.176563 238.136026) scale(0.1 -0.1)">
     <use xlink:href="#DejaVuSans-30"/>
     <use xlink:href="#DejaVuSans-2e" x="63.623047"/>
     <use xlink:href="#DejaVuSans-38" x="95.410156"/>
     <use xlink:href="#DejaVuSans-33" x="159.033203"/>
     <use xlink:href="#DejaVuSans-31" x="222.65625"/>
    </g>
   </g>
   <g id="text_60">
    <!-- 0.902 -->
    <g style="fill: #262626" transform="translate(380.976562 238.136026) scale(0.1 -0.1)">
     <use xlink:href="#DejaVuSans-30"/>
     <use xlink:href="#DejaVuSans-2e" x="63.623047"/>
     <use xlink:href="#DejaVuSans-39" x="95.410156"/>
     <use xlink:href="#DejaVuSans-30" x="159.033203"/>
     <use xlink:href="#DejaVuSans-32" x="222.65625"/>
    </g>
   </g>
   <g id="text_61">
    <!-- 0.897 -->
    <g style="fill: #ffffff" transform="translate(436.776563 238.136026) scale(0.1 -0.1)">
     <use xlink:href="#DejaVuSans-30"/>
     <use xlink:href="#DejaVuSans-2e" x="63.623047"/>
     <use xlink:href="#DejaVuSans-38" x="95.410156"/>
     <use xlink:href="#DejaVuSans-39" x="159.033203"/>
     <use xlink:href="#DejaVuSans-37" x="222.65625"/>
    </g>
   </g>
   <g id="text_62">
    <!-- 0.770 -->
    <g style="fill: #ffffff" transform="translate(492.576563 238.136026) scale(0.1 -0.1)">
     <use xlink:href="#DejaVuSans-30"/>
     <use xlink:href="#DejaVuSans-2e" x="63.623047"/>
     <use xlink:href="#DejaVuSans-37" x="95.410156"/>
     <use xlink:href="#DejaVuSans-37" x="159.033203"/>
     <use xlink:href="#DejaVuSans-30" x="222.65625"/>
    </g>
   </g>
   <g id="text_63">
    <!-- 0.622 -->
    <g style="fill: #262626" transform="translate(548.376562 238.136026) scale(0.1 -0.1)">
     <use xlink:href="#DejaVuSans-30"/>
     <use xlink:href="#DejaVuSans-2e" x="63.623047"/>
     <use xlink:href="#DejaVuSans-36" x="95.410156"/>
     <use xlink:href="#DejaVuSans-32" x="159.033203"/>
     <use xlink:href="#DejaVuSans-32" x="222.65625"/>
    </g>
   </g>
   <g id="text_64">
    <!-- 0.573 -->
    <g style="fill: #262626" transform="translate(604.176563 238.136026) scale(0.1 -0.1)">
     <use xlink:href="#DejaVuSans-30"/>
     <use xlink:href="#DejaVuSans-2e" x="63.623047"/>
     <use xlink:href="#DejaVuSans-35" x="95.410156"/>
     <use xlink:href="#DejaVuSans-37" x="159.033203"/>
     <use xlink:href="#DejaVuSans-33" x="222.65625"/>
    </g>
   </g>
   <g id="text_65">
    <!-- 0.715 -->
    <g style="fill: #262626" transform="translate(213.576562 272.786026) scale(0.1 -0.1)">
     <use xlink:href="#DejaVuSans-30"/>
     <use xlink:href="#DejaVuSans-2e" x="63.623047"/>
     <use xlink:href="#DejaVuSans-37" x="95.410156"/>
     <use xlink:href="#DejaVuSans-31" x="159.033203"/>
     <use xlink:href="#DejaVuSans-35" x="222.65625"/>
    </g>
   </g>
   <g id="text_66">
    <!-- 0.942 -->
    <g style="fill: #262626" transform="translate(269.376562 272.786026) scale(0.1 -0.1)">
     <use xlink:href="#DejaVuSans-30"/>
     <use xlink:href="#DejaVuSans-2e" x="63.623047"/>
     <use xlink:href="#DejaVuSans-39" x="95.410156"/>
     <use xlink:href="#DejaVuSans-34" x="159.033203"/>
     <use xlink:href="#DejaVuSans-32" x="222.65625"/>
    </g>
   </g>
   <g id="text_67">
    <!-- 0.766 -->
    <g style="fill: #262626" transform="translate(325.176563 272.786026) scale(0.1 -0.1)">
     <use xlink:href="#DejaVuSans-30"/>
     <use xlink:href="#DejaVuSans-2e" x="63.623047"/>
     <use xlink:href="#DejaVuSans-37" x="95.410156"/>
     <use xlink:href="#DejaVuSans-36" x="159.033203"/>
     <use xlink:href="#DejaVuSans-36" x="222.65625"/>
    </g>
   </g>
   <g id="text_68">
    <!-- 0.925 -->
    <g style="fill: #ffffff" transform="translate(380.976562 272.786026) scale(0.1 -0.1)">
     <use xlink:href="#DejaVuSans-30"/>
     <use xlink:href="#DejaVuSans-2e" x="63.623047"/>
     <use xlink:href="#DejaVuSans-39" x="95.410156"/>
     <use xlink:href="#DejaVuSans-32" x="159.033203"/>
     <use xlink:href="#DejaVuSans-35" x="222.65625"/>
    </g>
   </g>
   <g id="text_69">
    <!-- 0.879 -->
    <g style="fill: #262626" transform="translate(436.776563 272.786026) scale(0.1 -0.1)">
     <use xlink:href="#DejaVuSans-30"/>
     <use xlink:href="#DejaVuSans-2e" x="63.623047"/>
     <use xlink:href="#DejaVuSans-38" x="95.410156"/>
     <use xlink:href="#DejaVuSans-37" x="159.033203"/>
     <use xlink:href="#DejaVuSans-39" x="222.65625"/>
    </g>
   </g>
   <g id="text_70">
    <!-- 0.784 -->
    <g style="fill: #ffffff" transform="translate(492.576563 272.786026) scale(0.1 -0.1)">
     <use xlink:href="#DejaVuSans-30"/>
     <use xlink:href="#DejaVuSans-2e" x="63.623047"/>
     <use xlink:href="#DejaVuSans-37" x="95.410156"/>
     <use xlink:href="#DejaVuSans-38" x="159.033203"/>
     <use xlink:href="#DejaVuSans-34" x="222.65625"/>
    </g>
   </g>
   <g id="text_71">
    <!-- 0.680 -->
    <g style="fill: #ffffff" transform="translate(548.376562 272.786026) scale(0.1 -0.1)">
     <use xlink:href="#DejaVuSans-30"/>
     <use xlink:href="#DejaVuSans-2e" x="63.623047"/>
     <use xlink:href="#DejaVuSans-36" x="95.410156"/>
     <use xlink:href="#DejaVuSans-38" x="159.033203"/>
     <use xlink:href="#DejaVuSans-30" x="222.65625"/>
    </g>
   </g>
   <g id="text_72">
    <!-- 0.554 -->
    <g style="fill: #262626" transform="translate(604.176563 272.786026) scale(0.1 -0.1)">
     <use xlink:href="#DejaVuSans-30"/>
     <use xlink:href="#DejaVuSans-2e" x="63.623047"/>
     <use xlink:href="#DejaVuSans-35" x="95.410156"/>
     <use xlink:href="#DejaVuSans-35" x="159.033203"/>
     <use xlink:href="#DejaVuSans-34" x="222.65625"/>
    </g>
   </g>
   <g id="text_73">
    <!-- 0.770 -->
    <g style="fill: #262626" transform="translate(213.576562 307.436026) scale(0.1 -0.1)">
     <use xlink:href="#DejaVuSans-30"/>
     <use xlink:href="#DejaVuSans-2e" x="63.623047"/>
     <use xlink:href="#DejaVuSans-37" x="95.410156"/>
     <use xlink:href="#DejaVuSans-37" x="159.033203"/>
     <use xlink:href="#DejaVuSans-30" x="222.65625"/>
    </g>
   </g>
   <g id="text_74">
    <!-- 0.936 -->
    <g style="fill: #262626" transform="translate(269.376562 307.436026) scale(0.1 -0.1)">
     <use xlink:href="#DejaVuSans-30"/>
     <use xlink:href="#DejaVuSans-2e" x="63.623047"/>
     <use xlink:href="#DejaVuSans-39" x="95.410156"/>
     <use xlink:href="#DejaVuSans-33" x="159.033203"/>
     <use xlink:href="#DejaVuSans-36" x="222.65625"/>
    </g>
   </g>
   <g id="text_75">
    <!-- 0.751 -->
    <g style="fill: #262626" transform="translate(325.176563 307.436026) scale(0.1 -0.1)">
     <use xlink:href="#DejaVuSans-30"/>
     <use xlink:href="#DejaVuSans-2e" x="63.623047"/>
     <use xlink:href="#DejaVuSans-37" x="95.410156"/>
     <use xlink:href="#DejaVuSans-35" x="159.033203"/>
     <use xlink:href="#DejaVuSans-31" x="222.65625"/>
    </g>
   </g>
   <g id="text_76">
    <!-- 0.905 -->
    <g style="fill: #262626" transform="translate(380.976562 307.436026) scale(0.1 -0.1)">
     <use xlink:href="#DejaVuSans-30"/>
     <use xlink:href="#DejaVuSans-2e" x="63.623047"/>
     <use xlink:href="#DejaVuSans-39" x="95.410156"/>
     <use xlink:href="#DejaVuSans-30" x="159.033203"/>
     <use xlink:href="#DejaVuSans-35" x="222.65625"/>
    </g>
   </g>
   <g id="text_77">
    <!-- 0.869 -->
    <g style="fill: #262626" transform="translate(436.776563 307.436026) scale(0.1 -0.1)">
     <use xlink:href="#DejaVuSans-30"/>
     <use xlink:href="#DejaVuSans-2e" x="63.623047"/>
     <use xlink:href="#DejaVuSans-38" x="95.410156"/>
     <use xlink:href="#DejaVuSans-36" x="159.033203"/>
     <use xlink:href="#DejaVuSans-39" x="222.65625"/>
    </g>
   </g>
   <g id="text_78">
    <!-- 0.737 -->
    <g style="fill: #262626" transform="translate(492.576563 307.436026) scale(0.1 -0.1)">
     <use xlink:href="#DejaVuSans-30"/>
     <use xlink:href="#DejaVuSans-2e" x="63.623047"/>
     <use xlink:href="#DejaVuSans-37" x="95.410156"/>
     <use xlink:href="#DejaVuSans-33" x="159.033203"/>
     <use xlink:href="#DejaVuSans-37" x="222.65625"/>
    </g>
   </g>
   <g id="text_79">
    <!-- 0.625 -->
    <g style="fill: #262626" transform="translate(548.376562 307.436026) scale(0.1 -0.1)">
     <use xlink:href="#DejaVuSans-30"/>
     <use xlink:href="#DejaVuSans-2e" x="63.623047"/>
     <use xlink:href="#DejaVuSans-36" x="95.410156"/>
     <use xlink:href="#DejaVuSans-32" x="159.033203"/>
     <use xlink:href="#DejaVuSans-35" x="222.65625"/>
    </g>
   </g>
   <g id="text_80">
    <!-- 0.549 -->
    <g style="fill: #262626" transform="translate(604.176563 307.436026) scale(0.1 -0.1)">
     <use xlink:href="#DejaVuSans-30"/>
     <use xlink:href="#DejaVuSans-2e" x="63.623047"/>
     <use xlink:href="#DejaVuSans-35" x="95.410156"/>
     <use xlink:href="#DejaVuSans-34" x="159.033203"/>
     <use xlink:href="#DejaVuSans-39" x="222.65625"/>
    </g>
   </g>
  </g>
 </g>
 <defs>
  <clipPath id="p08d9e31654">
   <rect x="199.990625" y="44.801651" width="446.4" height="277.2"/>
  </clipPath>
 </defs>
</svg>
